<svg width="25" height="24" viewBox="0 0 25 24" fill="none" xmlns="http://www.w3.org/2000/svg">
<path fill-rule="evenodd" clip-rule="evenodd" d="M9.65 2H15.82C18.53 2 20.72 3.07 20.75 5.79V20.97C20.75 21.14 20.71 21.31 20.63 21.46C20.5 21.7 20.28 21.88 20.01 21.96C19.75 22.04 19.46 22 19.22 21.86L12.74 18.62L6.25 21.86C6.101 21.939 5.93 21.99 5.76 21.99C5.2 21.99 4.75 21.53 4.75 20.97V5.79C4.75 3.07 6.95 2 9.65 2ZM8.97 9.62H16.5C16.93 9.62 17.28 9.269 17.28 8.83C17.28 8.39 16.93 8.04 16.5 8.04H8.97C8.54 8.04 8.19 8.39 8.19 8.83C8.19 9.269 8.54 9.62 8.97 9.62Z" fill="#152946"/>
</svg>
