<svg width="21" height="20" viewBox="0 0 21 20" fill="none" xmlns="http://www.w3.org/2000/svg">
<path fill-rule="evenodd" clip-rule="evenodd" d="M0.25 8.66993C0.25 3.88166 4.09034 0 8.82764 0C11.1026 0 13.2843 0.913436 14.8929 2.53936C16.5016 4.16529 17.4053 6.37052 17.4053 8.66993C17.4053 13.4582 13.5649 17.3399 8.82764 17.3399C4.09034 17.3399 0.25 13.4582 0.25 8.66993ZM17.2634 15.6543L19.818 17.7164H19.8624C20.3792 18.2388 20.3792 19.0858 19.8624 19.6082C19.3455 20.1306 18.5076 20.1306 17.9907 19.6082L15.8707 17.1785C15.6703 16.9766 15.5576 16.7024 15.5576 16.4164C15.5576 16.1304 15.6703 15.8562 15.8707 15.6543C16.2572 15.2704 16.8768 15.2704 17.2634 15.6543Z" fill="#152946"/>
</svg>
