<svg width="18" height="18" viewBox="0 0 18 18" fill="none" xmlns="http://www.w3.org/2000/svg">
<mask id="mask0_443_10697" style="mask-type:alpha" maskUnits="userSpaceOnUse" x="3" y="3" width="12" height="12">
<path fill-rule="evenodd" clip-rule="evenodd" d="M4.5 6H6V4.5C6 4.0875 6.3375 3.75 6.75 3.75C7.1625 3.75 7.5 4.0875 7.5 4.5V6.75C7.5 7.1625 7.1625 7.5 6.75 7.5H4.5C4.0875 7.5 3.75 7.1625 3.75 6.75C3.75 6.3375 4.0875 6 4.5 6ZM6 12H4.5C4.0875 12 3.75 11.6625 3.75 11.25C3.75 10.8375 4.0875 10.5 4.5 10.5H6.75C7.1625 10.5 7.5 10.8375 7.5 11.25V13.5C7.5 13.9125 7.1625 14.25 6.75 14.25C6.3375 14.25 6 13.9125 6 13.5V12ZM11.25 14.25C11.6625 14.25 12 13.9125 12 13.5V12H13.5C13.9125 12 14.25 11.6625 14.25 11.25C14.25 10.8375 13.9125 10.5 13.5 10.5H11.25C10.8375 10.5 10.5 10.8375 10.5 11.25V13.5C10.5 13.9125 10.8375 14.25 11.25 14.25ZM12 4.5V6H13.5C13.9125 6 14.25 6.3375 14.25 6.75C14.25 7.1625 13.9125 7.5 13.5 7.5H11.25C10.8375 7.5 10.5 7.1625 10.5 6.75V4.5C10.5 4.0875 10.8375 3.75 11.25 3.75C11.6625 3.75 12 4.0875 12 4.5Z" fill="black"/>
</mask>
<g mask="url(#mask0_443_10697)">
<rect width="18" height="18" fill="white"/>
</g>
</svg>
