<svg width="6" height="6" viewBox="0 0 6 6" fill="none" xmlns="http://www.w3.org/2000/svg">
<path d="M5.68908 5.93316C5.64144 5.93363 5.59437 5.9226 5.55189 5.90103C5.5094 5.87946 5.47273 5.84797 5.44499 5.80923C3.89507 3.84267 2.1064 2.07669 0.120205 0.552017C0.0881515 0.52736 0.0612646 0.496645 0.0410866 0.461599C0.0209085 0.426553 0.00781205 0.38788 0.00258157 0.34778C-0.0026489 0.30768 9.00517e-05 0.266937 0.0106034 0.227888C0.0211168 0.188838 0.039212 0.152242 0.0638687 0.120188C0.0885254 0.0881344 0.119263 0.0612475 0.15431 0.0410695C0.189356 0.0208914 0.228028 0.00781788 0.268129 0.00258741C0.308229 -0.00264307 0.348949 7.29661e-05 0.387998 0.0105864C0.427048 0.0210998 0.463667 0.0391949 0.495721 0.0638516C2.52654 1.62232 4.35558 3.42739 5.9407 5.43748C5.98851 5.50288 6.00861 5.5845 5.99666 5.66463C5.98472 5.74477 5.94166 5.81696 5.87684 5.86557C5.82426 5.90967 5.75771 5.93362 5.68908 5.93316Z" fill="white"/>
</svg>
