<svg width="7" height="9" viewBox="0 0 7 9" fill="none" xmlns="http://www.w3.org/2000/svg">
<path d="M6.39115 8.60189C6.29911 8.6022 6.20822 8.58151 6.12538 8.54139C6.04255 8.50126 5.96995 8.44277 5.91314 8.37036L0.128586 0.980019C0.0295446 0.853246 -0.0150843 0.692323 0.004525 0.532647C0.0241343 0.372971 0.106386 0.227623 0.23316 0.128581C0.359934 0.0295392 0.520862 -0.0150839 0.680538 0.00452536C0.840214 0.0241346 0.985545 0.10637 1.08459 0.233143L6.86914 7.61601C6.9404 7.70538 6.9849 7.81311 6.99746 7.92672C7.01002 8.04033 6.99016 8.15517 6.94014 8.25795C6.89011 8.36073 6.81199 8.44723 6.71483 8.50744C6.61767 8.56765 6.50545 8.5991 6.39115 8.59816V8.60189Z" fill="#C3C2FE"/>
</svg>
