<svg width="3" height="3" viewBox="0 0 3 3" fill="none" xmlns="http://www.w3.org/2000/svg">
<path d="M0.308865 2.99987H0.244755C0.203819 2.99202 0.164955 2.97576 0.130617 2.95214C0.0962781 2.92851 0.0672075 2.89802 0.0452434 2.8626C0.0232793 2.82717 0.00893424 2.78757 0.00304002 2.74631C-0.00285419 2.70504 -0.000165316 2.66301 0.0110021 2.62285C0.0110021 2.56253 0.323926 1.19016 2.03184 0.0515509C2.09951 0.00664423 2.18214 -0.00982065 2.26186 0.0057002C2.34159 0.0212211 2.41199 0.0674814 2.45788 0.134496C2.50145 0.202903 2.51676 0.285562 2.50059 0.365039C2.48441 0.444516 2.43802 0.514603 2.37117 0.560534C0.885699 1.5521 0.610502 2.73595 0.610502 2.74726C0.597372 2.81784 0.560096 2.88165 0.505062 2.92774C0.450028 2.97383 0.380648 2.99933 0.308865 2.99987Z" fill="#292F44"/>
</svg>
