<svg width="5" height="9" viewBox="0 0 5 9" fill="none" xmlns="http://www.w3.org/2000/svg">
<path d="M3.82917 8.99965C3.78089 8.99947 3.73338 8.98751 3.69076 8.96482C3.64814 8.94213 3.61169 8.90939 3.58458 8.86944C3.55747 8.82949 3.5405 8.78354 3.53516 8.73555C3.52982 8.68757 3.53628 8.639 3.55395 8.59406C3.55395 8.57234 4.40855 6.45752 3.49599 5.3639C3.16938 5.00593 2.80515 4.6842 2.40962 4.40427C1.26892 3.53154 -0.146997 2.44878 0.0123383 0.272399C0.0181008 0.194605 0.0545505 0.122289 0.113634 0.0713547C0.142889 0.0461348 0.176835 0.0269213 0.213515 0.0148166C0.250194 0.00271188 0.288867 -0.00204966 0.327387 0.000803654C0.365906 0.00365696 0.403492 0.0140718 0.437987 0.0314487C0.472483 0.0488257 0.503211 0.072822 0.528431 0.102077C0.553651 0.131332 0.572864 0.165268 0.584969 0.201947C0.597073 0.238627 0.601835 0.277332 0.598982 0.315852C0.461374 2.17356 1.63466 3.06801 2.77174 3.93712C3.20583 4.24288 3.60533 4.59501 3.96315 4.98728C5.10385 6.3525 4.1551 8.7172 4.11526 8.81859C4.09214 8.87464 4.05218 8.92213 4.00095 8.95455C3.94972 8.98698 3.88972 9.00274 3.82917 8.99965Z" fill="#292F44"/>
</svg>
