<svg width="8" height="2" viewBox="0 0 8 2" fill="none" xmlns="http://www.w3.org/2000/svg">
<path d="M0.290189 1.99978C0.236795 2.00028 0.184311 1.9859 0.13863 1.95825C0.0929496 1.9306 0.0558677 1.89078 0.0315471 1.84324C0.00722646 1.7957 -0.00336853 1.74235 0.000936425 1.68913C0.00524138 1.6359 0.0242742 1.58493 0.0559186 1.54192C0.620267 0.753963 2.01517 0.157663 3.60528 0.0263363C5.08892 -0.0978914 6.3312 0.221556 7.00558 0.895935C7.0597 0.950062 7.09011 1.02348 7.09011 1.10003C7.09011 1.17658 7.0597 1.24997 7.00558 1.3041C6.95145 1.35823 6.87803 1.38865 6.80148 1.38865C6.72494 1.38865 6.65152 1.35823 6.59739 1.3041C6.05079 0.757497 4.95049 0.494844 3.65142 0.594226C2.26362 0.707805 0.978752 1.23312 0.520884 1.87201C0.495205 1.90997 0.460932 1.94131 0.420842 1.96352C0.380751 1.98572 0.335988 1.99815 0.290189 1.99978Z" fill="#292F44"/>
</svg>
