<svg width="14" height="14" viewBox="0 0 14 14" fill="none" xmlns="http://www.w3.org/2000/svg">
<path fill-rule="evenodd" clip-rule="evenodd" d="M6.09307 1.06329C5.62384 1.06329 5.22464 1.38937 5.11258 1.82886H8.88045C8.7684 1.38937 8.3692 1.06329 7.89997 1.06329H6.09307ZM9.94494 1.82885H11.3316C12.8024 1.82885 14 3.04099 14 4.52958C14 4.52958 13.9579 5.15976 13.9439 6.03732C13.9425 6.10679 13.9089 6.17484 13.8536 6.21595C13.5167 6.46476 13.2086 6.67032 13.1806 6.6845C12.018 7.46424 10.667 8.0129 9.22779 8.28581C9.13394 8.30424 9.04149 8.25533 8.99387 8.17168C8.59047 7.47275 7.83689 7.01766 6.99648 7.01766C6.16166 7.01766 5.40108 7.46779 4.98578 8.16743C4.93745 8.24965 4.84641 8.29715 4.75326 8.27943C3.32595 8.00581 1.97498 7.45786 0.819407 6.69159L0.147073 6.22375C0.0910452 6.1883 0.0560278 6.12451 0.0560278 6.05362C0.0350174 5.69211 0 4.52958 0 4.52958C0 3.04099 1.1976 1.82885 2.66833 1.82885H4.04801C4.18108 0.801006 5.04251 0 6.09303 0H7.89993C8.95045 0 9.81188 0.801006 9.94494 1.82885ZM13.7656 7.57065L13.7376 7.58483C12.3229 8.53469 10.6211 9.16557 8.83518 9.42785C8.58306 9.46329 8.33093 9.30026 8.2609 9.04507C8.10682 8.46381 7.60957 8.08103 7.01428 8.08103H7.00727H6.99327C6.39797 8.08103 5.90072 8.46381 5.74665 9.04507C5.67661 9.30026 5.42449 9.46329 5.17236 9.42785C3.38647 9.16557 1.68463 8.53469 0.269925 7.58483C0.262922 7.57774 0.192887 7.53521 0.136859 7.57065C0.0738279 7.60609 0.0738279 7.69116 0.0738279 7.69116L0.122852 11.3063C0.122852 12.7949 1.31344 14 2.78417 14H11.2164C12.6871 14 13.8777 12.7949 13.8777 11.3063L13.9337 7.69116C13.9337 7.69116 13.9337 7.60609 13.8707 7.57065C13.8357 7.54938 13.7936 7.55647 13.7656 7.57065ZM7.52482 10.5407C7.52482 10.8385 7.2937 11.0724 6.99956 11.0724C6.71241 11.0724 6.4743 10.8385 6.4743 10.5407V9.62632C6.4743 9.33569 6.71241 9.09467 6.99956 9.09467C7.2937 9.09467 7.52482 9.33569 7.52482 9.62632V10.5407Z" fill="#4285FA"/>
</svg>
