<svg width="21" height="20" viewBox="0 0 21 20" fill="none" xmlns="http://www.w3.org/2000/svg">
<path fill-rule="evenodd" clip-rule="evenodd" d="M11.2294 1.21964L13.6014 5.99137C13.7202 6.23205 13.9497 6.40002 14.216 6.43894L19.5264 7.20606C19.7415 7.23474 19.9351 7.3474 20.0672 7.51947C20.315 7.84209 20.2771 8.29888 19.9801 8.57644L16.1312 12.2984C15.9356 12.4827 15.8485 12.7531 15.8997 13.0163L16.8215 18.2684C16.886 18.7037 16.589 19.1113 16.1537 19.182C15.9735 19.2096 15.7891 19.181 15.6253 19.1L10.8955 16.6205C10.6579 16.4914 10.3732 16.4914 10.1356 16.6205L5.37101 19.1134C4.9726 19.3161 4.48508 19.1656 4.26795 18.7754C4.18499 18.6176 4.15632 18.4384 4.18499 18.2633L5.10677 13.0112C5.15286 12.749 5.0658 12.4796 4.8753 12.2943L1.00589 8.57336C0.690439 8.25996 0.688391 7.74991 1.00282 7.43446C1.00384 7.43343 1.00487 7.43139 1.00589 7.43036C1.13596 7.31258 1.29574 7.23372 1.46883 7.20299L6.7803 6.43587C7.04557 6.39388 7.27397 6.22796 7.39482 5.98727L9.76481 1.21964C9.86006 1.02607 10.029 0.877561 10.2339 0.809964C10.4398 0.741343 10.6651 0.75773 10.8586 0.855029C11.0174 0.933892 11.1475 1.06192 11.2294 1.21964Z" stroke="#4285FA" stroke-width="1.5" stroke-linecap="round" stroke-linejoin="round"/>
</svg>
