<svg width="3" height="3" viewBox="0 0 3 3" fill="none" xmlns="http://www.w3.org/2000/svg">
<path d="M1.49644 2.99995C1.19992 2.99925 0.910283 2.91068 0.664078 2.74544C0.417873 2.5802 0.226165 2.34569 0.113177 2.07155C0.00018813 1.7974 -0.0290237 1.49592 0.0292512 1.20518C0.087526 0.914448 0.230649 0.647507 0.440564 0.438085C0.650479 0.228662 0.917777 0.0861567 1.20865 0.0285653C1.49952 -0.0290261 1.80091 0.0008832 2.07479 0.114516C2.34867 0.228148 2.58273 0.420403 2.7474 0.666995C2.91206 0.913588 2.99995 1.20345 2.99995 1.49997C2.99901 1.89811 2.84021 2.27963 2.55835 2.56083C2.27649 2.84203 1.89458 2.99995 1.49644 2.99995ZM1.49644 0.57175C1.31286 0.57175 1.13338 0.62619 0.980738 0.728184C0.828093 0.830178 0.70913 0.975148 0.638875 1.14476C0.56862 1.31437 0.55024 1.501 0.586055 1.68106C0.621871 1.86112 0.710301 2.02651 0.840115 2.15632C0.969929 2.28614 1.13531 2.37454 1.31536 2.41036C1.49542 2.44617 1.68205 2.42779 1.85166 2.35754C2.02127 2.28728 2.16623 2.16831 2.26823 2.01566C2.37022 1.86302 2.42466 1.68356 2.42466 1.49997C2.42373 1.2544 2.32553 1.01922 2.15156 0.845903C1.97759 0.67259 1.74201 0.575281 1.49644 0.575282V0.57175Z" fill="#292F44"/>
</svg>
