<svg width="18" height="5" viewBox="0 0 18 5" fill="none" xmlns="http://www.w3.org/2000/svg">
<path d="M8.18505 5.00011C7.85186 5.00123 7.51908 4.97608 7.18983 4.92493C4.40467 4.47028 1.60878 3.61112 0.0300422 0.421436C-0.00413791 0.352127 -0.00937206 0.272073 0.0154683 0.198895C0.0403086 0.125716 0.0932088 0.0653983 0.162518 0.0312182C0.231828 -0.00296192 0.31186 -0.00821792 0.385038 0.0166224C0.458216 0.0414627 0.518535 0.0943629 0.552715 0.163673C1.93097 2.95241 4.24 3.85455 7.28291 4.35215C10.2077 4.8247 15.0692 2.72687 17.1026 0.113549C17.1257 0.0829718 17.1548 0.0573711 17.188 0.038232C17.2212 0.0190929 17.258 0.00681015 17.296 0.0021359C17.3341 -0.00253835 17.3727 0.000477149 17.4096 0.011007C17.4464 0.0215368 17.4808 0.0393783 17.5107 0.0634468C17.5411 0.0866278 17.5667 0.115603 17.5859 0.148705C17.6051 0.181808 17.6175 0.21838 17.6225 0.256316C17.6275 0.294253 17.6249 0.332799 17.6149 0.369739C17.605 0.40668 17.5878 0.441271 17.5644 0.471538C15.599 2.99536 11.3175 5.00011 8.18505 5.00011Z" fill="#292F44"/>
</svg>
