<svg width="14" height="12" viewBox="0 0 14 12" fill="none" xmlns="http://www.w3.org/2000/svg">
<path fill-rule="evenodd" clip-rule="evenodd" d="M8.14224 3.17494C8.14224 4.93745 6.69996 6.34988 4.90022 6.34988C3.10113 6.34988 1.6582 4.93745 1.6582 3.17494C1.6582 1.41243 3.10113 0 4.90022 0C6.69996 0 8.14224 1.41243 8.14224 3.17494ZM0 9.94491C0 8.31336 2.25702 7.90515 4.89956 7.90515C7.55644 7.90515 9.79911 8.32741 9.79911 9.96024C9.79911 11.5918 7.54209 12 4.89956 12C2.24267 12 0 11.5777 0 9.94491ZM9.44853 3.23249C9.44853 4.13003 9.17325 4.96753 8.69054 5.6632C8.64031 5.73475 8.68467 5.83121 8.77208 5.84654C8.89341 5.86635 9.018 5.87848 9.1452 5.88104C10.4107 5.91362 11.5464 5.11573 11.8601 3.91411C12.3252 2.13116 10.9606 0.530273 9.22218 0.530273C9.03366 0.530273 8.85296 0.549438 8.67684 0.584573C8.6527 0.589684 8.62661 0.601183 8.61356 0.621625C8.5966 0.647817 8.609 0.681674 8.62596 0.704033C9.14846 1.42143 9.44853 2.2947 9.44853 3.23249ZM11.5451 7.13484C12.3957 7.29774 12.9547 7.62929 13.1863 8.11287C13.3826 8.50894 13.3826 8.96889 13.1863 9.36496C12.8321 10.1137 11.6892 10.3545 11.245 10.4165C11.153 10.4292 11.0793 10.3526 11.0891 10.2619C11.3161 8.18698 9.51114 7.20319 9.04408 6.97705C9.02451 6.96619 9.01994 6.95086 9.0219 6.94064C9.0232 6.93425 9.03168 6.92403 9.04669 6.92211C10.0571 6.90295 11.1439 7.03902 11.5451 7.13484Z" fill="#4285FA"/>
</svg>
