<svg width="3" height="8" viewBox="0 0 3 8" fill="none" xmlns="http://www.w3.org/2000/svg">
<path d="M2.52049 7.99997C2.46764 7.99993 2.41553 7.98759 2.36827 7.96392C0.55766 6.99452 -0.103295 2.15554 0.0128724 0.304871C0.0190479 0.219144 0.0585879 0.139255 0.122992 0.0823392C0.187396 0.0254239 0.271528 -0.00398079 0.357363 0.000433999C0.400183 0.00245304 0.442178 0.0130431 0.480832 0.0315763C0.519487 0.0501096 0.554032 0.0762069 0.582419 0.108329C0.610806 0.140451 0.632447 0.177943 0.646085 0.218583C0.659724 0.259223 0.665069 0.302188 0.661806 0.344931C0.541633 2.31978 1.30273 6.65403 2.66469 7.39109C2.72783 7.42576 2.77763 7.48045 2.80626 7.54655C2.83488 7.61264 2.84071 7.68638 2.82281 7.75614C2.80491 7.82591 2.76429 7.88773 2.70738 7.93188C2.65047 7.97603 2.58049 7.99998 2.50846 7.99997H2.52049Z" fill="#292F44"/>
</svg>
