<svg width="12" height="14" viewBox="0 0 12 14" fill="none" xmlns="http://www.w3.org/2000/svg">
<path fill-rule="evenodd" clip-rule="evenodd" d="M6.07167 9.25215H5.82687C4.14451 9.25215 2.78085 7.90487 2.78085 6.24421V3.00794C2.78085 1.34661 4.14451 0 5.82687 0H6.07167C7.75403 0 9.11837 1.34661 9.11837 3.00794V6.24421C9.11837 7.90487 7.75403 9.25215 6.07167 9.25215ZM10.5438 6.14798C10.5438 5.77768 10.8476 5.47836 11.2219 5.47836C11.5962 5.47836 11.9 5.77768 11.9 6.14798C11.9 9.1606 9.59036 11.6482 6.62842 11.9824V13.3303C6.62842 13.7 6.32463 13.9999 5.95032 13.9999C5.57533 13.9999 5.27222 13.7 5.27222 13.3303V11.9824C2.30961 11.6482 0 9.1606 0 6.14798C0 5.77768 0.303788 5.47836 0.678099 5.47836C1.05241 5.47836 1.3562 5.77768 1.3562 6.14798C1.3562 8.64901 3.41694 10.684 5.95032 10.684C8.48302 10.684 10.5438 8.64901 10.5438 6.14798Z" fill="#4285FA"/>
</svg>
