<svg width="14" height="16" viewBox="0 0 14 16" fill="none" xmlns="http://www.w3.org/2000/svg">
<path fill-rule="evenodd" clip-rule="evenodd" d="M11.4359 5.50256V4.23998C11.4359 1.90399 9.44423 0 7.00908 0H6.98397C4.54883 0 2.5572 1.88879 2.54883 4.23998V5.50397C2.85202 5.40592 3.17014 5.34019 3.49933 5.31522C3.17137 5.34039 2.85443 5.406 2.5523 5.50371C1.07113 5.99971 0 7.3445 0 8.93569V12.3677C0 14.3677 1.70711 15.9997 3.79916 15.9997H10.1925C12.2929 15.9997 14 14.3677 14 12.3677V8.93569C14 7.3445 12.9289 5.99971 11.4393 5.50371C11.4382 5.50333 11.437 5.50295 11.4359 5.50256ZM10.1806 5.30371V4.23998C10.1806 2.56799 8.75803 1.19999 7.00071 1.19999H6.99234C5.23502 1.19999 3.81243 2.55279 3.80406 4.22398V5.30371H10.1806ZM7.73006 11.5355C7.73006 11.9275 7.4037 12.2395 6.99366 12.2395C6.59198 12.2395 6.26562 11.9275 6.26562 11.5355V9.75947C6.26562 9.37628 6.59198 9.06348 6.99366 9.06348C7.4037 9.06348 7.73006 9.37628 7.73006 9.75947V11.5355Z" fill="#C3C2FE"/>
</svg>
