<svg width="7" height="2" viewBox="0 0 7 2" fill="none" xmlns="http://www.w3.org/2000/svg">
<path d="M0.293141 1.99997C0.223113 1.99816 0.155908 1.97197 0.103118 1.92592C0.0503277 1.87988 0.0152451 1.81684 0.00394031 1.7477C-0.00736452 1.67857 0.00583719 1.60766 0.0412103 1.5472C0.0765835 1.48673 0.131923 1.44051 0.197727 1.41649C0.366531 1.36144 4.33714 0 6.32977 0C6.4086 0 6.48421 0.0313166 6.53995 0.0870605C6.59569 0.142804 6.62699 0.218408 6.62699 0.297242C6.62699 0.376076 6.59569 0.45168 6.53995 0.507423C6.48421 0.563167 6.4086 0.594484 6.32977 0.594484C4.43622 0.594484 0.432596 1.96693 0.39223 1.98161C0.360398 1.99299 0.326938 1.9992 0.293141 1.99997Z" fill="#292F44"/>
</svg>
