<svg width="24" height="14" viewBox="0 0 24 14" fill="none" xmlns="http://www.w3.org/2000/svg">
<path d="M0.287044 13.6269C0.227274 13.6271 0.168871 13.6091 0.119637 13.5752C0.0704023 13.5413 0.0326783 13.4932 0.0115405 13.4372C-0.00878596 13.3665 -0.00209554 13.2907 0.030299 13.2246C0.0626935 13.1585 0.118501 13.1068 0.186875 13.0795C11.1566 9.06508 21.9869 4.76089 23.4431 0.199096C23.4683 0.128587 23.519 0.070064 23.5852 0.0349867C23.6514 -9.06934e-05 23.7283 -0.00918253 23.8008 0.00948031C23.8717 0.0340359 23.9305 0.0847955 23.9651 0.151338C23.9997 0.21788 24.0075 0.295151 23.9869 0.367268C22.6023 4.72512 14.2837 8.52483 0.37291 13.6054C0.345285 13.6161 0.316445 13.6233 0.287044 13.6269Z" fill="#292F44"/>
</svg>
