<svg width="38" height="52" viewBox="0 0 38 52" fill="none" xmlns="http://www.w3.org/2000/svg">
<path d="M33.1745 52.0001H4.00516C2.94321 51.9992 1.92503 51.5769 1.17412 50.826C0.423205 50.0751 0.000931942 49.0569 0 47.995V4.00163C0.000932885 2.94001 0.423319 1.92219 1.17433 1.17184C1.92534 0.421487 2.94353 -4.09879e-07 4.00516 0H33.1745C34.2355 0.00093194 35.2528 0.422834 36.0031 1.17308C36.7533 1.92333 37.1752 2.94062 37.1761 4.00163V47.995C37.1761 49.0566 36.7546 50.0748 36.0043 50.8258C35.2539 51.5768 34.2361 51.9992 33.1745 52.0001ZM4.00516 1.12975C3.24689 1.12975 2.51964 1.43072 1.98314 1.96656C1.44664 2.50241 1.14476 3.2293 1.14383 3.98756V47.9809C1.14476 48.7395 1.44652 49.4667 1.98292 50.0031C2.51932 50.5395 3.24657 50.8413 4.00516 50.8422H33.1745C33.9328 50.8413 34.6597 50.5394 35.1955 50.0029C35.7313 49.4664 36.0323 48.7392 36.0323 47.9809V3.98756C36.0314 3.22991 35.73 2.50355 35.1943 1.96781C34.6585 1.43207 33.9322 1.13068 33.1745 1.12975H4.00516Z" fill="#100C27"/>
</svg>
