<svg width="21" height="23" viewBox="0 0 21 23" fill="none" xmlns="http://www.w3.org/2000/svg">
<path d="M13.5468 22.8561C13.4765 22.8565 13.4084 22.8321 13.3544 22.7871C13.3249 22.7618 13.3007 22.7308 13.2833 22.696C13.2658 22.6613 13.2554 22.6234 13.2527 22.5845C13.25 22.5457 13.255 22.5067 13.2675 22.4699C13.28 22.433 13.2997 22.399 13.3254 22.3698C13.3617 22.3262 17.0596 17.9969 18.279 15.4747C19.5418 12.8437 20.7358 6.59102 20.3329 3.04552C20.137 1.33627 19.0048 0.657655 18.0068 0.592333C17.3271 0.561453 16.6588 0.774522 16.1225 1.19309C15.5861 1.61167 15.217 2.20817 15.0818 2.87496C14.9382 3.52783 14.8303 4.18808 14.7589 4.85274C14.396 7.64705 13.9024 11.4684 9.64562 12.2522C4.69933 13.1595 0.544152 17.2275 0.504233 17.2711C0.448575 17.3258 0.37363 17.3565 0.295563 17.3565C0.217495 17.3565 0.142572 17.3258 0.0869146 17.2711C0.0593744 17.2438 0.0375093 17.2113 0.0225925 17.1755C0.00767567 17.1396 0 17.1012 0 17.0624C0 17.0236 0.00767567 16.9852 0.0225925 16.9494C0.0375093 16.9136 0.0593744 16.8811 0.0869146 16.8538C0.261105 16.6832 4.40902 12.6151 9.54039 11.6752C13.3726 10.9712 13.7972 7.68335 14.1746 4.78017C14.2467 4.09067 14.3594 3.40603 14.5121 2.7298C14.6797 1.92879 15.128 1.21402 15.776 0.714316C16.4241 0.214615 17.2294 -0.0371391 18.0467 0.00443572C19.5963 0.106047 20.7212 1.27095 20.9172 2.97657C21.3345 6.60554 20.1043 13.0288 18.8088 15.7324C17.5568 18.338 13.9242 22.5875 13.7718 22.769C13.7427 22.7988 13.7076 22.822 13.6687 22.837C13.6299 22.852 13.5883 22.8586 13.5468 22.8561Z" fill="#292F44"/>
</svg>
