<svg width="10" height="85" viewBox="0 0 10 85" fill="none" xmlns="http://www.w3.org/2000/svg">
<path d="M9.7199 84.8593C9.64744 84.8595 9.5776 84.8323 9.52443 84.783C9.47126 84.7338 9.43872 84.6663 9.43335 84.594C8.21993 68.1933 1.85918 6.20612 0.0125111 0.365415C0.00158001 0.329875 -0.00224643 0.292527 0.00126151 0.25551C0.00476945 0.218493 0.0155465 0.18254 0.032959 0.149686C0.0503714 0.116832 0.0740815 0.0877355 0.102745 0.0640512C0.131409 0.0403668 0.16445 0.0225528 0.199997 0.0116467C0.27177 -0.00946781 0.348952 -0.00166668 0.415056 0.0333685C0.48116 0.0684037 0.530944 0.127905 0.553765 0.199154C2.41105 6.08231 8.78595 68.1544 9.99937 84.5728C10.0028 84.6105 9.99851 84.6486 9.98691 84.6847C9.97531 84.7207 9.9566 84.7541 9.93185 84.7828C9.90711 84.8115 9.87685 84.835 9.84287 84.8518C9.80889 84.8686 9.77188 84.8784 9.73405 84.8806L9.7199 84.8593Z" fill="#292F44"/>
</svg>
