<svg width="28" height="28" viewBox="0 0 28 28" fill="none" xmlns="http://www.w3.org/2000/svg">
<path d="M27.6761 19.0283L23.8435 16.7997L27.6761 14.5659C27.7731 14.5089 27.8536 14.4272 27.9096 14.329C27.9655 14.2307 27.995 14.1194 27.995 14.0062C27.995 13.8929 27.9655 13.7816 27.9096 13.6834C27.8536 13.5852 27.7731 13.5035 27.6761 13.4464L23.8487 11.2127L27.6556 8.99442C27.7632 8.9383 27.8525 8.85188 27.9124 8.74565C27.955 8.67215 27.9827 8.59092 27.9941 8.50659C28.0055 8.42227 28.0003 8.3365 27.9789 8.2542C27.9574 8.1719 27.9201 8.09467 27.869 8.02693C27.8179 7.95919 27.7541 7.90226 27.6813 7.85939L14.3237 0.0852228C14.2258 0.0293581 14.1151 0 14.0026 0C13.8901 0 13.7795 0.0293581 13.6815 0.0852228L0.32399 7.85939C0.225767 7.91608 0.144137 7.99794 0.087363 8.09669C0.0305893 8.19544 0.000688872 8.30757 0.000688872 8.42173C0.000688872 8.53588 0.0305893 8.64801 0.087363 8.74676C0.144137 8.84551 0.225767 8.92737 0.32399 8.98406L4.15144 11.2127L0.318852 13.4464C0.221835 13.5035 0.141338 13.5852 0.0853902 13.6834C0.0294425 13.7816 0 13.8929 0 14.0062C0 14.1194 0.0294425 14.2307 0.0853902 14.329C0.141338 14.4272 0.221835 14.5089 0.318852 14.5659L4.15144 16.7997L0.32399 19.0283C0.225767 19.085 0.144137 19.1668 0.087363 19.2656C0.0305893 19.3643 0.000688872 19.4765 0.000688872 19.5906C0.000688872 19.7048 0.0305893 19.8169 0.087363 19.9157C0.144137 20.0144 0.225767 20.0963 0.32399 20.1529L13.6815 27.9271C13.778 27.9782 13.886 28.0032 13.9949 27.9997C14.1085 27.9988 14.22 27.9684 14.3186 27.9116L27.6761 20.1374C27.773 20.0797 27.8534 19.9974 27.9092 19.8988C27.965 19.8002 27.9943 19.6886 27.9943 19.5751C27.9943 19.4615 27.965 19.3499 27.9092 19.2513C27.8534 19.1527 27.773 19.0705 27.6761 19.0127V19.0283ZM1.92176 14.0062L5.43068 11.9642L13.6507 16.7634C13.7473 16.8207 13.8572 16.8512 13.9692 16.8515C14.0828 16.8506 14.1943 16.8203 14.2929 16.7634L22.5129 11.9642L26.0681 14.0062L13.9949 21.0392L1.92176 14.0062ZM13.9949 26.6211L1.92176 19.5932L5.43068 17.5201L13.6507 22.3194C13.7472 22.3768 13.8572 22.4071 13.9692 22.4071C14.0813 22.4071 14.1913 22.3768 14.2878 22.3194L22.5335 17.5201L26.0424 19.5932L13.9949 26.6211Z" fill="#F8F9FA"/>
</svg>
