<svg width="3" height="5" viewBox="0 0 3 5" fill="none" xmlns="http://www.w3.org/2000/svg">
<path d="M2.20145 4.99994C2.1407 4.99934 2.08115 4.98262 2.02898 4.95147C1.9768 4.92033 1.93387 4.87589 1.90451 4.82269C1.87514 4.76949 1.86041 4.70945 1.86186 4.6487C1.86331 4.58796 1.88086 4.52868 1.91273 4.47694C2.17985 4.04137 2.30961 3.53546 2.28511 3.02509C2.23072 2.66527 1.62823 2.12134 1.13869 1.6862C0.715628 1.34909 0.346037 0.949861 0.0424793 0.502109C0.0206364 0.462981 0.00684492 0.419864 0.00197709 0.375317C-0.00289075 0.330769 0.00125603 0.285701 0.0141328 0.242778C0.0270097 0.199855 0.0483691 0.159945 0.0769546 0.125434C0.10554 0.0909226 0.140759 0.0625195 0.180534 0.041876C0.219544 0.0204438 0.262394 0.00690814 0.306637 0.00203775C0.35088 -0.00283264 0.395671 0.00104545 0.43841 0.0134785C0.481148 0.0259115 0.521002 0.0466439 0.555728 0.0744871C0.590454 0.10233 0.619341 0.136754 0.640767 0.175768C0.910459 0.553266 1.23156 0.891237 1.59474 1.17992C2.22234 1.74476 2.87087 2.32634 2.95455 2.92884C3.0069 3.59993 2.84266 4.27012 2.48594 4.84095C2.4557 4.88923 2.4138 4.9291 2.36408 4.95689C2.31435 4.98468 2.25842 4.99949 2.20145 4.99994Z" fill="#292F44"/>
</svg>
