<svg width="17" height="17" viewBox="0 0 17 17" fill="none" xmlns="http://www.w3.org/2000/svg">
<path d="M8.50002 17C6.81872 17 5.17518 16.5014 3.77728 15.5673C2.37938 14.6331 1.28992 13.3054 0.646681 11.752C0.00344345 10.1986 -0.164676 8.48934 0.163597 6.8404C0.49187 5.19146 1.30179 3.6769 2.49091 2.4883C3.68003 1.2997 5.19492 0.490441 6.84401 0.162881C8.49309 -0.164679 10.2023 0.00417529 11.7554 0.648085C13.3085 1.29199 14.6358 2.38203 15.5693 3.78033C16.5029 5.17864 17.0008 6.82238 17 8.50368C16.9971 10.7568 16.1005 12.9167 14.507 14.5096C12.9135 16.1024 10.7531 16.9981 8.50002 17ZM8.50002 1.20484C7.05499 1.20484 5.64241 1.63335 4.44091 2.43616C3.23942 3.23898 2.30296 4.38005 1.74997 5.71508C1.19698 7.05011 1.0523 8.51914 1.33421 9.9364C1.61613 11.3537 2.31198 12.6555 3.33377 13.6773C4.35556 14.6991 5.65738 15.3949 7.07464 15.6768C8.4919 15.9588 9.96095 15.8141 11.296 15.2611C12.631 14.7081 13.7721 13.7716 14.5749 12.5701C15.3777 11.3686 15.8062 9.95607 15.8062 8.51104C15.8062 6.57264 15.0367 4.71352 13.6667 3.34218C12.2968 1.97083 10.4384 1.19945 8.50002 1.1975V1.20484Z" fill="#F89F93"/>
</svg>
