<svg width="14" height="14" viewBox="0 0 14 14" fill="none" xmlns="http://www.w3.org/2000/svg">
<path fill-rule="evenodd" clip-rule="evenodd" d="M0 7.00397C0 3.14034 3.14185 0 6.99991 0C10.858 0 13.9998 3.14034 13.9998 7.00397C13.9998 10.8595 10.858 13.9998 6.99991 13.9998C3.14185 13.9998 0 10.8595 0 7.00397ZM9.56745 7.7124C9.64177 7.63811 9.73637 7.5233 9.75664 7.49629C9.86474 7.35447 9.9188 7.17888 9.9188 7.00397C9.9188 6.80744 9.85799 6.6251 9.74312 6.47652C9.73371 6.46712 9.71528 6.44706 9.69126 6.42091C9.64632 6.37199 9.5818 6.30177 9.52015 6.24015C8.96611 5.64585 7.52018 4.67336 6.76343 4.37621C6.64857 4.32961 6.35803 4.22764 6.20263 4.22088C6.05398 4.22088 5.91209 4.25465 5.77696 4.32219C5.60804 4.41673 5.47291 4.56531 5.39858 4.7409C5.35129 4.86246 5.27696 5.22714 5.27696 5.2339C5.20264 5.63235 5.1621 6.28068 5.1621 6.99654C5.1621 7.67931 5.20264 8.29995 5.26345 8.70515C5.26512 8.70682 5.27093 8.7358 5.27996 8.78082C5.30741 8.91769 5.3646 9.20283 5.42561 9.31971C5.57426 9.60336 5.86479 9.77894 6.1756 9.77894H6.20263C6.40533 9.77219 6.831 9.5966 6.831 9.58985C7.5472 9.2927 8.95935 8.36748 9.52691 7.75292L9.56745 7.7124Z" fill="#4285FA"/>
</svg>
