<svg width="9" height="8" viewBox="0 0 9 8" fill="none" xmlns="http://www.w3.org/2000/svg">
<path d="M8.67986 7.79871C8.63373 7.79866 8.58815 7.78849 8.54636 7.76895C8.50457 7.7494 8.46758 7.72095 8.43796 7.68557C8.39504 7.63485 4.25146 2.6407 0.185917 0.604033C0.14721 0.586545 0.112444 0.561443 0.08366 0.53021C0.0548761 0.498976 0.0326855 0.46224 0.0184099 0.422237C0.00413423 0.382234 -0.00195739 0.339781 0.000549422 0.297381C0.00305623 0.254981 0.0140941 0.21352 0.032984 0.175478C0.0518738 0.137436 0.0782584 0.103583 0.110522 0.0759594C0.142786 0.0483353 0.180283 0.0274914 0.22078 0.0146862C0.261278 0.00188095 0.303904 -0.00260789 0.346184 0.00144565C0.388465 0.00549919 0.429499 0.0180192 0.466826 0.0382858C4.65722 2.13348 8.75399 7.0613 8.92567 7.28369C8.95254 7.3155 8.97279 7.35237 8.9852 7.39212C8.99762 7.43186 9.00192 7.47369 8.99792 7.51514C8.99392 7.55659 8.9817 7.59681 8.96191 7.63345C8.94213 7.67009 8.91522 7.70241 8.88276 7.72849C8.82523 7.77457 8.75356 7.79937 8.67986 7.79871Z" fill="white"/>
</svg>
