<svg width="16" height="19" viewBox="0 0 16 19" fill="none" xmlns="http://www.w3.org/2000/svg">
<path d="M15.2475 11.2908C15.158 11.3826 14.8202 11.7753 14.5056 12.0983C12.6608 14.1297 7.84835 17.4547 5.32953 18.4696C4.947 18.6327 3.97988 18.9778 3.46316 19C2.96804 19 2.49605 18.886 2.04565 18.6548C1.4842 18.3318 1.03381 17.8236 0.787014 17.2235C0.628142 16.8071 0.38135 15.561 0.38135 15.5388C0.134557 14.1756 -0.00117915 11.9605 -0.00117893 9.51272C-0.00117873 7.18048 0.134558 5.05566 0.336619 3.67183C0.359755 3.64966 0.606548 2.10117 0.876476 1.57076C1.3716 0.601763 2.33872 9.92677e-05 3.3737 9.93582e-05L3.46317 9.9366e-05C4.13722 0.0238483 5.55473 0.625514 5.55473 0.647679C7.93781 1.66418 12.6392 4.82607 14.5287 6.92715C14.5287 6.92715 15.0608 7.46706 15.2922 7.80431C15.6531 8.28881 15.8321 8.88889 15.8321 9.48897C15.8321 10.1587 15.63 10.7825 15.2475 11.2908Z" fill="white"/>
</svg>
