<svg width="38" height="36" viewBox="0 0 38 36" fill="none" xmlns="http://www.w3.org/2000/svg">
<path d="M0.834344 35.9175C0.702456 35.9176 0.574487 35.8728 0.471373 35.7906C0.368259 35.7083 0.296132 35.5935 0.266824 35.4649C-0.0722163 34.1005 -0.0883887 32.6757 0.219643 31.3039C0.527676 29.9321 1.1514 28.6511 2.04125 27.5625C2.77404 26.6597 3.70797 25.941 4.76831 25.4638C5.82866 24.9867 6.98598 24.7644 8.14765 24.8147C12.6377 25.0481 18.0975 23.9993 18.6183 17.7061C18.9309 13.9021 20.1449 11.1112 22.2103 9.41216C24.0063 7.95021 26.3232 7.37908 29.1357 7.70596C31.6501 8.0005 33.6832 7.49042 35.0158 6.22963C36.3485 4.96883 36.9555 3.03993 36.8118 0.618922C36.8071 0.542505 36.8175 0.465906 36.8424 0.393501C36.8673 0.321096 36.9062 0.254302 36.9569 0.196932C37.0076 0.139562 37.0691 0.092742 37.1378 0.0591406C37.2066 0.0255392 37.2814 0.00582529 37.3578 0.00110821C37.4342 -0.00360887 37.5108 0.00676271 37.5833 0.0316481C37.6557 0.0565335 37.7225 0.0954351 37.7798 0.146134C37.8372 0.196834 37.884 0.258343 37.9176 0.327138C37.9512 0.395932 37.9709 0.470683 37.9756 0.547099C38.1481 3.32372 37.4045 5.5759 35.8204 7.07736C34.2364 8.57881 31.8692 9.20023 28.9956 8.87336C26.51 8.5824 24.4733 9.07092 22.9467 10.3102C21.122 11.8044 20.0551 14.3224 19.7678 17.7959C19.1392 25.4073 12.1707 26.1832 8.07223 25.9749C7.09371 25.9384 6.1202 26.1308 5.22911 26.5368C4.33802 26.9427 3.55393 27.551 2.93925 28.3133C2.16495 29.2623 1.62308 30.379 1.35679 31.5745C1.0905 32.77 1.10715 34.0112 1.40546 35.1991C1.42519 35.2751 1.42944 35.3543 1.41796 35.432C1.40647 35.5096 1.37952 35.5842 1.33864 35.6512C1.29775 35.7182 1.24379 35.7763 1.18 35.8221C1.1162 35.8678 1.04384 35.9003 0.967246 35.9175C0.923104 35.9228 0.878486 35.9228 0.834344 35.9175Z" fill="#F89F93"/>
</svg>
