<svg width="21" height="6" viewBox="0 0 21 6" fill="none" xmlns="http://www.w3.org/2000/svg">
<path d="M0.29344 5.65861C0.228799 5.6584 0.166018 5.63685 0.114854 5.59735C0.0636903 5.55784 0.026986 5.50256 0.0104318 5.44008C0.000183922 5.40291 -0.00254615 5.36408 0.00238583 5.32584C0.00731781 5.2876 0.0198176 5.25072 0.0391611 5.21737C0.0585046 5.18402 0.0843097 5.15487 0.115051 5.1316C0.145793 5.10833 0.180855 5.09142 0.218206 5.08186C3.08397 4.32601 5.63091 3.48779 7.89127 2.74628C12.5123 1.23817 16.4886 -0.0621794 20.7407 0.00230018C20.8125 0.0102718 20.8789 0.0444607 20.9271 0.098327C20.9753 0.152193 21.002 0.221954 21.002 0.29425C21.002 0.366547 20.9753 0.436308 20.9271 0.490174C20.8789 0.54404 20.8125 0.578229 20.7407 0.586201C16.5996 0.514557 12.8419 1.74684 8.08473 3.30152C5.81361 4.04303 3.24159 4.88126 0.379409 5.64427L0.29344 5.65861Z" fill="#292F44"/>
</svg>
