<svg width="180" height="166" viewBox="0 0 180 166" fill="none" xmlns="http://www.w3.org/2000/svg">
<path d="M78.7333 33.739C78.3241 29.6476 81.6314 28.2838 83.3361 28.1133C91.008 25.0447 107.272 19.2144 110.955 20.4418C115.558 21.9761 114.023 20.9533 115.558 25.0447C117.092 29.1362 117.092 26.579 121.183 32.7162C125.275 38.8534 121.695 36.2962 122.718 42.4334C123.74 48.5705 124.252 44.9905 125.786 50.1048C127.32 55.2191 124.763 53.6849 124.763 57.7763C124.763 61.8677 130.9 55.7306 133.969 62.3792C136.424 67.6981 131.923 68.6868 129.366 68.5164L123.74 69.5392H108.909C106.352 69.5392 98.6803 69.0278 96.1232 68.5164C93.566 68.0049 77.2002 66.4706 75.6659 65.9592C74.4385 65.55 70.3811 60.3335 68.5059 57.7763C68.5059 57.0944 68.915 54.6054 70.5516 50.1048C72.5973 44.4791 73.1088 48.0591 73.1088 45.502C73.1088 42.9448 74.1316 44.4791 78.7333 41.4105C83.3349 38.3419 79.2447 38.8534 78.7333 33.739Z" fill="#343C55"/>
<path d="M119.28 60.8175C126.592 62.6657 151.896 72.4607 167.805 99.9262C183.713 127.392 180.388 141.961 177.013 148.946C173.639 155.931 156.268 161.21 149.519 161.949L150.87 166H48.253L54.104 136.295C54.104 136.295 56.6737 123.628 56.3543 122.343C56.077 121.242 63.9274 92.5421 63.9274 92.5421C63.9274 92.5421 26.9499 93.5964 24.0085 93.1847C19.9914 92.6219 4.16257 92.2229 1.73802 81.3778C-0.686526 70.5327 2.94401 61.3846 10.8942 57.0457C18.8443 52.7069 29.9376 51.7492 45.6026 52.4716C61.2676 53.1941 81.8363 56.0839 81.8363 56.0839L119.28 60.8175Z" fill="#8BE7F1"/>
<path d="M85.0543 30.1978C82.9533 28.8453 81.1884 29.152 79.9026 30.7397C78.6168 32.3274 79.2177 35.78 81.949 37.5525C83.487 38.5815 85.209 39.3046 87.0208 39.682L85.0543 30.1978Z" fill="#FFCEC1"/>
<path d="M85.0553 25.7365C84.383 27.6224 84.009 30.5626 84.7275 35.0905C85.4461 39.6184 86.9084 41.4665 88.0303 42.9198L87.4672 55.7684L81.845 56.0918C81.845 56.0918 82.1853 61.8797 86.8243 65.1643C91.2448 68.2977 96.9091 68.1633 100.964 67.9785C104.734 67.7435 108.446 66.9303 111.969 65.5676C114.675 64.4466 117.152 62.8409 119.28 60.8297C119.28 60.8297 107.738 56.7848 107.712 54.2437C107.687 51.7025 107.901 43.4364 107.901 43.4364C107.901 43.4364 108.049 42.1301 108.435 40.03C109.589 40.0121 110.725 39.7446 111.765 39.2457C112.805 38.7468 113.725 38.0285 114.461 37.1402C117.045 34.0824 116.633 30.2938 114.041 28.8699C111.448 27.446 109.301 30.0712 109.301 30.0712C108.033 27.7163 106.933 25.2755 106.006 22.7669C105.132 20.2468 99.8211 17.3066 93.7156 18.1886C88.9253 18.8691 86.1814 22.5779 85.0553 25.7365Z" fill="#FFCEC1"/>
<path d="M100.089 30.0415C100.509 30.0079 100.728 29.6635 100.673 29.0209C100.619 28.3782 100.375 28.0674 99.9337 28.1052C99.4925 28.143 99.2992 28.4832 99.3496 29.1259C99.4 29.7685 99.6521 30.0751 100.089 30.0415Z" fill="#303336"/>
<path d="M91.1858 30.5121C91.606 30.4785 91.8203 30.1341 91.7699 29.4915C91.7195 28.8488 91.4674 28.5422 91.0304 28.5758C90.5934 28.6094 90.3959 28.9539 90.4463 29.5965C90.4967 30.2391 90.7488 30.55 91.1858 30.5121Z" fill="#303336"/>
<path d="M102.386 24.4767C101.638 24.223 100.845 24.1227 100.057 24.1819C99.2687 24.241 98.5003 24.4585 97.7978 24.8211" stroke="#292F44" stroke-width="0.572566" stroke-linecap="round" stroke-linejoin="round"/>
<path d="M93.4575 25.2501C92.688 24.9984 91.8739 24.9121 91.0687 24.9968C90.2635 25.0815 89.4852 25.3353 88.7849 25.7415" stroke="#292F44" stroke-width="0.572566" stroke-linecap="round" stroke-linejoin="round"/>
<path d="M95.5025 28.3167C94.9605 30.1816 93.5444 31.6769 93.515 32.5169C93.4856 33.357 95.7421 33.42 95.7421 33.42" stroke="#F89F93" stroke-width="0.572566" stroke-linecap="round" stroke-linejoin="round"/>
<path d="M113.741 31.3277C112.061 32.7138 110.044 36.2252 110.044 36.2252" stroke="#F89F93" stroke-width="0.572566" stroke-linecap="round" stroke-linejoin="round"/>
<path d="M81.7862 31.9488C82.7695 32.9064 84.1981 36.2834 84.1981 36.2834" stroke="#F89F93" stroke-width="0.572566" stroke-linecap="round" stroke-linejoin="round"/>
<path d="M103.565 35.7874C104.523 35.7874 104.998 35.0482 104.973 33.6453C104.948 32.2424 104.448 31.5452 103.49 31.5452C102.531 31.5452 102.057 32.2844 102.082 33.6873C102.107 35.0902 102.607 35.8168 103.565 35.7874Z" fill="#FE9074"/>
<path d="M88.9952 36.2755C89.9406 36.1159 90.3062 35.3305 90.0709 33.9486C89.8356 32.5667 89.2305 31.9409 88.2934 32.1005C87.3564 32.2601 86.9866 33.0455 87.2177 34.4274C87.4489 35.8093 88.0539 36.4352 88.9952 36.2755Z" fill="#FE9074"/>
<path d="M91.8767 35.7207C94.2887 36.7456 98.2049 36.0819 99.9529 35.3007" stroke="#F89F93" stroke-width="0.572566" stroke-linecap="round" stroke-linejoin="round"/>
<path d="M88.0325 42.9078C91.163 46.5242 96.2264 46.121 98.1552 45.8017" stroke="#F89F93" stroke-width="0.572566" stroke-linecap="round" stroke-linejoin="round"/>
<path d="M84.253 30.8649C83.2109 30.7011 82.3033 27.5677 82.4882 26.2069C82.8076 23.7959 85.6439 22.7332 85.3792 21.1455C84.959 18.7388 86.3414 16.5673 89.0727 15.6852C91.804 14.8031 93.6151 15.9792 94.779 14.5595C96.2245 12.7954 97.8297 12.5518 99.1953 14.2403C100.351 15.6642 102.09 14.2403 103.292 13.7573C104.494 13.2743 107.553 15.282 107.553 15.282C108.031 14.4499 108.328 13.5264 108.425 12.5719C108.522 11.6173 108.417 10.653 108.116 9.74184C107.469 7.86432 101.928 7.51003 104.815 7.1446C108.513 6.66577 103.857 10.2876 104.815 8.6789C105.773 7.0702 108.2 9.67876 110.204 10.7246C112.209 11.7705 110.511 12.6621 112.998 12.2589C115.486 11.8557 113.064 14.9585 115.555 14.5595C118.047 14.1605 115.564 14.4798 117.09 15.6853C118.615 16.8908 115.982 16.5655 118.112 15.8388C120.44 15.0366 119.394 14.4507 118.112 16.8617C116.831 19.2726 120.486 15.5766 121.692 16.8618C122.898 18.1471 124.466 16.5994 122.294 17.8847C120.243 19.1028 120.407 16.3212 120.487 18.3961C120.567 20.4711 124.615 20.2946 122.715 18.3961C120.614 16.296 125.131 16.9621 124.408 19.2134C123.736 21.3135 123.335 20.9877 121.692 18.3961C120.167 15.9852 122.731 18.491 120.487 19.8561C118.545 21.0363 117.192 21.8638 115.184 19.0538C114.007 17.4031 111.167 17.9281 110.284 19.2134C109.402 20.4987 109.158 21.385 110.204 22.4266C111.251 23.4683 112.692 25.56 112.772 27.3241C112.852 29.0882 108.99 31.8226 108.99 31.8226C108.99 31.8226 108.347 28.6094 107.545 27.0847C106.898 25.8624 105.053 21.8638 102.242 20.8221C99.8172 19.9191 96.1362 19.0538 92.2788 20.3391C87.6566 21.8848 86.0935 24.5939 85.3708 26.3623C84.8535 27.8235 84.4792 29.3315 84.253 30.8649Z" fill="#343C55"/>
<path d="M81.0377 156.663C81.2814 159.07 86.9457 161.703 94.1731 163.047C101.401 164.391 117.553 164.61 125.507 164.249C133.462 163.887 158.169 160.145 158.169 160.145C158.169 160.145 160.821 151.715 157.686 144.247C154.551 136.779 145.395 134.246 145.395 134.246C145.395 134.246 128.642 137.501 125.028 137.258C121.415 137.014 115.028 136.657 112.498 138.224C109.968 139.791 81.0377 156.663 81.0377 156.663Z" fill="#FFCEC1"/>
<path d="M115.259 137.388C112.124 137.989 110.561 141.588 107.666 144.495C104.771 147.401 98.1483 148.107 96.5809 151.001C95.0136 153.895 96.0977 155.697 99.1021 155.94C102.107 156.184 106.573 155.697 109.708 154.26C112.843 152.824 116.334 150.766 116.334 150.766L115.259 137.388Z" fill="#FFCEC1"/>
<path d="M29.6035 62.8522C20.1084 61.9676 12.5932 60.8805 8.20849 61.5174" stroke="#292F44" stroke-width="0.572566" stroke-linecap="round" stroke-linejoin="round"/>
<path d="M126.909 93.982C131.25 101.211 148.281 133.973 148.281 133.973" stroke="#292F44" stroke-width="0.572566" stroke-linecap="round" stroke-linejoin="round"/>
<path d="M168.674 131.726C164.497 131.726 148.925 133.574 145.378 134.246" stroke="#292F44" stroke-width="0.572566" stroke-linecap="round" stroke-linejoin="round"/>
<path d="M95.9796 153.731C98.1478 152.526 103.61 152.929 104.253 155.575" stroke="#F89F93" stroke-width="0.572566" stroke-linecap="round" stroke-linejoin="round"/>
<path d="M89.3152 161.683C89.874 160.477 87.0629 158.39 85.0544 157.583" stroke="#F89F93" stroke-width="0.572566" stroke-linecap="round" stroke-linejoin="round"/>
<path d="M114.621 151.643C117.192 150.358 120.003 148.993 120.003 148.993" stroke="#F89F93" stroke-width="0.572566" stroke-linecap="round" stroke-linejoin="round"/>
<path d="M122.561 46.3555C122.528 46.2176 122.468 46.0879 122.383 45.974C122.299 45.8602 122.192 45.7646 122.07 45.693C121.948 45.6214 121.812 45.5753 121.671 45.5574C121.531 45.5396 121.388 45.5504 121.252 45.5892C120.975 45.6825 120.745 45.8789 120.61 46.1374C120.474 46.3959 120.444 46.6967 120.524 46.9772C120.557 47.1152 120.617 47.2451 120.702 47.3591C120.786 47.473 120.893 47.5688 121.015 47.6404C121.137 47.712 121.273 47.758 121.414 47.7758C121.554 47.7935 121.697 47.7825 121.833 47.7435C122.11 47.6502 122.34 47.4538 122.475 47.1953C122.611 46.9368 122.642 46.636 122.561 46.3555Z" fill="#FF9D8F"/>
<path d="M121.654 46.6695C122.751 46.5758 122.994 57.1318 122.994 57.1318C122.994 57.1318 122.279 57.4883 121.928 57.4058C121.578 57.3234 121.399 55.8975 121.399 55.8975L121.363 57.3919C121.363 57.3919 120.162 57.439 119.744 57.1306C119.744 57.1306 119.92 46.8149 121.654 46.6695Z" fill="#FF9D8F"/>
<path d="M115.566 20.186C115.566 20.186 116.299 25.4312 114.916 25.3995C113.534 25.3678 110.705 23.1442 105.219 23.7109C99.3975 22.7911 95.804 21.2887 89.6397 18.2748C85.3014 12.1618 93.5677 11.2109 93.5677 11.2109L115.566 20.1911L115.566 20.186Z" fill="#2D3A4A"/>
<path d="M103.029 21.2177L132.999 24.037L133.578 22.6629L103.665 2.30557L74.1496 3.14822e-06L73.6314 1.22932L103.029 21.2177Z" fill="#1B2737"/>
<path d="M122.039 45.8893L122.006 24.3566C122.107 23.3969 121.946 22.4278 121.541 21.552C121.136 20.6761 120.502 19.9262 119.705 19.3816L106.413 10.3106C106.344 10.2624 106.266 10.2284 106.183 10.2107C106.101 10.193 106.016 10.1918 105.933 10.2073C105.851 10.2228 105.772 10.2546 105.701 10.3009C105.631 10.3472 105.571 10.407 105.524 10.4769C105.5 10.5115 105.483 10.5506 105.474 10.5918C105.465 10.633 105.465 10.6756 105.473 10.717C105.481 10.7584 105.497 10.7977 105.52 10.8328C105.543 10.8679 105.574 10.898 105.609 10.9214L119.717 20.5444C120.25 20.9075 120.675 21.4083 120.945 21.9934C121.216 22.5785 121.323 23.2261 121.255 23.8673L121.27 46.1449L122.039 45.8893Z" fill="#FF9D8F"/>
<path d="M67.71 57.9609L73.6311 51.0603C73.6311 51.0603 81.4145 54.3992 87.4345 59.7596C93.4546 65.1201 96.7488 72.3642 96.7488 72.3642C96.7488 72.3642 103.5 69.9948 112.006 72.6499C120.511 75.3049 124.471 78.2097 125.903 79.407L124.776 88.5055L93.4057 77.7634L67.71 57.9609Z" fill="white"/>
<path d="M66.762 56.7834C66.8685 56.4817 67.0839 56.2306 67.3659 56.0795C67.6479 55.9284 67.9762 55.888 68.2864 55.9664C71.079 56.6655 78.4762 58.7818 84.5072 62.8514C92.1065 67.9755 94.7884 72.4511 94.7884 72.4511L98.2144 74.2522C98.2144 74.2522 106.857 74.8981 114.554 79.4211C120.184 82.7254 123.986 86.0916 125.625 87.667C125.884 87.9162 126.045 88.2497 126.08 88.6074C126.115 88.9652 126.021 89.3236 125.815 89.6182L125.434 90.1654L103.624 118.779C103.519 118.917 103.387 119.032 103.235 119.117C103.084 119.201 102.917 119.254 102.744 119.272C102.572 119.289 102.398 119.271 102.232 119.219C102.067 119.166 101.914 119.081 101.783 118.967C100.245 117.628 97.1194 115.001 93.547 112.544C87.9153 108.67 82.7199 106.503 82.7199 106.503L78.4438 104.537C78.4438 104.537 71.7456 99.6771 65.9772 96.8802C62.5582 95.2308 59.052 93.7683 55.4743 92.4992C55.3153 92.4436 55.1688 92.3571 55.0434 92.2446C54.9179 92.1321 54.816 91.9959 54.7435 91.8438C54.6709 91.6917 54.6292 91.5268 54.6207 91.3585C54.6122 91.1902 54.6371 91.022 54.694 90.8633L66.762 56.7834Z" fill="#4285FA"/>
<path d="M94.7829 72.4498L78.4809 104.543C79.4257 105.769 80.7787 106.292 82.3814 106.386L98.2089 74.2509C97.2379 73.3701 96.059 72.7504 94.7829 72.4498Z" fill="#306AD0"/>
<path fill-rule="evenodd" clip-rule="evenodd" d="M72.2779 52.3192C72.3105 52.2468 72.3956 52.2146 72.4679 52.2472C74.7719 53.2848 79.3688 55.7364 83.9739 59.1118C88.5761 62.4852 93.2036 66.7936 95.5478 71.5491C95.5829 71.6203 95.5536 71.7065 95.4824 71.7416C95.4112 71.7767 95.325 71.7474 95.2899 71.6762C92.9768 66.9836 88.3946 62.7086 83.8039 59.3437C79.2161 55.9808 74.6367 53.5392 72.3499 52.5093C72.2775 52.4767 72.2453 52.3916 72.2779 52.3192Z" fill="#4285FA"/>
<path fill-rule="evenodd" clip-rule="evenodd" d="M110.032 73.7113C114.965 74.8408 121.996 78.653 125.629 81.35C125.693 81.3973 125.706 81.4874 125.659 81.5511C125.611 81.6149 125.521 81.6282 125.457 81.5808C121.844 78.8982 114.849 75.1092 109.968 73.9915C105.068 72.8696 100.757 72.4959 97.5433 73.0927C97.4652 73.1072 97.3902 73.0556 97.3757 72.9776C97.3612 72.8995 97.4127 72.8245 97.4908 72.81C100.762 72.2026 105.118 72.586 110.032 73.7113Z" fill="#4285FA"/>
<path fill-rule="evenodd" clip-rule="evenodd" d="M78.6961 58.0324C75.3573 56.3095 72.2022 54.9892 70.7462 54.4416C70.6719 54.4137 70.6343 54.3308 70.6623 54.2565C70.6902 54.1822 70.7731 54.1446 70.8474 54.1725C72.3132 54.7238 75.4786 56.0486 78.8279 57.7769C82.1742 59.5036 85.7186 61.6403 87.9313 63.818C87.9879 63.8736 87.9886 63.9646 87.933 64.0212C87.8773 64.0778 87.7863 64.0785 87.7297 64.0229C85.5496 61.8773 82.0381 59.7568 78.6961 58.0324Z" fill="#4285FA"/>
<path fill-rule="evenodd" clip-rule="evenodd" d="M112.01 76.0134C116.615 77.5096 122.129 81.3116 125.357 84.0362C125.417 84.0874 125.425 84.1781 125.374 84.2388C125.322 84.2994 125.232 84.3071 125.171 84.2559C121.954 81.5403 116.474 77.766 111.921 76.2868C107.349 74.8018 103.135 74.1129 101.568 74.0564C101.489 74.0536 101.427 73.9869 101.429 73.9076C101.432 73.8283 101.499 73.7663 101.578 73.7691C103.18 73.8269 107.422 74.523 112.01 76.0134Z" fill="#4285FA"/>
<path d="M2.79584 65.3054C-1.33223 72.6825 -2.16203 83.1125 9.27971 89.831C20.7215 96.5496 44.6584 90.5432 47.4541 90.0455C50.2499 89.5478 56.3815 88.3001 57.8985 88.3129C59.4155 88.3257 65.1837 89.1428 67.2983 88.9657C69.4129 88.7886 70.0185 87.6493 70.3988 86.6047C70.779 85.5601 70.6094 83.8053 69.3752 83.1617C69.3752 83.1617 72.7036 83.9952 73.8745 82.3831C75.0454 80.7711 74.5425 78.305 72.8972 77.186C72.8972 77.186 74.7373 77.214 75.4127 75.1435C76.088 73.0729 74.851 71.4259 72.1832 70.0112C69.5154 68.5966 63.3065 66.7859 63.3065 66.7859L65.635 59.7678C65.635 59.7678 56.5683 58.0606 52.5004 59.0438C48.4325 60.027 46.4909 61.2911 41.9624 61.3364C37.4339 61.3816 28.6613 61.7959 28.6613 61.7959C28.6613 61.7959 27.1075 62.0332 16.3058 60.683C5.50401 59.3328 2.79584 65.3054 2.79584 65.3054Z" fill="#FFCEC1"/>
<path fill-rule="evenodd" clip-rule="evenodd" d="M63.4439 66.8099C63.4287 66.8878 63.3532 66.9387 63.2753 66.9235C59.4021 66.1688 56.4656 65.8643 53.9764 65.982C53.8971 65.9858 53.8298 65.9245 53.826 65.8452C53.8223 65.7659 53.8835 65.6986 53.9628 65.6948C56.4848 65.5756 59.4468 65.8846 63.3303 66.6413C63.4082 66.6565 63.459 66.732 63.4439 66.8099Z" fill="#2D3A4A"/>
<path fill-rule="evenodd" clip-rule="evenodd" d="M67.8946 74.7775C70.3184 75.5695 72.1993 76.4598 73.0633 77.0471C73.129 77.0917 73.146 77.1811 73.1014 77.2467C73.0568 77.3124 72.9674 77.3294 72.9017 77.2848C72.0698 76.7194 70.218 75.8391 67.8053 75.0508C65.3955 74.2635 62.4373 73.5716 59.3963 73.3768C59.3171 73.3718 59.257 73.3034 59.262 73.2242C59.2671 73.145 59.3354 73.0849 59.4147 73.0899C62.4854 73.2866 65.4678 73.9847 67.8946 74.7775Z" fill="#2D3A4A"/>
<path fill-rule="evenodd" clip-rule="evenodd" d="M69.6253 83.1469C69.5944 83.2201 69.5101 83.2543 69.437 83.2234C65.4542 81.5409 61.9641 80.6667 57.0995 81.0534C57.0203 81.0597 56.9511 81.0006 56.9448 80.9215C56.9385 80.8423 56.9976 80.7731 57.0767 80.7668C61.9983 80.3756 65.5351 81.263 69.5489 82.9586C69.622 82.9895 69.6562 83.0738 69.6253 83.1469Z" fill="#2D3A4A"/>
<path d="M74.3034 76.7111C74.7325 76.4137 75.1578 75.9305 75.4137 75.1423C76.0045 73.3327 75.1333 71.8468 73.1244 70.5569C71.756 70.2564 70.4159 70.6642 70.1005 72.0422C69.7077 73.7634 71.9647 76.5466 74.3034 76.7111Z" fill="#FFB7A4"/>
<path d="M73.6431 77.8712C72.3471 77.1065 70.1398 76.2678 69.3472 77.7092C68.4448 79.3513 69.6416 81.3984 71.8458 82.089C72.6169 82.33 73.2043 82.5083 73.6481 82.6402C73.7316 82.561 73.8079 82.4745 73.8761 82.3817C74.8436 81.0453 74.6665 79.1278 73.6431 77.8712Z" fill="#FFB7A4"/>
<path d="M70.4029 86.601C70.6776 85.8435 70.6616 84.7155 70.163 83.9067C68.7595 82.9753 66.7207 82.3255 65.6053 83.4724C64.3617 84.7519 65.1178 86.5936 66.5694 87.2322C67.5167 87.644 68.7332 87.9663 69.4694 88.1375C69.954 87.695 70.209 87.1356 70.4029 86.601Z" fill="#FFB7A4"/>
</svg>
