<svg width="28" height="35" viewBox="0 0 28 35" fill="none" xmlns="http://www.w3.org/2000/svg">
<path d="M3.95684 13.2064C4.61931 12.0213 5.04685 10.7196 5.21603 9.37248C5.45521 7.30781 4.79045 4.65572 6.37677 3.0694C9.1027 0.34347 16.767 -0.915727 20.0451 0.747972C22.5424 2.01421 23.8298 5.79183 23.777 8.96798C23.7418 11.2965 24.5332 12.3974 24.5332 12.3974C24.5332 12.3974 25.3422 9.87545 26.6436 10.1779C27.9451 10.4804 28.2546 13.5089 27.6496 15.3238C27.0446 17.1387 25.7326 19.0557 24.4242 18.3487C24.4242 18.3487 23.6152 21.5776 21.6103 23.4946C21.6103 23.4946 21.9128 28.8409 21.7088 29.9524C21.5048 31.0639 17.1715 35.1967 11.5085 34.9927C5.84564 34.7887 3.03528 29.1434 2.83127 28.3379C2.62726 27.5325 5.85969 21.2751 5.85969 21.2751C5.33626 20.5713 4.86598 19.8294 4.45276 19.0557C4.45276 19.0557 -0.288609 18.4507 0.0138818 14.7188C0.316373 10.9869 3.95684 13.2064 3.95684 13.2064Z" fill="#FFCEC1"/>
</svg>
