<svg width="94" height="91" viewBox="0 0 94 91" fill="none" xmlns="http://www.w3.org/2000/svg">
<path d="M76.3435 73.597C76.2936 73.3797 76.2004 73.1748 76.0692 72.9945C75.938 72.8142 75.7718 72.6623 75.5804 72.548C75.389 72.4337 75.1764 72.3592 74.9555 72.3292C74.7345 72.2992 74.5099 72.3142 74.2949 72.3733C73.8586 72.5162 73.4941 72.8218 73.2773 73.2266C73.0605 73.6314 73.0081 74.1041 73.1309 74.5466C73.1804 74.764 73.2736 74.9692 73.4047 75.1497C73.5358 75.3301 73.7021 75.4822 73.8936 75.5966C74.0851 75.711 74.2978 75.7853 74.5188 75.8152C74.7399 75.845 74.9646 75.8297 75.1796 75.7702C75.616 75.6273 75.9804 75.3217 76.1972 74.9169C76.414 74.5122 76.4664 74.0394 76.3435 73.597Z" fill="#F89F93"/>
<path d="M74.9098 74.0786C76.637 73.9465 76.8713 90.555 76.8713 90.555C76.8713 90.555 75.7422 91.1058 75.1914 90.9712C74.6407 90.8367 74.379 88.5911 74.379 88.5911L74.3017 90.9413C74.3017 90.9413 72.4126 90.9986 71.7596 90.5076C71.7596 90.5076 72.1808 74.2829 74.9098 74.0786Z" fill="#F89F93"/>
<path d="M65.7019 32.3329C65.7019 32.3329 66.7814 40.594 64.6065 40.5248C62.4316 40.4556 58.0135 36.9183 49.3754 37.7329C40.7373 38.5476 30.1999 40.4635 23.4611 30.7867C16.7223 21.1098 31.2224 17.9066 31.2224 17.9066L65.7019 32.3408L65.7019 32.3329Z" fill="#2D3A4A"/>
<path d="M45.2087 36.1156L93.0704 38.6353L94 36.482L47.2299 4.03999L0.833682 8.14486e-06L0.0012639 1.92654L45.2087 36.1156Z" fill="#9E9CFD"/>
<path d="M75.5246 72.8566L75.7738 38.9841C75.9461 37.4759 75.7072 35.9492 75.0824 34.5658C74.4576 33.1824 73.4702 31.9938 72.2248 31.1259L51.4416 16.6707C51.3337 16.5939 51.2116 16.5394 51.0824 16.5104C50.9532 16.4813 50.8195 16.4783 50.6891 16.5015C50.5587 16.5247 50.4342 16.5737 50.3229 16.6455C50.2116 16.7174 50.1158 16.8106 50.041 16.9199C50.0028 16.974 49.9757 17.0353 49.9613 17.1C49.947 17.1647 49.9457 17.2316 49.9576 17.2968C49.9694 17.362 49.9941 17.4242 50.0302 17.4797C50.0664 17.5353 50.1132 17.5831 50.1681 17.6203L72.2273 32.9553C73.0603 33.534 73.7208 34.3276 74.1386 35.2519C74.5564 36.1761 74.7159 37.1963 74.6 38.204L74.3108 73.2479L75.5246 72.8566Z" fill="#F89F93"/>
</svg>
