<svg width="14" height="17" viewBox="0 0 14 17" fill="none" xmlns="http://www.w3.org/2000/svg">
<path d="M13.4831 9.9834C13.404 10.0646 13.1053 10.4118 12.8271 10.6974C11.1959 12.4936 6.94067 15.4336 4.71349 16.331C4.37526 16.4752 3.52012 16.7804 3.06322 16.8C2.62543 16.8 2.20809 16.6992 1.80984 16.4948C1.3134 16.2092 0.915149 15.7598 0.696931 15.2292C0.556454 14.861 0.338237 13.7592 0.338237 13.7396C0.120019 12.5342 0 10.5756 0 8.4112C0 6.349 0.120019 4.4702 0.298685 3.2466C0.319143 3.227 0.53736 1.8578 0.776035 1.3888C1.21383 0.532 2.06897 0 2.98412 0H3.06322C3.65923 0.021 4.91262 0.553 4.91262 0.5726C7.01978 1.4714 11.1768 4.2672 12.8475 6.125C12.8475 6.125 13.3181 6.6024 13.5226 6.9006C13.8418 7.329 14 7.8596 14 8.3902C14 8.9824 13.8213 9.534 13.4831 9.9834Z" fill="white"/>
</svg>
