<svg width="62" height="117" viewBox="0 0 62 117" fill="none" xmlns="http://www.w3.org/2000/svg">
<path d="M41.8687 94.2311L25.4429 74.8067L44.8709 36.8998C44.8709 36.8998 53.5035 34.3351 56.8656 30.2886C60.2276 26.2422 61.9916 15.4505 61.9916 11.9438C61.9916 8.43707 61.4518 2.90538 58.6189 2.63373C55.7861 2.36209 55.652 6.00637 55.652 6.00637C55.652 6.00637 56.6292 0.644018 54.2021 0.139534C51.7749 -0.364951 50.0533 0.442932 49.6476 3.47689C49.6476 3.47689 49.6476 2.06575 46.8253 1.95991C44.003 1.85408 43.3856 5.80528 42.8812 8.63816C42.3767 11.471 42.2744 15.2141 41.2619 15.9232C40.2494 16.6323 31.8531 16.6288 29.9304 18.6537C28.0077 20.6787 19.6996 31.3011 13.3494 44.7599C6.99927 58.2187 -1.52051 72.9193 0.232839 86.1417C1.98619 99.3642 16.7926 113.458 21.5446 117C21.5446 117 26.2014 115.684 33.0808 109.412C39.9601 103.139 41.8687 94.2311 41.8687 94.2311Z" fill="#FFCEC1"/>
</svg>
