<svg width="4" height="5" viewBox="0 0 4 5" fill="none" xmlns="http://www.w3.org/2000/svg">
<path d="M0.304443 4.99994C0.25141 5.00037 0.199338 4.98604 0.153981 4.95856C0.119035 4.93866 0.0883415 4.91203 0.0637309 4.88023C0.0391204 4.84842 0.021038 4.81206 0.0105455 4.77324C5.29621e-05 4.73441 -0.00263824 4.6939 0.00259982 4.65403C0.00783787 4.61415 0.0209245 4.57571 0.0410881 4.54092C0.116338 4.41299 1.89975 1.33528 3.42732 0.0710877C3.45799 0.0451704 3.49352 0.0256584 3.53185 0.0136883C3.57018 0.00171826 3.61052 -0.00246578 3.65049 0.00139092C3.69046 0.00524762 3.72924 0.0170581 3.76457 0.036136C3.79991 0.0552139 3.8311 0.0811774 3.85625 0.112481C3.90806 0.174382 3.93321 0.254304 3.92615 0.334719C3.9191 0.415133 3.88043 0.489463 3.81863 0.541398C2.38137 1.7341 0.597909 4.81558 0.579097 4.84568C0.551095 4.89342 0.51093 4.93288 0.462668 4.95998C0.414406 4.98709 0.359789 5.00088 0.304443 4.99994Z" fill="#292F44"/>
</svg>
