<svg width="18" height="18" viewBox="0 0 18 18" fill="none" xmlns="http://www.w3.org/2000/svg">
<path d="M17.9999 9.81076C17.8423 11.5166 17.2021 13.1422 16.1542 14.4975C15.1064 15.8527 13.6943 16.8815 12.0831 17.4635C10.4719 18.0455 8.72827 18.1565 7.05625 17.7837C5.38423 17.4109 3.85296 16.5696 2.64163 15.3583C1.4303 14.1469 0.589001 12.6157 0.21618 10.9437C-0.156641 9.27163 -0.045565 7.52801 0.53641 5.91682C1.11839 4.30562 2.14719 2.89349 3.50244 1.84566C4.85769 0.797828 6.48333 0.157639 8.18914 0C7.19044 1.35113 6.70986 3.01583 6.83481 4.69134C6.95976 6.36685 7.68193 7.94186 8.86999 9.12992C10.058 10.318 11.6331 11.0401 13.3086 11.1651C14.9841 11.29 16.6488 10.8095 17.9999 9.81076Z" fill="#152946"/>
</svg>
