<svg width="5" height="6" viewBox="0 0 5 6" fill="none" xmlns="http://www.w3.org/2000/svg">
<path d="M3.71674 5.99975C2.99101 5.97072 0.643259 5.81831 0.131617 5.20144C0.0817505 5.14433 0.0446393 5.07726 0.0227394 5.00468C0.000839578 4.9321 -0.0053369 4.85567 0.00462268 4.78051C0.077196 4.29064 0.944441 3.26011 2.26528 1.74695C2.73434 1.24347 3.17185 0.711451 3.57524 0.153962C3.61284 0.0857118 3.6757 0.03494 3.75034 0.012549C3.82498 -0.00984195 3.90543 -0.00206032 3.97439 0.0342205C4.00888 0.052124 4.03943 0.076768 4.06422 0.106699C4.08901 0.136629 4.10753 0.171242 4.1187 0.208467C4.12987 0.245692 4.13346 0.284779 4.12924 0.323413C4.12502 0.362048 4.11308 0.399441 4.09414 0.433376C3.67734 1.03506 3.21515 1.604 2.71162 2.13522C1.95323 3.00247 0.701329 4.43943 0.596097 4.83495C0.799303 5.07807 2.24714 5.34659 3.74578 5.41191C3.82373 5.41191 3.89849 5.44288 3.95361 5.498C4.00873 5.55312 4.0397 5.62788 4.0397 5.70583C4.0397 5.78378 4.00873 5.85854 3.95361 5.91366C3.89849 5.96879 3.82373 5.99975 3.74578 5.99975H3.71674Z" fill="#292F44"/>
</svg>
