<svg width="5" height="5" viewBox="0 0 5 5" fill="none" xmlns="http://www.w3.org/2000/svg">
<path d="M4.14103 4.99562H4.09874C0.869965 4.50567 -0.131106 2.12991 0.0134135 0.244105C0.0246873 0.172456 0.0624826 0.107666 0.119306 0.0625906C0.176129 0.0175148 0.247826 -0.00454453 0.320161 0.000780734C0.392496 0.006106 0.460198 0.0384328 0.509807 0.0913441C0.559417 0.144255 0.587308 0.213884 0.587968 0.286412C0.545669 0.878589 0.517475 3.87472 4.18333 4.42813C4.25905 4.43373 4.32944 4.46919 4.37902 4.5267C4.4286 4.58421 4.45331 4.65906 4.4477 4.73479C4.44209 4.81051 4.40663 4.8809 4.34912 4.93048C4.29161 4.98006 4.21676 5.00476 4.14103 4.99915V4.99562Z" fill="#292F44"/>
</svg>
