<svg width="78" height="18" viewBox="0 0 78 18" fill="none" xmlns="http://www.w3.org/2000/svg">
<mask id="mask0_443_12474" style="mask-type:alpha" maskUnits="userSpaceOnUse" x="3" y="1" width="12" height="16">
<path d="M8.96999 4.23183V2.13933C8.96999 1.80183 8.56499 1.63683 8.33249 1.87683L5.48249 4.71933C5.33249 4.86933 5.33249 5.10183 5.48249 5.25183L8.32499 8.09433C8.56499 8.32683 8.96999 8.16183 8.96999 7.82433V5.73183C11.7675 5.73183 13.98 8.29683 13.365 11.1993C13.0125 12.9018 11.6325 14.2743 9.93749 14.6268C7.25999 15.1893 4.87499 13.3518 4.51499 10.8693C4.46249 10.5093 4.14749 10.2318 3.77999 10.2318C3.32999 10.2318 2.96999 10.6293 3.02999 11.0793C3.49499 14.3718 6.62999 16.8093 10.1775 16.1193C12.5175 15.6618 14.4 13.7793 14.8575 11.4393C15.6 7.59183 12.675 4.23183 8.96999 4.23183Z" fill="black"/>
</mask>
<g mask="url(#mask0_443_12474)">
<rect width="18" height="18" fill="white"/>
</g>
<mask id="mask1_443_12474" style="mask-type:alpha" maskUnits="userSpaceOnUse" x="31" y="1" width="16" height="16">
<path fill-rule="evenodd" clip-rule="evenodd" d="M39 1.5C34.86 1.5 31.5 4.86 31.5 9C31.5 13.14 34.86 16.5 39 16.5C43.14 16.5 46.5 13.14 46.5 9C46.5 4.86 43.14 1.5 39 1.5ZM38.1 11.925L41.6025 9.3C41.805 9.15 41.805 8.85 41.6025 8.7L38.1 6.075C37.8525 5.8875 37.5 6.0675 37.5 6.375V11.625C37.5 11.9325 37.8525 12.1125 38.1 11.925ZM33 9C33 12.3075 35.6925 15 39 15C42.3075 15 45 12.3075 45 9C45 5.6925 42.3075 3 39 3C35.6925 3 33 5.6925 33 9Z" fill="black"/>
</mask>
<g mask="url(#mask1_443_12474)">
<rect x="30" width="18" height="18" fill="white"/>
</g>
<mask id="mask2_443_12474" style="mask-type:alpha" maskUnits="userSpaceOnUse" x="63" y="2" width="12" height="14">
<path d="M73.2331 4.76359C72.0106 3.54109 70.2781 2.83609 68.3731 3.03109C65.6206 3.30859 63.3556 5.54359 63.0481 8.29609C62.6356 11.9336 65.4481 15.0011 68.9956 15.0011C71.3881 15.0011 73.4431 13.5986 74.4031 11.5811C74.6431 11.0786 74.2831 10.5011 73.7281 10.5011C73.4506 10.5011 73.1881 10.6511 73.0681 10.8986C72.2206 12.7211 70.1881 13.8761 67.9681 13.3811C66.3031 13.0136 64.9606 11.6561 64.6081 9.99109C63.9781 7.08109 66.1906 4.50109 68.9956 4.50109C70.2406 4.50109 71.3506 5.01859 72.1606 5.83609L71.0281 6.96859C70.5556 7.44109 70.8856 8.25109 71.5531 8.25109H74.2456C74.6581 8.25109 74.9956 7.91359 74.9956 7.50109V4.80859C74.9956 4.14109 74.1856 3.80359 73.7131 4.27609L73.2331 4.76359Z" fill="black"/>
</mask>
<g mask="url(#mask2_443_12474)">
<rect x="60" width="18" height="18" fill="white"/>
</g>
</svg>
