<svg width="11" height="5" viewBox="0 0 11 5" fill="none" xmlns="http://www.w3.org/2000/svg">
<path d="M5.59838 4.72568C2.43321 4.72568 0.165221 1.9648 0.0689564 1.84543C0.0340057 1.79926 0.011452 1.74492 0.00347965 1.68756C-0.00414782 1.62603 0.000795367 1.56358 0.0180039 1.50401C0.0352125 1.44445 0.0643322 1.38899 0.103598 1.341C0.419346 0.955945 1.43207 0.848136 4.30845 0.601699L5.42127 0.509289C6.57645 0.405323 7.54294 0.282114 8.31306 0.181999C9.81094 -0.0143808 10.4925 -0.102944 10.8429 0.181999C11.1086 0.409183 10.9623 0.821195 10.9161 0.952115C10.4886 2.17275 8.48247 4.61016 5.79091 4.70643L5.59838 4.72568ZM0.742808 1.64521C1.3435 2.28826 3.31885 4.1635 5.74856 4.07878C7.48132 4.02102 8.75973 2.86585 9.37197 2.18045C9.80133 1.74193 10.1322 1.21682 10.3423 0.640219C9.68275 0.624648 9.02329 0.677545 8.37464 0.798082C7.60452 0.898197 6.63419 1.02526 5.45591 1.12537L4.34309 1.22164C2.77205 1.36026 1.26264 1.49503 0.742808 1.66061V1.64521Z" fill="#292F44"/>
</svg>
