<svg width="91" height="84" viewBox="0 0 91 84" fill="none" xmlns="http://www.w3.org/2000/svg">
<path d="M4.28949 47.0957C6.01195 46.7724 7.14621 45.114 6.82292 43.3915C6.49964 41.6691 4.84124 40.5348 3.11878 40.8581C1.39633 41.1814 0.262073 42.8398 0.585355 44.5622C0.908637 46.2847 2.56704 47.419 4.28949 47.0957Z" stroke="#4285FA" stroke-width="0.920005" stroke-linecap="round" stroke-linejoin="round"/>
<path d="M90.5201 35.5559C90.4765 35.8316 90.3522 36.0882 90.1627 36.2931C89.9733 36.4981 89.7274 36.6423 89.456 36.7075C89.1847 36.7727 88.9 36.756 88.6382 36.6594C88.3763 36.5628 88.149 36.3907 87.985 36.165C87.8209 35.9392 87.7275 35.6698 87.7166 35.3909C87.7056 35.1121 87.7776 34.8362 87.9235 34.5982C88.0693 34.3603 88.2825 34.1709 88.5359 34.0541C88.7894 33.9373 89.0718 33.8983 89.3475 33.9421C89.7168 34.0009 90.0478 34.2039 90.2676 34.5065C90.4875 34.809 90.5783 35.1865 90.5201 35.5559V35.5559Z" stroke="#689EFB" stroke-width="0.920005" stroke-linecap="round" stroke-linejoin="round"/>
<path d="M84.982 12.1439C86.4967 10.6292 86.4967 8.17331 84.982 6.65858C83.4673 5.14384 81.0114 5.14384 79.4967 6.65857C77.9819 8.17331 77.9819 10.6292 79.4967 12.1439C81.0114 13.6587 83.4673 13.6587 84.982 12.1439Z" stroke="#8DE2EF" stroke-width="0.920005" stroke-linecap="round" stroke-linejoin="round"/>
<path d="M26.9049 10.5333C24.7048 11.9656 21.7845 12.4356 19.8943 10.2753C17.7731 7.85429 19.472 4.44417 20.892 4.46832C21.9511 4.48613 23.4967 5.73253 22.1742 7.42956C20.8516 9.12658 17.962 9.43797 16.0085 8.48923C14.0551 7.5405 13.5803 5.09167 13.6606 3.67957" stroke="#8DE2EF" stroke-width="0.920005" stroke-linecap="round" stroke-linejoin="round"/>
<path d="M72.4126 81.9547C70.4002 82.2562 69.0777 81.3531 69.4719 80.3046C69.866 79.2561 69.8951 77.8859 67.5904 77.7709C65.2856 77.6558 64.3587 76.8514 64.9943 75.52C65.6299 74.1885 64.6495 73.5412 62.9008 73.6223" stroke="#9E9CFD" stroke-width="0.920005" stroke-linecap="round" stroke-linejoin="round"/>
<circle cx="48.4747" cy="38.5411" r="34.048" fill="#8EB6FC"/>
<path d="M60.3617 25.0578V37.959H56.7241V25.0578C56.7962 23.9223 56.6363 22.784 56.2542 21.7131C55.8721 20.6422 55.276 19.6616 54.5027 18.8318C53.7294 18.0019 52.7952 17.3405 51.758 16.8884C50.7208 16.4362 49.6025 16.2029 48.4722 16.2029C47.3419 16.2029 46.2236 16.4362 45.1863 16.8884C44.1491 17.3405 43.215 18.0019 42.4417 18.8318C41.6683 19.6616 41.0722 20.6422 40.6901 21.7131C40.3081 22.784 40.1481 23.9223 40.2202 25.0578V37.959H36.5826V25.0578C36.4967 23.4325 36.7405 21.8065 37.2991 20.2791C37.8578 18.7517 38.7197 17.3549 39.8322 16.1737C40.9447 14.9926 42.2845 14.052 43.7699 13.4091C45.2554 12.7663 46.8553 12.4348 48.4722 12.4348C50.089 12.4348 51.689 12.7663 53.1744 13.4091C54.6599 14.052 55.9997 14.9926 57.1122 16.1737C58.2246 17.3549 59.0865 18.7517 59.6452 20.2791C60.2039 21.8065 60.4477 23.4325 60.3617 25.0578Z" fill="#EBEBEB"/>
<path d="M36.5972 28.4139L40.218 28.5496V37.9584H36.5972V28.4139Z" fill="#C7C7C7"/>
<path d="M60.3612 29.3803V37.9585H56.7404V29.2277L60.3612 29.3803Z" fill="#C7C7C7"/>
<path d="M65.0077 33.1781H31.9494V60.7945H65.0077V33.1781Z" fill="#7875FC"/>
<path d="M49.8707 46.8085L51.2517 53.4032H45.3743L46.7721 46.8085C46.2292 46.4707 45.8107 45.9637 45.5803 45.3645C45.3499 44.7654 45.3201 44.1069 45.4954 43.4891C45.6707 42.8713 46.0416 42.3281 46.5517 41.9419C47.0618 41.5558 47.6832 41.3478 48.3214 41.3497C48.9596 41.3478 49.581 41.5558 50.0911 41.9419C50.6012 42.3281 50.9721 42.8713 51.1474 43.4891C51.3227 44.1069 51.2929 44.7654 51.0625 45.3645C50.8321 45.9637 50.4136 46.4707 49.8707 46.8085Z" fill="#152946"/>
</svg>
