<svg width="28" height="28" viewBox="0 0 28 28" fill="none" xmlns="http://www.w3.org/2000/svg">
<path d="M21.9131 20.0814C21.5367 20.0826 21.1699 20.2002 20.863 20.4181C20.5562 20.636 20.3243 20.9436 20.1992 21.2985H18.8697V18.2559H17.6523V21.907C17.6523 21.987 17.668 22.0661 17.6986 22.14C17.7292 22.2138 17.774 22.2809 17.8305 22.3374C17.887 22.3939 17.9542 22.4388 18.028 22.4693C18.1019 22.4999 18.1811 22.5156 18.261 22.5156H20.1992C20.3114 22.8302 20.5079 23.108 20.7673 23.3185C21.0267 23.5291 21.339 23.6643 21.67 23.7094C22.0011 23.7546 22.3382 23.7079 22.6445 23.5744C22.9508 23.441 23.2145 23.2259 23.4068 22.9528C23.5991 22.6796 23.7127 22.3589 23.735 22.0256C23.7573 21.6923 23.6876 21.3593 23.5334 21.0629C23.3793 20.7666 23.1466 20.5183 22.8608 20.3452C22.5751 20.1721 22.2472 20.0809 21.9131 20.0814Z" fill="#F8F9FA"/>
<path d="M14.6066 24.4533V18.2559H13.3892V24.4533C12.9831 24.5968 12.6408 24.8793 12.4229 25.2507C12.2049 25.6222 12.1253 26.0587 12.1982 26.4832C12.271 26.9076 12.4916 27.2927 12.8209 27.5702C13.1503 27.8478 13.5672 28 13.9979 28C14.4287 28 14.8456 27.8478 15.1749 27.5702C15.5042 27.2927 15.7248 26.9076 15.7977 26.4832C15.8705 26.0587 15.7909 25.6222 15.573 25.2507C15.355 24.8793 15.0127 24.5968 14.6066 24.4533Z" fill="#F8F9FA"/>
<path d="M21.3763 4.26383C20.5447 2.82044 19.3078 1.65267 17.8189 0.905209C16.3299 0.157743 14.6544 -0.136576 12.9997 0.0587138C11.3451 0.254004 9.78416 0.930321 8.51026 2.00388C7.23635 3.07743 6.30548 4.50105 5.83297 6.09836C5.71229 6.08963 5.59401 6.08527 5.47811 6.08527C4.02523 6.08527 2.63185 6.66229 1.6045 7.68937C0.577157 8.71646 0 10.1095 0 11.562C0 13.0145 0.577157 14.4076 1.6045 15.4347C2.63185 16.4618 4.02523 17.0388 5.47811 17.0388H21.9125C21.9694 17.0387 22.0261 17.0303 22.0807 17.0138C23.7501 16.8912 25.3047 16.1183 26.4099 14.8613C27.5151 13.6044 28.0826 11.964 27.9903 10.293C27.898 8.62206 27.1532 7.0541 25.9163 5.92653C24.6793 4.79895 23.0491 4.2019 21.3763 4.26383Z" fill="#F8F9FA"/>
<path d="M9.13109 21.298H7.80155C7.65796 20.892 7.37543 20.5498 7.00389 20.3319C6.63234 20.114 6.19571 20.0344 5.77116 20.1072C5.34661 20.1801 4.96147 20.4006 4.68383 20.7299C4.40619 21.0591 4.25391 21.4759 4.25391 21.9065C4.25391 22.3372 4.40619 22.754 4.68383 23.0832C4.96147 23.4125 5.34661 23.633 5.77116 23.7058C6.19571 23.7786 6.63234 23.6991 7.00389 23.4812C7.37543 23.2633 7.65796 22.9211 7.80155 22.5151H9.73977C9.81971 22.5151 9.89888 22.4994 9.97275 22.4688C10.0466 22.4383 10.1137 22.3935 10.1703 22.3369C10.2268 22.2804 10.2716 22.2133 10.3022 22.1395C10.3328 22.0656 10.3485 21.9865 10.3484 21.9065V18.2554H9.13109V21.298Z" fill="#F8F9FA"/>
</svg>
