<svg width="3" height="4" viewBox="0 0 3 4" fill="none" xmlns="http://www.w3.org/2000/svg">
<path d="M2.67272 3.57498C2.62006 3.57492 2.56828 3.56141 2.52231 3.53572C2.47634 3.51004 2.43772 3.47302 2.41007 3.4282C1.73614 2.38884 0.959737 1.41963 0.09251 0.535115C0.0631968 0.506031 0.0399241 0.471435 0.0240469 0.433316C0.00816981 0.395197 0 0.354304 0 0.313011C0 0.271718 0.00816981 0.230848 0.0240469 0.192729C0.0399241 0.15461 0.0631968 0.120014 0.09251 0.0909304C0.151751 0.0326639 0.231497 0 0.314591 0C0.397684 0 0.477454 0.0326639 0.536695 0.0909304C1.44137 1.01085 2.25023 2.0203 2.95082 3.10375C2.99572 3.17448 3.01079 3.26013 2.99269 3.34193C2.97459 3.42374 2.9248 3.49504 2.85425 3.54023C2.79799 3.56799 2.73527 3.57999 2.67272 3.57498Z" fill="white"/>
</svg>
