<svg width="14" height="13" viewBox="0 0 14 13" fill="none" xmlns="http://www.w3.org/2000/svg">
<path d="M10.8912 8.08685C10.714 8.25858 10.6325 8.50693 10.6729 8.75049L11.2811 12.1166C11.3325 12.4019 11.212 12.6906 10.9733 12.8555C10.7393 13.0265 10.428 13.0471 10.1728 12.9102L7.14261 11.3298C7.03725 11.2737 6.92026 11.2436 6.80053 11.2402H6.61512C6.55081 11.2498 6.48787 11.2703 6.4304 11.3017L3.39954 12.8897C3.24971 12.965 3.08003 12.9916 2.91378 12.965C2.50875 12.8883 2.23851 12.5025 2.30487 12.0954L2.91378 8.72928C2.95415 8.48367 2.87273 8.23394 2.69553 8.05948L0.225006 5.6649C0.0183875 5.46444 -0.05345 5.16341 0.040965 4.89179C0.132643 4.62086 0.366628 4.42314 0.649189 4.37867L4.0495 3.88538C4.30811 3.8587 4.53526 3.70134 4.65156 3.46872L6.14989 0.396817C6.18546 0.3284 6.2313 0.265457 6.28672 0.212092L6.3483 0.1642C6.38045 0.128623 6.4174 0.0992042 6.45845 0.0752583L6.53302 0.0478917L6.64933 0H6.93736C7.19461 0.0266825 7.42107 0.18062 7.53943 0.4105L9.0576 3.46872C9.16706 3.69245 9.37984 3.84775 9.62546 3.88538L13.0258 4.37867C13.3131 4.41972 13.5533 4.61812 13.6484 4.89179C13.738 5.16614 13.6607 5.46718 13.4499 5.6649L10.8912 8.08685Z" fill="#4285FA"/>
</svg>
