<svg width="3" height="4" viewBox="0 0 3 4" fill="none" xmlns="http://www.w3.org/2000/svg">
<path d="M2.69169 3.59425C2.6383 3.59448 2.58573 3.58109 2.53896 3.55533C2.49219 3.52957 2.45276 3.4923 2.42441 3.44704C1.74892 2.40442 0.970268 1.43241 0.100201 0.54566C0.069933 0.517428 0.0455323 0.483506 0.0283729 0.445839C0.0112136 0.408173 0.00162923 0.3675 0.000190404 0.326134C-0.00124842 0.284768 0.00547886 0.243519 0.0199797 0.204751C0.0344805 0.165983 0.0564816 0.130469 0.0847144 0.100201C0.112947 0.0699335 0.146869 0.0455092 0.184535 0.0283498C0.222202 0.0111904 0.262874 0.00162974 0.30424 0.000190924C0.345606 -0.00124789 0.386856 0.00545573 0.425624 0.0199565C0.464392 0.0344573 0.49993 0.0564585 0.530197 0.0846913C1.43888 1.0074 2.25017 2.02119 2.95125 3.11004C2.97345 3.14486 2.98855 3.18372 2.9957 3.2244C3.00285 3.26507 3.0019 3.30677 2.99291 3.34708C2.98391 3.38739 2.96702 3.42552 2.94326 3.45929C2.91949 3.49307 2.88931 3.52181 2.85441 3.54389C2.80642 3.57655 2.74974 3.59409 2.69169 3.59425Z" fill="white"/>
</svg>
