<svg width="118" height="120" viewBox="0 0 118 120" fill="none" xmlns="http://www.w3.org/2000/svg">
<g clip-path="url(#clip0_0_276)">
<path d="M117.9 4.32317V80.438C117.9 80.8465 117.854 81.2538 117.764 81.6522C117.727 81.8249 117.68 81.9976 117.628 82.1756C117.272 83.2632 116.593 84.2164 115.681 84.9076H115.649L114.906 85.3734H114.88L61.4377 119.22C61.3644 119.267 61.2964 119.314 61.2179 119.356H61.1865C60.5637 119.722 59.8569 119.92 59.1348 119.932H58.8051C58.083 119.92 57.3762 119.722 56.7535 119.356H56.722C56.6435 119.314 56.5755 119.267 56.5022 119.22L3.06011 85.3734L2.31696 84.9076H2.28552C1.59698 84.3857 1.0385 83.7116 0.653545 82.9381C0.268594 82.1645 0.0676027 81.3125 0.0664062 80.4484V4.32317C0.0674833 3.56212 0.269211 2.8148 0.651245 2.15657C1.03328 1.49835 1.58217 0.952494 2.24246 0.574047C2.90275 0.195599 3.6512 -0.00205164 4.41225 0.00101163C5.17331 0.00407491 5.92009 0.207754 6.57732 0.591504L6.9802 0.858416L55.0472 32.9258L55.1414 32.9938L55.5759 33.2817L55.6753 33.3497C56.7016 33.9465 57.87 34.2557 59.0572 34.2446C60.2444 34.2336 61.4066 33.9027 62.4217 33.2869C62.5996 33.1822 62.7723 33.0618 62.9451 32.9415L111.022 0.863655L111.425 0.596727C112.083 0.212977 112.829 0.00931379 113.591 0.00625052C114.352 0.00318725 115.1 0.200838 115.76 0.579286C116.421 0.957733 116.969 1.50359 117.351 2.16181C117.733 2.82004 117.935 3.56735 117.936 4.32841L117.9 4.32317Z" fill="#5F5CF0"/>
<path d="M117.9 28.9008V80.4378C117.9 80.8464 117.854 81.2537 117.764 81.652C117.727 81.8248 117.68 81.9975 117.628 82.1754C117.272 83.263 116.593 84.2162 115.681 84.9075H115.649L114.906 85.3732H114.88L61.4377 119.22C61.3644 119.267 61.2964 119.314 61.2179 119.356H61.1865C60.5637 119.722 59.8569 119.92 59.1348 119.932H58.8051C58.083 119.92 57.3762 119.722 56.7535 119.356H56.722C56.6435 119.314 56.5755 119.267 56.5022 119.22L3.06011 85.3732L2.31696 84.9075H2.28552C1.59698 84.3855 1.0385 83.7114 0.653545 82.9379C0.268594 82.1644 0.0676027 81.3123 0.0664062 80.4483V28.9008C0.0674833 28.1398 0.269211 27.3925 0.651245 26.7342C1.03328 26.076 1.58217 25.5301 2.24246 25.1517C2.90275 24.7733 3.6512 24.5756 4.41225 24.5786C5.17331 24.5817 5.92009 24.7854 6.57732 25.1691L6.9802 25.4361L55.0472 57.5034L55.1414 57.5714L55.5759 57.8593L55.6753 57.9274C56.7016 58.5242 57.87 58.8333 59.0572 58.8223C60.2444 58.8112 61.4066 58.4804 62.4217 57.8645C62.5996 57.7598 62.7723 57.6395 62.9451 57.5191L111.022 25.4413L111.425 25.1744C112.083 24.7906 112.829 24.587 113.591 24.5839C114.352 24.5808 115.1 24.7785 115.76 25.1569C116.421 25.5354 116.969 26.0812 117.351 26.7394C117.733 27.3977 117.935 28.145 117.936 28.9061L117.9 28.9008Z" fill="#7875FC"/>
<path d="M117.9 52.385V80.438C117.9 80.8466 117.854 81.2539 117.764 81.6522C117.727 81.825 117.68 81.9977 117.628 82.1756C117.272 83.2632 116.593 84.2164 115.681 84.9077H115.649L114.906 85.3734H114.88L61.4377 119.22C61.3644 119.267 61.2964 119.315 61.2179 119.356H61.1865C60.5637 119.722 59.8569 119.92 59.1348 119.932H58.8051C58.083 119.92 57.3762 119.722 56.7535 119.356H56.722C56.6435 119.315 56.5755 119.267 56.5022 119.22L3.06011 85.3734L2.31696 84.9077H2.28552C1.59698 84.3857 1.0385 83.7116 0.653545 82.9381C0.268594 82.1646 0.0676027 81.3125 0.0664062 80.4485V52.3955C0.0674833 51.6344 0.269211 50.8871 0.651245 50.2289C1.03328 49.5706 1.58217 49.0248 2.24246 48.6463C2.90275 48.2679 3.6512 48.0702 4.41225 48.0733C5.17331 48.0763 5.92009 48.28 6.57732 48.6638L6.9802 48.9307L55.0472 80.998L55.1414 81.0661L55.5759 81.3539L55.6753 81.422C56.7016 82.0188 57.87 82.3279 59.0572 82.3169C60.2444 82.3058 61.4066 81.975 62.4217 81.3591C62.5996 81.2545 62.7723 81.1341 62.9451 81.0137L111.022 48.9359L111.425 48.669C112.083 48.2853 112.829 48.0816 113.591 48.0785C114.352 48.0755 115.1 48.2731 115.76 48.6515C116.421 49.03 116.969 49.5758 117.351 50.2341C117.733 50.8923 117.935 51.6396 117.936 52.4007L117.9 52.385Z" fill="#9E9CFD"/>
</g>
<defs>
<clipPath id="clip0_0_276">
<rect width="117.901" height="120" fill="white"/>
</clipPath>
</defs>
</svg>
