<svg width="5" height="5" viewBox="0 0 5 5" fill="none" xmlns="http://www.w3.org/2000/svg">
<path d="M4.67121 4.67622H4.62556C4.54509 4.66307 4.47282 4.6193 4.4239 4.55407C4.37498 4.48884 4.35319 4.4072 4.3631 4.32626C4.40919 3.85222 4.34339 3.37398 4.17096 2.93001C3.99852 2.48604 3.72428 2.08875 3.3703 1.77009C2.98628 1.36559 2.51596 1.05291 1.99436 0.855331C1.47277 0.657756 0.913325 0.580375 0.357679 0.628945C0.317714 0.635464 0.276855 0.634037 0.23744 0.624754C0.198025 0.615471 0.160828 0.598519 0.127973 0.57485C0.0951183 0.55118 0.067234 0.521259 0.0459485 0.486812C0.024663 0.452364 0.0103969 0.414056 0.00392628 0.374083C-0.00255959 0.333842 -0.000998111 0.292721 0.00852319 0.253089C0.0180445 0.213457 0.0353331 0.176107 0.059391 0.143204C0.0834489 0.110302 0.113781 0.0825033 0.148659 0.061412C0.183538 0.0403206 0.222271 0.0263524 0.262584 0.02033C0.912678 -0.0427574 1.56863 0.0414309 2.18172 0.266648C2.79481 0.491865 3.34928 0.852327 3.80395 1.32124C4.22934 1.70626 4.55758 2.18647 4.76187 2.72263C4.96615 3.25879 5.04066 3.83567 4.97931 4.40614C4.9708 4.48144 4.93452 4.55085 4.87753 4.6008C4.82055 4.65075 4.74697 4.67765 4.67121 4.67622Z" fill="#292F44"/>
</svg>
