<svg width="48" height="35" viewBox="0 0 48 35" fill="none" xmlns="http://www.w3.org/2000/svg">
<path d="M3.52557 34.9998C2.48765 34.9998 1.48152 34.9575 0.521267 34.8692C0.370053 34.8556 0.230412 34.7825 0.133088 34.666C0.0357645 34.5495 -0.0112813 34.3991 0.00229508 34.2479C0.0158715 34.0966 0.0889641 33.957 0.205488 33.8597C0.322012 33.7624 0.472426 33.7153 0.623639 33.7289C7.52546 34.3432 17.0574 32.7722 21.6786 27.8685C23.7357 25.6787 25.3335 23.0991 26.3775 20.2818C24.571 20.0579 22.8259 19.4822 21.2408 18.5873C18.8861 17.2422 17.3151 15.297 16.9338 13.2529C16.7085 11.9769 16.908 10.6623 17.5017 9.51057C18.0954 8.35888 19.0505 7.43376 20.2206 6.87711C22.4447 5.88509 24.81 6.66529 26.5752 8.96355C28.6934 11.7419 28.9158 15.5088 27.8744 19.258C30.077 19.3228 32.2716 18.9632 34.3384 18.1989C42.9736 15.0604 46.8288 6.00512 46.8076 0.575448C46.8071 0.500046 46.8216 0.425298 46.8501 0.355502C46.8787 0.285706 46.9207 0.222242 46.9739 0.16876C47.027 0.115278 47.0902 0.0728327 47.1598 0.0438707C47.2294 0.0149088 47.3041 -1.43649e-06 47.3795 1.0381e-10C47.5312 0.000913928 47.6765 0.0613495 47.7842 0.168308C47.8918 0.275266 47.9531 0.420196 47.955 0.571914C47.9761 6.33343 43.888 15.9501 34.7303 19.2827C32.4274 20.1382 29.9752 20.5189 27.5213 20.4019C26.4463 23.4773 24.7413 26.2946 22.5153 28.6734C18.2824 33.1464 10.2579 34.9998 3.52557 34.9998ZM22.1482 7.60083C21.6449 7.60361 21.1479 7.71311 20.6901 7.92209C19.7526 8.37177 18.9881 9.11589 18.5132 10.0408C18.0383 10.9658 17.8791 12.0207 18.06 13.0446C18.3813 14.7533 19.7475 16.4126 21.8092 17.5917C23.3328 18.4478 25.0142 18.9859 26.7517 19.1733C27.7755 15.6853 27.6378 12.2009 25.6926 9.66255C24.6405 8.3069 23.405 7.60083 22.1482 7.60083Z" fill="#F89F93"/>
</svg>
