<svg width="33" height="34" viewBox="0 0 33 34" fill="none" xmlns="http://www.w3.org/2000/svg">
<path d="M8.9167 7.39963C10.823 7.21655 11.0096 5.17747 12.2122 2.86914C13.86 -0.286413 17.7371 -0.767464 19.0762 1.07417C20.4152 2.91581 20.3112 4.98721 22.063 4.98721C23.8149 4.98721 26.213 2.72196 28.8229 3.68406C31.8061 4.78258 30.503 7.76581 29.9896 9.30948C29.4762 10.8531 29.5768 13.4307 30.7076 13.6174C31.8384 13.8041 33.4862 15.3657 32.8615 17.2073C32.2369 19.049 29.566 21.325 29.7742 21.4255C29.9824 21.526 32.5528 21.1168 32.7574 22.2512C32.962 23.3856 29.1675 26.1642 29.1675 26.1642C29.1675 26.1642 31.3214 28.53 31.2245 30.386C31.1276 32.242 25.6637 31.822 25.6637 31.822C25.6637 31.822 13.002 32.3353 11.4584 33.161C9.91469 33.9867 6.00166 34.0872 4.45799 32.9528C2.91432 31.8184 3.02202 28.8351 3.42768 27.2914C3.83335 25.7478 -0.381226 25.2344 0.0280267 22.8651C0.437279 20.4957 2.36508 19.9931 2.05275 18.3346C1.74043 16.676 -0.348927 13.1543 1.09423 10.7957C2.53738 8.43713 4.66263 7.80888 8.9167 7.39963Z" fill="#292F44"/>
</svg>
