<?xml version="1.0" standalone="no"?>
<!DOCTYPE svg PUBLIC "-//W3C//DTD SVG 20010904//EN"
 "http://www.w3.org/TR/2001/REC-SVG-20010904/DTD/svg10.dtd">
<svg version="1.0" xmlns="http://www.w3.org/2000/svg"
 width="704.000000pt" height="58.000000pt" viewBox="0 0 704.000000 58.000000"
 preserveAspectRatio="xMidYMid meet">

<g transform="translate(0.000000,58.000000) scale(0.100000,-0.100000)"
fill="#000000" stroke="none">
<path d="M3598 543 l-48 -4 0 -255 0 -254 55 0 55 0 0 100 0 100 38 0 c52 0
70 -22 96 -117 l22 -78 61 -3 61 -3 -28 97 c-18 62 -38 106 -54 123 l-25 26
28 16 c38 22 65 82 57 128 -13 81 -72 120 -192 125 -44 2 -100 2 -126 -1z
m180 -99 c16 -11 22 -25 22 -54 0 -48 -27 -70 -92 -73 l-43 -2 -3 59 c-2 32
-1 65 2 72 7 19 86 18 114 -2z"/>
<path d="M6601 534 c-120 -32 -191 -126 -191 -252 0 -105 42 -182 123 -224 52
-27 194 -36 273 -19 l54 12 0 135 0 134 -95 0 -95 0 0 -45 0 -45 40 0 40 0 0
-55 0 -55 -52 0 c-104 0 -160 51 -166 153 -6 117 51 177 169 177 37 0 79 -4
92 -9 23 -9 26 -7 36 34 6 24 11 46 11 49 0 8 -100 26 -143 25 -23 0 -66 -7
-96 -15z"/>
<path d="M150 285 l0 -255 160 0 160 0 0 45 0 44 -102 3 -103 3 -3 63 -3 62
96 0 95 0 0 45 0 45 -95 0 -95 0 0 55 0 55 100 0 100 0 0 45 0 45 -155 0 -155
0 0 -255z"/>
<path d="M1380 285 l0 -255 160 0 160 0 0 50 0 50 -100 0 -100 0 0 205 0 205
-60 0 -60 0 0 -255z"/>
<path d="M2060 285 l0 -255 165 0 165 0 0 45 0 45 -105 0 -105 0 0 65 0 65 90
0 90 0 0 45 0 45 -90 0 -90 0 0 55 0 55 100 0 100 0 0 45 0 45 -160 0 -160 0
0 -255z"/>
<path d="M2875 528 c-25 -76 -145 -478 -145 -487 0 -8 18 -11 57 -9 l56 3 17
60 17 60 75 3 76 3 19 -63 19 -63 62 -3 c34 -2 62 -2 62 0 0 2 -36 116 -78
253 l-78 250 -77 3 c-56 2 -78 -1 -82 -10z m129 -255 c7 -22 5 -23 -48 -23
-31 0 -56 2 -56 5 0 8 40 168 47 185 3 8 15 -21 27 -65 12 -44 26 -90 30 -102z"/>
<path d="M4290 285 l0 -255 57 0 56 0 -6 193 c-5 176 -4 189 9 157 9 -19 54
-106 102 -192 l87 -158 57 0 58 0 0 255 0 255 -51 0 -51 0 4 -175 3 -175 -33
68 c-19 37 -61 115 -94 175 l-60 107 -69 0 -69 0 0 -255z"/>
<path d="M5110 285 l0 -255 60 0 60 0 0 255 0 255 -60 0 -60 0 0 -255z"/>
<path d="M5610 285 l0 -255 57 0 56 0 -6 193 c-5 176 -4 189 9 157 9 -19 54
-106 102 -192 l87 -158 57 0 58 0 0 255 0 255 -51 0 -51 0 4 -175 3 -175 -33
68 c-19 37 -61 115 -94 175 l-60 107 -69 0 -69 0 0 -255z"/>
<path d="M820 235 l0 -45 95 0 95 0 0 45 0 45 -95 0 -95 0 0 -45z"/>
</g>
</svg>
