<svg width="151" height="91" viewBox="0 0 151 91" fill="none" xmlns="http://www.w3.org/2000/svg">
<path d="M99.1881 7.18455C105.319 8.73493 126.538 16.9519 139.879 39.9927C153.219 63.0335 152.003 75.1581 149.174 81.0178C146.344 86.8776 137.454 89.9114 131.795 90.5315L111.989 79.6084L74.1953 79.4076L60.0481 44.9821C60.0481 44.9821 51.1546 41.7474 50.8868 40.6692C50.6542 39.746 52.7719 33.7982 52.7719 33.7982C52.7719 33.7982 21.7643 34.6826 19.2978 34.3373C15.9293 33.8652 2.65589 33.5304 0.622779 24.4325C-1.41033 15.3346 1.63406 7.66024 8.30069 4.02038C14.9673 0.380508 24.2696 -0.422875 37.4055 0.183182C50.5415 0.78924 67.7894 3.21347 67.7894 3.21347L99.1881 7.18455Z" fill="#6BB6FB"/>
</svg>
