<svg width="13" height="13" viewBox="0 0 13 13" fill="none" xmlns="http://www.w3.org/2000/svg">
<path d="M0.589455 13.0001C0.474359 13.0008 0.361607 12.9676 0.265277 12.9046C0.168947 12.8416 0.0933078 12.7516 0.0477824 12.6459C0.00225704 12.5402 -0.0111215 12.4234 0.00929967 12.3102C0.0297209 12.1969 0.0830367 12.0921 0.162612 12.009L11.3763 0.183928C11.4833 0.0707219 11.6309 0.00464515 11.7866 0.000235671C11.9422 -0.00417381 12.0933 0.0534444 12.2065 0.160415C12.3197 0.267385 12.3858 0.414944 12.3902 0.570632C12.3946 0.726321 12.337 0.87738 12.23 0.990587L1.0163 12.8193C0.960934 12.8765 0.894613 12.922 0.821279 12.9531C0.747944 12.9842 0.669101 13.0002 0.589455 13.0001Z" fill="#C3C2FE"/>
</svg>
