<svg width="3" height="9" viewBox="0 0 3 9" fill="none" xmlns="http://www.w3.org/2000/svg">
<path d="M2.08133 8.99972H2.03423C1.951 8.98712 1.87617 8.94203 1.82613 8.87433C1.77609 8.80664 1.75496 8.72185 1.76734 8.63859C2.14024 6.14209 1.76731 2.53474 0.0755076 0.524985C0.048445 0.493026 0.0279531 0.456051 0.015181 0.416167C0.00240881 0.376284 -0.00236916 0.334266 0.00109357 0.292531C0.00455631 0.250796 0.0161833 0.210153 0.0353538 0.17292C0.0545242 0.135687 0.0808269 0.102593 0.112787 0.0755302C0.144746 0.0484676 0.181721 0.0279638 0.221605 0.0151916C0.261488 0.00241942 0.303494 -0.00237053 0.345229 0.0010922C0.386964 0.00455494 0.427643 0.0162059 0.464876 0.0353763C0.502109 0.0545468 0.535179 0.0808614 0.562242 0.112821C2.39536 2.28744 2.80361 6.00078 2.39931 8.74849C2.38312 8.82046 2.34271 8.88469 2.28483 8.93042C2.22695 8.97615 2.15509 9.00062 2.08133 8.99972Z" fill="#292F44"/>
</svg>
