<svg width="27" height="23" viewBox="0 0 27 23" fill="none" xmlns="http://www.w3.org/2000/svg">
<path d="M26.3906 8.7459C26.2001 8.32417 25.988 7.91249 25.7552 7.51251L22.7563 15.6587C22.6419 15.9631 22.4756 16.2453 22.2647 16.4927C23.0697 16.4131 23.8454 16.1485 24.5313 15.7198C25.2172 15.291 25.7949 14.7096 26.2192 14.0209C26.6435 13.3322 26.903 12.5548 26.9774 11.7494C27.0519 10.9439 26.9393 10.1321 26.6485 9.37727C26.5686 9.16231 26.4829 8.95322 26.3906 8.7459Z" fill="#F8F9FA"/>
<path d="M9.17676 1.40442C7.42689 2.0273 5.8207 2.99685 4.45433 4.25504C3.08796 5.51322 1.9895 7.03417 1.22471 8.72683C0.459917 10.4195 0.0445217 12.2491 0.00338654 14.106C-0.0377486 15.963 0.296223 17.8092 0.985308 19.534C1.00352 19.571 1.01585 19.6074 1.03406 19.6444C1.40014 20.5187 1.99617 21.2775 2.75884 21.8402C3.5215 22.4029 4.42233 22.7486 5.36567 22.8405C6.30901 22.9324 7.25963 22.7672 8.11658 22.3622C8.97352 21.9573 9.70481 21.3278 10.2328 20.5407C11.337 18.8773 12.9222 17.5902 14.7769 16.8511C14.8357 16.8276 14.8944 16.81 14.9531 16.7883C15.1619 16.3065 15.4727 15.8758 15.8639 15.5257C16.2552 15.1756 16.7177 14.9144 17.2196 14.7602C17.2074 14.3179 17.2981 13.8788 17.4845 13.4775L22.1244 3.43011C20.3018 2.04852 18.1652 1.14033 15.9057 0.786818C13.6461 0.433308 11.3342 0.645503 9.17676 1.40442ZM5.57644 16.7337C5.11179 16.7337 4.65758 16.5959 4.27124 16.3377C3.8849 16.0796 3.58378 15.7127 3.40597 15.2834C3.22815 14.8541 3.18163 14.3817 3.27228 13.926C3.36293 13.4703 3.58667 13.0517 3.91523 12.7231C4.24379 12.3946 4.66239 12.1708 5.11812 12.0802C5.57384 11.9895 6.0462 12.0361 6.47548 12.2139C6.90476 12.3917 7.27168 12.6928 7.52982 13.0791C7.78797 13.4655 7.92575 13.9197 7.92575 14.3843C7.92575 15.0074 7.67824 15.605 7.23765 16.0456C6.79707 16.4861 6.19952 16.7337 5.57644 16.7337ZM8.51308 9.97939C8.04843 9.97939 7.59421 9.84161 7.20787 9.58346C6.82153 9.32531 6.52041 8.9584 6.3426 8.52912C6.16479 8.09984 6.11826 7.62748 6.20891 7.17175C6.29956 6.71603 6.52331 6.29743 6.85187 5.96887C7.18042 5.64031 7.59903 5.41656 8.05475 5.32591C8.51047 5.23527 8.98284 5.28179 9.41212 5.4596C9.8414 5.63742 10.2083 5.93853 10.4665 6.32488C10.7246 6.71122 10.8624 7.16543 10.8624 7.63008C10.8624 8.25316 10.6149 8.85071 10.1743 9.29129C9.73371 9.73187 9.13615 9.97939 8.51308 9.97939ZM15.561 7.92375C15.0964 7.92375 14.6421 7.78596 14.2558 7.52782C13.8695 7.26967 13.5683 6.90276 13.3905 6.47348C13.2127 6.0442 13.1662 5.57183 13.2568 5.11611C13.3475 4.66039 13.5712 4.24178 13.8998 3.91323C14.2283 3.58467 14.647 3.36092 15.1027 3.27027C15.5584 3.17962 16.0308 3.22615 16.46 3.40396C16.8893 3.58177 17.2562 3.88289 17.5144 4.26923C17.7725 4.65557 17.9103 5.10979 17.9103 5.57444C17.9103 6.19751 17.6628 6.79507 17.2222 7.23565C16.7816 7.67623 16.1841 7.92375 15.561 7.92375Z" fill="#F8F9FA"/>
<path d="M26.1185 0.0834688C25.8579 -0.0247678 25.5655 -0.0278498 25.3027 0.0748693C25.0399 0.177588 24.8271 0.378122 24.7089 0.634382L18.5514 13.9696C18.4096 14.2764 18.3637 14.6188 18.4198 14.9521C18.4759 15.2853 18.6313 15.5939 18.8656 15.8373C18.2932 15.7031 17.6917 15.7765 17.1684 16.0444C16.6451 16.3124 16.2339 16.7575 16.0083 17.3004C15.0574 19.5968 16.5615 20.6041 15.6101 22.9005C16.6947 22.7794 17.728 22.3732 18.6049 21.7233C19.4817 21.0734 20.1709 20.2029 20.6023 19.2004C20.8055 18.7067 20.8437 18.1606 20.7114 17.6434C20.5792 17.1263 20.2834 16.6656 19.8682 16.3301C20.2437 16.3785 20.6245 16.2982 20.9485 16.1022C21.2725 15.9063 21.5204 15.6063 21.6519 15.2512L26.7264 1.46604C26.8227 1.20166 26.8133 0.910286 26.7001 0.652694C26.5868 0.395102 26.3785 0.191182 26.1185 0.0834688Z" fill="#F8F9FA"/>
</svg>
