<svg width="14" height="13" viewBox="0 0 14 13" fill="none" xmlns="http://www.w3.org/2000/svg">
<path d="M7.5102 0.419847L9.0336 3.48123C9.14583 3.70303 9.36004 3.85706 9.6071 3.89129L13.0289 4.38965C13.2288 4.41772 13.4101 4.52314 13.5326 4.68402C13.6538 4.84284 13.7058 5.0441 13.6763 5.24194C13.6524 5.40624 13.5751 5.55821 13.4567 5.67459L10.9772 8.0781C10.7958 8.24582 10.7137 8.49432 10.7575 8.73734L11.368 12.1164C11.433 12.5244 11.1627 12.9091 10.7575 12.9865C10.5905 13.0131 10.4194 12.9851 10.2689 12.9084L7.2166 11.3182C6.99008 11.2038 6.72249 11.2038 6.49597 11.3182L3.44369 12.9084C3.06866 13.1076 2.60398 12.9721 2.39524 12.6024C2.31791 12.4552 2.29054 12.2875 2.31586 12.1239L2.92631 8.74419C2.97011 8.50185 2.8873 8.25198 2.70663 8.08426L0.227172 5.68212C-0.0677896 5.39734 -0.0766863 4.92841 0.207326 4.63336C0.213485 4.6272 0.220329 4.62035 0.227172 4.61351C0.344883 4.49371 0.49955 4.41772 0.666535 4.39787L4.08837 3.89882C4.33474 3.8639 4.54895 3.71125 4.66187 3.48808L6.13052 0.419847C6.26123 0.156973 6.53224 -0.0066389 6.82652 0.000206775H6.91822C7.17349 0.0310123 7.39591 0.189147 7.5102 0.419847Z" fill="#107AF6"/>
</svg>
