<svg width="8" height="10" viewBox="0 0 8 10" fill="none" xmlns="http://www.w3.org/2000/svg">
<path d="M6.24761 2.586C6.27686 2.27328 6.24355 1.95787 6.14961 1.65816C6.05567 1.35844 5.90303 1.08044 5.70051 0.840355C5.49799 0.600274 5.24968 0.402917 4.97009 0.259811C4.6905 0.116705 4.3852 0.0307133 4.07202 0.00684283C3.75884 -0.0170277 3.44404 0.021697 3.14599 0.120775C2.84794 0.219853 2.57261 0.377305 2.33605 0.58392C2.09948 0.790535 1.90642 1.04218 1.76814 1.32419C1.62987 1.60621 1.54911 1.91293 1.53062 2.22648C1.43355 3.56392 0.124898 4.62093 0.0278258 5.95837C-0.0327111 6.44211 0.00576753 6.93313 0.140924 7.40154C0.27608 7.86995 0.505089 8.30597 0.814027 8.6831C1.12297 9.06024 1.50539 9.3706 1.93803 9.59533C2.37067 9.82005 2.84447 9.95444 3.33067 9.99032C3.81687 10.0262 4.30529 9.96282 4.76623 9.80404C5.22717 9.64525 5.65098 9.39438 6.01194 9.06668C6.37289 8.73898 6.66341 8.3413 6.86586 7.8978C7.06831 7.45431 7.17844 6.97428 7.18957 6.48688C7.29024 5.16023 6.14695 3.92344 6.24761 2.586ZM3.46848 8.12273C3.08842 8.09421 2.7253 7.95384 2.42488 7.71931C2.12445 7.48478 1.90015 7.16659 1.78026 6.8048C1.66036 6.44302 1.65025 6.05384 1.75116 5.68631C1.85207 5.31878 2.05951 4.98934 2.34733 4.7395C2.63514 4.48966 2.99048 4.33059 3.36855 4.28235C3.74661 4.2341 4.1305 4.29883 4.47183 4.46838C4.81317 4.63794 5.09668 4.90474 5.28665 5.23514C5.47663 5.56555 5.56455 5.94479 5.53935 6.32509C5.5225 6.57949 5.45542 6.82803 5.34199 7.05637C5.22857 7.28471 5.07108 7.48832 4.87854 7.65545C4.686 7.82259 4.46224 7.94992 4.22023 8.03012C3.97821 8.11032 3.72272 8.1418 3.46848 8.12273Z" fill="white"/>
</svg>
