<svg width="322" height="320" viewBox="0 0 322 320" fill="none" xmlns="http://www.w3.org/2000/svg">
<path d="M290.015 244.412C278.62 259.464 267.658 275.456 267.658 275.456" stroke="#75ACBA" stroke-width="0.920005" stroke-linecap="round" stroke-linejoin="round"/>
<path d="M236.181 252.159C231.218 239.456 227.95 220.229 227.247 214.188" stroke="#75ACBA" stroke-width="0.920005" stroke-linecap="round" stroke-linejoin="round"/>
<path d="M160.81 78.9451C160.81 78.9451 166.643 73.9279 171.887 76.6976C177.132 79.4673 175.94 81.7132 178.867 84.0029C180.935 85.6223 182.707 84.2242 187.362 89.0949C192.016 93.9656 188.453 96.8881 191.38 101.227C194.307 105.567 199.615 105.504 202.49 113.452C205.364 121.399 199.743 126.7 205.484 131.234C211.224 135.768 211.896 133.154 216.157 138.871C220.419 144.588 217.279 150.546 217.279 150.546L86.7752 145.106C86.7752 145.106 82.0089 139.314 86.1845 134.163C90.3601 129.011 94.6354 131.368 98.1719 127.796C101.708 124.223 97.7043 118.55 99.8864 111.274C102.068 103.999 106.9 101.277 111.4 100.57C115.9 99.862 120.908 99.2354 123.674 90.7611C126.441 82.2868 130.983 81.3267 134.611 81.2535C138.24 81.1802 142.052 80.7547 144.502 77.5252C146.952 74.2957 151.474 73.4634 155.068 74.4204C158.662 75.3774 160.81 78.9451 160.81 78.9451Z" fill="#292F44"/>
<path d="M169.78 130.743C189.518 134.97 203.379 139.2 218.538 146.253C233.698 153.306 251.022 163.381 251.022 163.381C251.022 163.381 250.986 177.26 244.667 189.628C238.545 201.609 225.858 211.934 225.858 211.934L198.136 203.472C198.136 203.472 201.995 213.964 193.736 225.734L187.034 236.878L86.6705 220.98L54.5393 198.158C54.5393 198.158 49.2399 191.216 43.8611 184.841C38.4823 178.467 34.5701 173.775 34.5701 173.775C34.5701 173.775 41.4094 167.302 59.1139 156.449C76.8184 145.597 111.037 130.995 137.357 128.321C163.678 125.646 169.78 130.743 169.78 130.743Z" fill="#7875FC"/>
<path d="M192.393 226.877L187.54 257.499L72.8524 239.324C71.1176 229.037 73.147 218.843 77.706 208.703L192.393 226.877Z" fill="#C3C2FE"/>
<path d="M197.463 231.556L193.808 254.614L247.677 263.151L247.077 266.933L187.537 257.499C183.234 250.421 187.174 231.669 192.391 226.877L251.931 236.311L251.332 240.092L197.463 231.556Z" fill="#9E9CFD"/>
<path d="M251.331 240.093C245.324 247.019 244.106 254.705 247.677 263.151L192.103 254.345C189.042 249.211 190.164 236.018 195.758 231.277L251.331 240.093Z" fill="#FCF6F2"/>
<path d="M103.945 221.388C101.167 227.33 100.346 232.863 101.309 238.02" stroke="#100C27" stroke-width="1.61063" stroke-linecap="round" stroke-linejoin="round"/>
<path d="M111.315 222.555C108.537 228.498 107.716 234.029 108.679 239.187" stroke="#100C27" stroke-width="1.61063" stroke-linecap="round" stroke-linejoin="round"/>
<path d="M118.685 223.727C115.908 229.67 115.085 235.203 116.05 240.36" stroke="#100C27" stroke-width="1.61063" stroke-linecap="round" stroke-linejoin="round"/>
<path d="M246.169 249.745L190.956 240.995C190.819 241.701 190.713 242.413 190.632 243.126L245.808 251.868C245.888 251.154 246.008 250.445 246.169 249.745Z" fill="#94C7D4"/>
<path d="M192.04 237.076L247.527 245.868C247.848 245.179 248.205 244.508 248.596 243.856L192.936 235.036C192.597 235.698 192.298 236.379 192.04 237.076Z" fill="#94C7D4"/>
<path d="M246.112 258.189C245.962 257.45 245.849 256.704 245.776 255.954L190.444 247.186C190.466 247.945 190.521 248.686 190.61 249.395L246.112 258.189Z" fill="#94C7D4"/>
<path d="M187.067 257.421L182.21 288.042L235.23 296.444C240.062 287.202 241.281 276.876 240.082 265.822L187.067 257.421Z" fill="#4F5A80"/>
<path d="M180.798 260.301L177.145 283.361L40.0089 261.629L39.4104 265.412L182.211 288.042C188.492 282.643 190.541 263.592 187.063 257.421L44.2624 234.793L43.6639 238.572L180.798 260.301Z" fill="#22283E"/>
<path d="M47.3567 239.158C50.9281 247.604 49.7103 255.294 43.7033 262.225L178.849 283.641C183.347 279.705 186.359 266.808 182.503 260.583L47.3567 239.158Z" fill="#FCF6F2"/>
<path d="M49.2783 249.931L184.064 271.285C183.975 271.998 183.857 272.708 183.715 273.411L48.9697 252.057C49.1129 251.355 49.216 250.645 49.2783 249.931Z" fill="#E8DACF"/>
<path d="M184.25 267.231L49.1975 245.829C49.1039 245.075 48.9717 244.326 48.8016 243.585L184.035 265.015C184.149 265.748 184.221 266.489 184.25 267.231Z" fill="#E8DACF"/>
<path d="M46.7216 257.981C47.0936 257.323 47.4313 256.647 47.7332 255.954L182.631 277.343C182.376 278.059 182.095 278.746 181.791 279.393L46.7216 257.981Z" fill="#E8DACF"/>
<path d="M202.428 269.931L232.291 274.665" stroke="#F89F93" stroke-width="1.61063" stroke-linecap="round" stroke-linejoin="round"/>
<path d="M201.231 277.491L231.095 282.223" stroke="#F89F93" stroke-width="1.61063" stroke-linecap="round" stroke-linejoin="round"/>
<path d="M134.216 280.531L50.3613 267.242C46.6892 275.411 45.062 283.626 46.4523 291.909L130.307 305.198C126.839 299.496 130.014 284.391 134.216 280.531Z" stroke="#F89F93" stroke-width="0.920005" stroke-linecap="round" stroke-linejoin="round"/>
<path d="M133.986 302.656C131.519 298.521 132.428 287.895 136.929 284.081L138.304 284.299L221.488 297.48L221.971 294.436L134.22 280.53C130.012 284.391 126.843 299.496 130.311 305.197L218.062 319.102L218.545 316.055L135.366 302.875L133.986 302.656Z" stroke="#F89F93" stroke-width="0.920005" stroke-linecap="round" stroke-linejoin="round"/>
<path d="M138.303 284.299L136.928 284.081C132.422 287.895 131.518 298.522 133.986 302.657L135.359 302.875L218.538 316.055C215.661 309.253 216.642 303.062 221.481 297.481L138.303 284.299Z" stroke="#F89F93" stroke-width="0.920005" stroke-linecap="round" stroke-linejoin="round"/>
<path d="M113.638 293.451L65.2522 285.782C64.6381 283.554 65.1478 281.138 66.39 278.6L114.776 286.269C113.593 288.755 113.242 291.146 113.638 293.451Z" fill="#A0DBD1"/>
<path d="M140.06 104.722C140.06 104.722 140.593 109.908 141.619 112.847C141.619 112.847 141.19 119.626 140.565 122.755C139.94 125.885 139.371 127.023 137.358 128.318C137.358 128.318 139.428 140.53 152.944 141.638C166.46 142.747 169.777 130.743 169.777 130.743C169.777 130.743 165.998 129.369 166.019 127.559C166.041 125.75 166.78 121.543 166.78 121.543C166.78 121.543 169.257 118.918 171.788 114.393C174.319 109.869 175.32 102.294 175.32 102.294C175.32 102.294 172.414 101.059 168.306 98.4705C164.197 95.8816 163.215 91.4566 163.215 91.4566C162.538 92.2854 161.703 92.9718 160.758 93.4764C159.814 93.9809 158.779 94.2935 157.713 94.3962C154.37 94.7079 150.965 93.7727 150.965 93.7727C150.965 93.7727 151.004 95.9735 147.3 99.7797C143.597 103.586 140.06 104.722 140.06 104.722Z" fill="#FCDADC"/>
<path d="M152.784 109.499C152.357 109.432 152.19 109.08 152.29 108.453C152.389 107.827 152.656 107.545 153.083 107.612C153.51 107.679 153.677 108.032 153.579 108.657C153.481 109.282 153.217 109.568 152.784 109.499Z" fill="#303336"/>
<path d="M167.29 110.894C166.863 110.826 166.696 110.473 166.794 109.848C166.892 109.223 167.162 108.938 167.589 109.007C168.016 109.075 168.183 109.426 168.085 110.053C167.987 110.679 167.714 110.961 167.29 110.894Z" fill="#303336"/>
<path d="M140.177 95.8268C140.177 95.8268 141.558 94.0437 142.9 95.3592C144.242 96.6747 148.596 102.203 148.596 102.203C148.596 102.203 147.046 107.512 148.762 109.722C150.091 111.436 155.418 112.133 156.765 111.377C158.112 110.621 158.936 107.459 159.22 106.078C159.504 104.697 159.451 104.179 159.451 104.179C157.758 103.296 155.938 102.681 154.056 102.356C150.853 101.784 148.592 102.2 148.592 102.2" stroke="#FF7B5F" stroke-width="0.920005" stroke-linecap="round" stroke-linejoin="round"/>
<path d="M162.538 104.343C162.538 104.343 161.536 110.255 163.697 111.696C165.245 112.727 168.512 113.098 170.097 112.063C171.682 111.028 172.618 105.941 172.851 104.88C172.851 104.88 171.378 104.387 168.063 104.121C164.748 103.854 162.538 104.343 162.538 104.343Z" stroke="#FF7B5F" stroke-width="0.920005" stroke-linecap="round" stroke-linejoin="round"/>
<path d="M159.452 104.179C160.995 104.231 162.527 104.345 162.527 104.345" stroke="#FF7B5F" stroke-width="0.920005" stroke-linecap="round" stroke-linejoin="round"/>
<path d="M172.847 104.879C173.603 103.771 176.276 97.5414 177.25 99.5053" stroke="#FF7B5F" stroke-width="0.920005" stroke-linecap="round" stroke-linejoin="round"/>
<path d="M141.89 97.2611C141.89 97.2611 139.552 91.6593 136.794 93.1587C134.035 94.6581 133.251 98.7979 134.531 101.326C135.81 103.854 139.337 104.414 139.337 104.414C139.562 103.149 139.889 101.905 140.315 100.693C140.728 99.5011 141.256 98.3517 141.89 97.2611Z" fill="#FCDADC"/>
<path d="M176.033 100.669C176.033 100.669 177.252 97.0515 179.991 98.5182C182.729 99.9848 179.969 105.311 178.516 107.003C176.615 109.221 174.512 109.857 174.512 109.857C175.184 108.138 175.683 106.357 176.001 104.539C176.431 101.83 176.033 100.669 176.033 100.669Z" fill="#FCDADC"/>
<path d="M146.783 115.276C145.799 115.411 145.198 114.747 145 113.307C144.802 111.867 145.201 111.064 146.184 110.929C147.168 110.793 147.769 111.457 147.967 112.897C148.165 114.338 147.763 115.14 146.783 115.276Z" fill="#FE9074"/>
<path d="M165.987 118.017C165.122 117.533 165.042 116.64 165.755 115.368C166.467 114.096 167.27 113.703 168.135 114.188C169 114.673 169.079 115.567 168.367 116.838C167.654 118.108 166.853 118.504 165.987 118.017Z" fill="#FE9074"/>
<path d="M100.321 152.545L104.572 138.753C104.572 138.753 118.016 138.688 130.171 142.681C142.327 146.674 151.707 155.134 151.707 155.134C151.707 155.134 160.035 147.413 174.097 145.895C188.159 144.377 195.762 146.099 198.603 146.936L202.721 160.893L150.258 165.11L100.321 152.545Z" fill="white"/>
<path d="M98.1987 151.43C98.1629 150.923 98.3175 150.421 98.6324 150.023C98.9472 149.624 99.3996 149.358 99.9007 149.276C104.408 148.526 116.516 146.925 127.87 149.033C142.175 151.682 148.912 156.5 148.912 156.5L155.039 156.954C155.039 156.954 168.029 152.424 182.095 154.137C192.382 155.384 200.047 157.878 203.43 159.134C203.964 159.333 204.411 159.716 204.688 160.215C204.965 160.713 205.055 161.295 204.942 161.854L204.733 162.892L191.093 218.346C191.027 218.614 190.908 218.865 190.741 219.084C190.574 219.303 190.365 219.486 190.125 219.621C189.885 219.756 189.619 219.84 189.345 219.868C189.072 219.896 188.795 219.868 188.532 219.785C185.446 218.809 179.233 216.964 172.478 215.648C161.828 213.572 152.894 213.706 152.894 213.706L145.425 213.551C145.425 213.551 132.599 210.715 122.432 210.295C116.411 210.057 110.382 210.147 104.371 210.564C104.104 210.584 103.836 210.551 103.582 210.466C103.329 210.382 103.094 210.248 102.892 210.073C102.69 209.897 102.525 209.684 102.406 209.444C102.288 209.204 102.217 208.944 102.2 208.677L98.1987 151.43Z" fill="#8DE2EF"/>
<path d="M152.27 213.704C149.915 214.559 147.66 214.648 145.551 213.499L148.965 156.553C150.972 156.198 153.035 156.351 154.968 156.997L152.27 213.704Z" fill="#689EFB" stroke="#4285FA" stroke-width="0.124662"/>
<path d="M168.231 171.265L167.885 168.989C174.157 168.035 182.036 168.341 186.621 169.717L185.961 171.922C181.73 170.654 174.11 170.37 168.231 171.265Z" fill="white"/>
<path d="M103.632 141.444C111.623 141.549 136.541 144.075 149.3 154.881" stroke="#4285FA" stroke-width="0.460003" stroke-linecap="round" stroke-linejoin="round"/>
<path d="M199.381 150.159C192.405 148.537 179.791 147.443 171.937 148.913C164.083 150.382 157.535 152.574 153.196 155.502" stroke="#4285FA" stroke-width="0.460003" stroke-linecap="round" stroke-linejoin="round"/>
<path d="M102.51 145.271C107.459 145.021 124.259 144.971 133.39 148.485" stroke="#4285FA" stroke-width="0.460003" stroke-linecap="round" stroke-linejoin="round"/>
<path d="M200.676 154.24C194.264 152.319 183.865 150.284 176.257 151.016C168.649 151.749 162.056 153.417 159.714 154.336" stroke="#4285FA" stroke-width="0.460003" stroke-linecap="round" stroke-linejoin="round"/>
<path d="M167.647 183.358C172.402 182.691 178.364 183.378 180.32 184.075" stroke="#292F44" stroke-width="0.460003" stroke-linecap="round" stroke-linejoin="round"/>
<path d="M112.034 159.312C112.034 159.312 118.382 158.377 126.529 159.156C134.676 159.935 138.738 161.996 138.738 161.996L138.455 171.121C138.455 171.121 131.837 169.686 125.311 169.296C118.785 168.907 112.118 169.402 112.118 169.402L112.034 159.312Z" stroke="#292F44" stroke-width="0.460003" stroke-linecap="round" stroke-linejoin="round"/>
<path d="M121.226 180.396C125.278 180.133 134.319 180.92 137.436 181.671" stroke="#292F44" stroke-width="0.460003" stroke-linecap="round" stroke-linejoin="round"/>
<path d="M121.011 190.701C125.31 190.478 131.709 190.846 136.186 191.948" stroke="#292F44" stroke-width="0.460003" stroke-linecap="round" stroke-linejoin="round"/>
<path d="M99.3196 150.708C102.251 150.139 115.218 148.965 124.716 150.212C134.214 151.459 146.849 155.656 148.794 158.032L155.047 158.499C155.047 158.499 166.788 155.323 176.459 155.433C186.131 155.544 200.97 159.705 204.636 161.836" stroke="#7875FC" stroke-width="0.460003" stroke-linecap="round" stroke-linejoin="round"/>
<path d="M250.22 163.964C250.22 163.964 281.598 181.144 292.179 190.184C302.761 199.224 313.367 211.754 308.654 224.377C303.941 237 291.821 247.478 272.631 240.175C253.441 232.873 229.195 222.053 229.195 222.053C229.195 222.053 219.577 219.173 213.921 216.922C208.264 214.671 202.592 212.608 202.592 212.608C202.592 212.608 195.543 211.038 191.723 210.691C187.902 210.343 179.592 209.802 179.866 204.808C180.14 199.815 182.709 198.284 184.932 198.119C184.932 198.119 177.918 197.525 178.15 192.007C178.382 186.49 184.384 185.244 184.384 185.244C184.384 185.244 180.061 184.817 180.044 180.036C180.027 175.254 184.67 173.665 188.649 173.005C192.628 172.344 202.465 172.225 202.465 172.225L204.718 162.895C204.718 162.895 215.931 164.9 226.383 168.008C236.622 171.05 240.849 177.791 240.849 177.791C241.964 175.307 243.293 172.925 244.82 170.671C246.448 168.302 248.253 166.06 250.22 163.964Z" fill="#FCDADC"/>
<path d="M35.9905 173.74C35.9905 173.74 11.8192 190.965 10.4788 204.316C9.13838 217.667 14.5312 233.375 35.4387 235.914C56.3462 238.453 87.3895 214.561 91.1442 212.067C94.899 209.573 103.035 203.876 105.251 202.935C107.468 201.994 116.382 199.532 119.348 197.936C122.314 196.34 122.474 194.299 122.367 192.537C122.259 190.776 120.902 188.329 118.698 188.173C118.698 188.173 124.07 187.28 124.755 184.192C125.439 181.105 123.146 177.833 120.043 177.246C120.043 177.246 122.739 176.122 122.412 172.68C122.085 169.239 119.242 167.624 114.463 167.253C109.684 166.882 99.5 168.176 99.5 168.176L98.448 156.486C98.448 156.486 84.1693 159.739 78.87 163.745C73.5706 167.75 71.5444 170.819 64.981 173.751C58.4176 176.683 45.9096 182.838 45.9096 182.838C45.9096 182.838 44.4289 180.569 41.0077 177.694C37.5865 174.82 35.9905 173.74 35.9905 173.74Z" fill="#FCDADC"/>
<path d="M45.9214 182.837C35.3477 188.428 26.2624 193.188 19.7208 201.452" stroke="#2D3A4A" stroke-width="0.460003" stroke-linecap="round" stroke-linejoin="round"/>
<path d="M99.4906 168.173C93.3667 169.528 88.8794 170.948 85.307 172.706" stroke="#2D3A4A" stroke-width="0.460003" stroke-linecap="round" stroke-linejoin="round"/>
<path d="M202.475 172.222C211.655 172.579 221.192 177.191 221.192 177.191" stroke="#2D3A4A" stroke-width="0.460003" stroke-linecap="round" stroke-linejoin="round"/>
<path d="M240.861 177.787C241.723 178.832 242.519 179.93 243.247 181.073C243.247 181.073 264.912 187.412 280.249 193.33C295.586 199.248 306.336 209.67 308.003 217.488" stroke="#2D3A4A" stroke-width="0.460003" stroke-linecap="round" stroke-linejoin="round"/>
<path d="M120.153 177.164C116.955 176.559 107.045 176.734 97.9004 180.032" stroke="#2D3A4A" stroke-width="0.460003" stroke-linecap="round" stroke-linejoin="round"/>
<path d="M118.828 187.996C111.939 188.068 106.267 189.01 99.39 192.672" stroke="#2D3A4A" stroke-width="0.460003" stroke-linecap="round" stroke-linejoin="round"/>
<path d="M184.197 185.083C196.131 184.359 205.031 183.836 213.242 187.652" stroke="#2D3A4A" stroke-width="0.460003" stroke-linecap="round" stroke-linejoin="round"/>
<path d="M184.47 198.01C194.483 197.174 203.373 197.324 210.827 201.024" stroke="#2D3A4A" stroke-width="0.460003" stroke-linecap="round" stroke-linejoin="round"/>
<path d="M141.615 112.846C143.459 116.692 148.403 123.804 155.928 124.415C163.453 125.026 166.778 121.548 166.778 121.548" stroke="#2D3A4A" stroke-width="0.460003" stroke-linecap="round" stroke-linejoin="round"/>
<path d="M160.87 107.891C160.975 109.264 161.604 111.817 161.65 112.723C161.695 113.628 160.654 114.114 159.491 114.125" stroke="#2D3A4A" stroke-width="0.460003" stroke-linecap="round" stroke-linejoin="round"/>
<path d="M152.95 114.706C154.197 115.808 159.808 118.249 163.058 115.727" stroke="#2D3A4A" stroke-width="0.460003" stroke-linecap="round" stroke-linejoin="round"/>
<path d="M150.264 103.497C151.978 103.316 156.405 104.276 157.434 105.149" stroke="#696D7C" stroke-width="0.460003" stroke-linecap="round" stroke-linejoin="round"/>
<path d="M164.229 105.839C165.409 105.316 169.721 105.417 171.038 106.078" stroke="#696D7C" stroke-width="0.460003" stroke-linecap="round" stroke-linejoin="round"/>
<path d="M136.638 96.1698C138.46 98.5265 139.288 101.497 139.288 101.497" stroke="#2D3A4A" stroke-width="0.460003" stroke-linecap="round" stroke-linejoin="round"/>
<path d="M179.209 100.595C178.107 101.842 176.115 107.079 176.115 107.079" stroke="#2D3A4A" stroke-width="0.460003" stroke-linecap="round" stroke-linejoin="round"/>
<path d="M134.316 128.74C134.924 133.874 138.481 143.221 153.236 144.655C167.992 146.089 172.133 131.376 172.133 131.376" stroke="#292F44" stroke-width="0.460003" stroke-linecap="round" stroke-linejoin="round"/>
<path d="M160.808 78.9449C162.651 81.1753 163.39 89.5592 163.276 91.0913" stroke="#100C27" stroke-width="0.460003" stroke-linecap="round" stroke-linejoin="round"/>
<path d="M165.997 82.0919C169.466 80.5753 172.906 83.317 173.854 86.308C174.801 89.299 178.374 90.3838 180.596 90.2186" stroke="#100C27" stroke-width="0.460003" stroke-linecap="round" stroke-linejoin="round"/>
<path d="M166.822 89.0707C167.913 91.9573 173.045 96.2575 175.134 97.7507" stroke="#100C27" stroke-width="0.460003" stroke-linecap="round" stroke-linejoin="round"/>
<path d="M150.75 93.498L146.874 86.1662" stroke="#100C27" stroke-width="0.460003" stroke-linecap="round" stroke-linejoin="round"/>
<path d="M159.453 80.151C156.804 78.1809 150.881 78.0172 148.052 81.1859C145.223 84.3546 141.457 85.3085 138.691 85.6451" stroke="#100C27" stroke-width="0.460003" stroke-linecap="round" stroke-linejoin="round"/>
<path d="M152.238 88.1799C155.137 86.1848 160.895 87.3554 160.895 87.3554" stroke="#100C27" stroke-width="0.460003" stroke-linecap="round" stroke-linejoin="round"/>
<path d="M184.025 97.0925C188.029 99.5349 184.364 105.542 188.633 109.577C192.903 113.612 197.312 114.311 196.95 121.48C196.589 128.65 198.138 133.552 200.013 134.754" stroke="#100C27" stroke-width="0.460003" stroke-linecap="round" stroke-linejoin="round"/>
<path d="M179.27 113.26C179.361 116.761 185.086 116.505 187.874 121.726C190.662 126.948 189.959 130.583 191.046 132.693" stroke="#100C27" stroke-width="0.460003" stroke-linecap="round" stroke-linejoin="round"/>
<path d="M173.299 119.159C172.434 123.801 178.778 130.226 178.778 130.226" stroke="#100C27" stroke-width="0.460003" stroke-linecap="round" stroke-linejoin="round"/>
<path d="M129.798 90.4352C126.945 92.9539 127.372 99.2227 123.795 103.048C120.218 106.873 115.271 104.667 112.187 107.021" stroke="#100C27" stroke-width="0.460003" stroke-linecap="round" stroke-linejoin="round"/>
<path d="M130.722 104.145C128.746 106.028 127.302 111.871 123.124 113.791C118.945 115.711 116.523 114.683 114.04 118.935" stroke="#100C27" stroke-width="0.460003" stroke-linecap="round" stroke-linejoin="round"/>
<path d="M138.213 109.078C135.287 110.423 132.673 111.429 130.755 115.388C128.836 119.347 125.583 121.934 123.322 122.349" stroke="#100C27" stroke-width="0.460003" stroke-linecap="round" stroke-linejoin="round"/>
<path d="M140.168 117.914C136.446 119.39 133.142 123.129 131.7 126.518" stroke="#100C27" stroke-width="0.460003" stroke-linecap="round" stroke-linejoin="round"/>
<path d="M117.429 125.29C115.36 126.124 112.008 129.343 110.654 132.999" stroke="#100C27" stroke-width="0.460003" stroke-linecap="round" stroke-linejoin="round"/>
<path d="M113.018 111.543C111.094 112.273 105.72 114.391 105.485 121.587C105.25 128.784 104.067 130.534 102.608 131.595" stroke="#100C27" stroke-width="0.460003" stroke-linecap="round" stroke-linejoin="round"/>
<path d="M94.4456 134.178C91.9767 135.078 89.3364 137.889 89.3816 140.867" stroke="#100C27" stroke-width="0.460003" stroke-linecap="round" stroke-linejoin="round"/>
<path d="M180.416 123.129C180.665 128.076 186.356 128.849 186.127 134.367" stroke="#100C27" stroke-width="0.460003" stroke-linecap="round" stroke-linejoin="round"/>
<path d="M213.251 92.8104L205.626 99.3519" stroke="#F89F93" stroke-width="0.920005" stroke-linecap="round" stroke-linejoin="round"/>
<path d="M228.327 105.274L213.023 111.374" stroke="#F89F93" stroke-width="0.920005" stroke-linecap="round" stroke-linejoin="round"/>
<path d="M217.891 122.221L224.676 120.972" stroke="#F89F93" stroke-width="0.920005" stroke-linecap="round" stroke-linejoin="round"/>
<path d="M238.761 43.1036C244.034 42.6516 247.773 46.8942 246.974 51.0526C246.174 55.211 246.437 60.8486 252.585 62.228C258.732 63.6074 261.393 67.2858 260.029 72.5274C258.665 77.7691 261.431 80.8131 266.051 81.1669" stroke="#F89F93" stroke-width="0.920005" stroke-linecap="round" stroke-linejoin="round"/>
<path d="M0.461352 167.806C1.03649 162.545 5.91657 159.701 9.84899 161.281C13.7814 162.862 19.3566 163.697 21.8972 157.929C24.4378 152.16 28.5588 150.262 33.4311 152.611C38.3034 154.96 41.8306 152.838 43.0697 148.368" stroke="#FFA18C" stroke-width="0.920005" stroke-linecap="round" stroke-linejoin="round"/>
<path d="M315.975 167.051C317.457 164.613 316.683 161.434 314.244 159.952C311.806 158.469 308.628 159.244 307.145 161.682C305.663 164.121 306.437 167.299 308.876 168.782C311.314 170.264 314.492 169.489 315.975 167.051Z" stroke="#F89F93" stroke-width="0.920005" stroke-linecap="round" stroke-linejoin="round"/>
<path d="M65.3767 132.25C68.1813 131.724 70.0282 129.024 69.5018 126.219C68.9754 123.414 66.2751 121.567 63.4705 122.094C60.6659 122.62 58.819 125.321 59.3454 128.125C59.8718 130.93 62.5721 132.777 65.3767 132.25Z" stroke="#F89F93" stroke-width="0.920005" stroke-linecap="round" stroke-linejoin="round"/>
<path d="M89.2872 99.9042C89.2163 100.353 89.0138 100.771 88.7054 101.105C88.397 101.438 87.9965 101.673 87.5546 101.779C87.1128 101.885 86.6494 101.858 86.223 101.701C85.7966 101.544 85.4265 101.263 85.1594 100.896C84.8923 100.528 84.7402 100.09 84.7224 99.6355C84.7045 99.1814 84.8218 98.7322 85.0593 98.3448C85.2967 97.9573 85.6438 97.649 86.0565 97.4588C86.4692 97.2686 86.9291 97.2051 87.3779 97.2763C87.9793 97.3721 88.5181 97.7026 88.8761 98.1953C89.2341 98.688 89.3819 99.3026 89.2872 99.9042V99.9042Z" stroke="#FF886D" stroke-width="0.920005" stroke-linecap="round" stroke-linejoin="round"/>
<path d="M32.3832 118.718C34.8495 116.251 34.8495 112.253 32.3831 109.786C29.9168 107.32 25.918 107.32 23.4516 109.786C20.9852 112.253 20.9852 116.251 23.4516 118.718C25.918 121.184 29.9168 121.184 32.3832 118.718Z" stroke="#94C7D4" stroke-width="0.920005" stroke-linecap="round" stroke-linejoin="round"/>
<path d="M256.416 175.971C257.021 174.771 257.132 173.62 256.656 173.372C256.181 173.124 255.254 173.908 254.607 175.141L254.576 175.203C253.966 175.199 253.375 175.407 252.902 175.791C252.429 176.175 252.104 176.711 251.982 177.308C251.861 177.905 251.95 178.525 252.235 179.063C252.52 179.602 252.984 180.024 253.546 180.259C254.108 180.494 254.734 180.526 255.317 180.35C255.901 180.174 256.405 179.801 256.744 179.295C257.082 178.789 257.235 178.181 257.175 177.575C257.116 176.969 256.847 176.402 256.416 175.971Z" fill="white"/>
<path d="M27.8179 89.5402L47.1372 89.1973" stroke="#F89F93" stroke-width="0.920005" stroke-linecap="round" stroke-linejoin="round"/>
<path d="M42.8314 54.3711L53.5922 62.2765" stroke="#F89F93" stroke-width="0.920005" stroke-linecap="round" stroke-linejoin="round"/>
<path d="M80.7197 34.2876L79.8999 53.7861" stroke="#F89F93" stroke-width="0.920005" stroke-linecap="round" stroke-linejoin="round"/>
<path d="M119.717 120.613L124.563 136.494" stroke="#F89F93" stroke-width="0.920005" stroke-linecap="round" stroke-linejoin="round"/>
<path d="M187.243 129.764L180.412 141.083" stroke="#F89F93" stroke-width="0.920005" stroke-linecap="round" stroke-linejoin="round"/>
<path d="M118.635 205.695L106.369 221.964" stroke="#F89F93" stroke-width="0.920005" stroke-linecap="round" stroke-linejoin="round"/>
<path d="M142.861 221.547L139.707 236.547" stroke="#F89F93" stroke-width="0.920005" stroke-linecap="round" stroke-linejoin="round"/>
<path d="M174.88 220.032L177.476 237.882" stroke="#F89F93" stroke-width="0.920005" stroke-linecap="round" stroke-linejoin="round"/>
<path d="M321.538 110.08C320.437 118.611 315.249 126.913 305.47 127.086C294.505 127.288 289.352 115.838 292.533 112.334C294.905 109.72 301.547 108.481 303.063 115.373C304.58 122.266 299.045 130.157 292.284 133.045C285.523 135.933 278.1 131.954 274.598 128.773" stroke="#94C7D4" stroke-width="0.920005" stroke-linecap="round" stroke-linejoin="round"/>
<path d="M184.519 0.460311C189.831 7.22506 192.114 16.7458 185.382 23.8407C177.839 31.8012 166.062 27.4493 165.793 22.7245C165.592 19.2004 169.364 13.5956 175.342 17.3457C181.321 21.0959 183.068 30.5749 180.388 37.4213C177.708 44.2677 169.667 46.7713 164.943 47.0388" stroke="#94C7D4" stroke-width="0.920005" stroke-linecap="round" stroke-linejoin="round"/>
</svg>
