<svg width="32" height="42" viewBox="0 0 32 42" fill="none" xmlns="http://www.w3.org/2000/svg">
<path d="M2.69395 6.47064C2.12977 8.05386 1.81594 10.5221 2.4189 14.3233C3.02187 18.1244 4.24894 19.6759 5.19041 20.8959L4.71793 31.6823L0 31.9538C0 31.9538 0.285606 36.8128 4.17842 39.5702C7.88788 42.2006 12.6411 42.0878 16.0438 41.9327C19.2076 41.7354 22.3223 41.0527 25.2787 39.9087C27.549 38.9676 29.6282 37.6197 31.414 35.9312C31.414 35.9312 21.7279 32.5356 21.7067 30.4023C21.6856 28.269 21.8654 21.3296 21.8654 21.3296C21.8654 21.3296 21.9888 20.233 22.3132 18.47C23.2813 18.455 24.2346 18.2304 25.1075 17.8116C25.9804 17.3927 26.7521 16.7897 27.3696 16.044C29.5382 13.477 29.1926 10.2965 27.017 9.10111C24.8414 7.90576 23.0395 10.1096 23.0395 10.1096C21.9761 8.13264 21.0524 6.08366 20.2751 3.97769C19.5417 1.86202 15.0847 -0.606245 9.96124 0.134236C5.94148 0.705465 3.63894 3.81901 2.69395 6.47064Z" fill="#FFCEC1"/>
</svg>
