<svg width="12" height="11" viewBox="0 0 12 11" fill="none" xmlns="http://www.w3.org/2000/svg">
<path d="M11.398 10.671C11.2517 10.6701 11.1106 10.616 11.0011 10.519L0.205011 1.0543C0.145593 1.00219 0.0970384 0.938881 0.0620855 0.867997C0.0271327 0.797112 0.00645026 0.720035 0.00128444 0.64117C-0.00388138 0.562305 0.00657162 0.483205 0.0319793 0.408367C0.0573869 0.333528 0.0972581 0.264421 0.149371 0.205002C0.201484 0.145584 0.264783 0.0970182 0.335668 0.0620654C0.406552 0.0271126 0.483664 0.00645274 0.562529 0.00128694C0.641394 -0.00387887 0.720482 0.00654015 0.79532 0.0319478C0.870159 0.0573555 0.939266 0.0972606 0.998685 0.149374L11.7948 9.61405C11.8864 9.69517 11.9512 9.80217 11.9806 9.9209C12.0101 10.0396 12.0029 10.1645 11.9599 10.279C11.9169 10.3935 11.8401 10.4923 11.7398 10.5623C11.6395 10.6323 11.5203 10.6702 11.398 10.671Z" fill="#C3C2FE"/>
</svg>
