<svg width="50" height="17" viewBox="0 0 50 17" fill="none" xmlns="http://www.w3.org/2000/svg">
<path d="M44.5948 16.997C44.1145 16.9961 43.6358 16.941 43.1677 16.8329C41.0485 16.3369 39.2433 14.7208 37.9518 12.1592C36.8315 9.94008 35.3153 8.52014 33.4387 7.93861C31.2053 7.22507 28.5331 7.73526 25.497 9.40137C18.8432 13.044 14.3836 7.69243 12.3179 4.18183C11.8135 3.35044 11.1219 2.64843 10.298 2.13182C9.47416 1.61521 8.54097 1.2983 7.5729 1.20638C6.36254 1.08371 5.14026 1.24565 4.0036 1.67925C2.86693 2.11286 1.84735 2.80613 1.0262 3.70376C0.974983 3.76452 0.911853 3.81415 0.840714 3.84957C0.769574 3.88499 0.691928 3.90546 0.612572 3.9097C0.533216 3.91394 0.453824 3.90187 0.379314 3.87424C0.304803 3.84661 0.236751 3.804 0.17935 3.74904C0.121948 3.69408 0.076427 3.62793 0.045583 3.5547C0.014739 3.48146 -0.000761287 3.40268 2.87495e-05 3.32321C0.000818786 3.24375 0.0178836 3.16529 0.0501776 3.09267C0.0824717 3.02006 0.129294 2.95484 0.187777 2.90103C1.13189 1.87269 2.30319 1.07914 3.60829 0.583609C4.91338 0.0880807 6.3162 -0.095719 7.7049 0.0468772C8.85147 0.158471 9.95607 0.536619 10.9305 1.15112C11.9049 1.76562 12.7221 2.59946 13.3169 3.58603C15.5824 7.43557 19.4355 11.3886 24.9404 8.37745C28.2619 6.55436 31.2374 6.03346 33.7847 6.82192C35.9682 7.50335 37.7092 9.11952 38.9864 11.6312C40.1209 13.8753 41.655 15.2809 43.4282 15.6948C45.2013 16.1086 47.135 15.5556 49.058 14.1107C49.1187 14.0639 49.188 14.0294 49.262 14.0094C49.3359 13.9893 49.4131 13.984 49.4892 13.9938C49.5652 14.0035 49.6386 14.0282 49.7051 14.0663C49.7716 14.1044 49.8299 14.1553 49.8768 14.216C49.9236 14.2766 49.9581 14.3459 49.9781 14.4199C49.9982 14.4939 50.0035 14.5711 49.9937 14.6471C49.984 14.7232 49.9593 14.7965 49.9212 14.863C49.8831 14.9295 49.8322 14.9879 49.7715 15.0347C48.0412 16.3298 46.2823 16.997 44.5948 16.997Z" fill="#F89F93"/>
</svg>
