<svg width="9" height="5" viewBox="0 0 9 5" fill="none" xmlns="http://www.w3.org/2000/svg">
<path d="M4.56102 4.28006H4.35314C2.69723 4.22368 1.23862 3.52609 0.456467 2.4198C0.261216 2.1788 0.123286 1.89658 0.0530952 1.59445C-0.017095 1.29233 -0.0176966 0.978211 0.0513104 0.675815C0.326121 -0.190896 1.01667 -0.0534875 2.05602 0.161429C2.84345 0.325778 3.6399 0.443423 4.44122 0.51375C5.36317 0.600815 6.29329 0.51234 7.18229 0.253025C7.88693 0.0698177 8.43304 -0.0746277 8.85935 0.711049C8.97587 0.963177 9.02168 1.24223 8.9919 1.51838C8.96211 1.79454 8.85783 2.05739 8.69022 2.27887C8.08422 3.27242 6.54459 4.28006 4.56102 4.28006ZM0.960306 0.566596C0.710157 0.566596 0.657309 0.658192 0.607984 0.844922C0.567821 1.06301 0.576348 1.28729 0.632993 1.50169C0.689639 1.71609 0.792998 1.91531 0.93564 2.0851C1.61562 3.04694 2.90511 3.65293 4.38486 3.70578C6.24864 3.7692 7.67554 2.8602 8.21459 1.98997C8.32426 1.85194 8.39594 1.68763 8.42251 1.51335C8.44909 1.33907 8.42964 1.16087 8.36609 0.996429C8.16526 0.626491 8.0631 0.626488 7.33731 0.816741C6.38475 1.09066 5.38955 1.18504 4.40247 1.09508C3.57357 1.01901 2.75 0.893119 1.93622 0.718092C1.61362 0.63898 1.28471 0.588289 0.953252 0.566596H0.960306Z" fill="#292F44"/>
</svg>
