<svg width="4" height="5" viewBox="0 0 4 5" fill="none" xmlns="http://www.w3.org/2000/svg">
<path d="M2.94676 4.99984C2.87615 5.00078 2.80754 4.97637 2.7534 4.93103C2.69926 4.88569 2.66317 4.82243 2.6517 4.75275C2.40828 3.44717 1.2318 1.27856 0.13275 0.54832C0.0673589 0.503389 0.0219759 0.434818 0.00615168 0.357073C-0.00967256 0.279327 0.00530541 0.198481 0.0479308 0.131564C0.0928144 0.0660094 0.16169 0.020757 0.239673 0.0055743C0.317657 -0.00960839 0.398488 0.00650902 0.464686 0.0504373C1.71864 0.883945 2.96522 3.16317 3.24183 4.64578C3.25582 4.72352 3.23844 4.80364 3.19352 4.86861C3.14859 4.93358 3.07977 4.97811 3.00209 4.99246L2.94676 4.99984Z" fill="white"/>
</svg>
