<svg width="28" height="28" viewBox="0 0 28 28" fill="none" xmlns="http://www.w3.org/2000/svg">
<path d="M15.3125 18.0469H12.6875C12.2331 18.0484 11.7917 18.199 11.4311 18.4756C11.0706 18.7522 10.8108 19.1396 10.6917 19.5781H9.43333C9.31422 19.1396 9.05444 18.7522 8.69389 18.4756C8.33334 18.199 7.89194 18.0484 7.4375 18.0469H4.8125C4.02957 18.0478 3.27897 18.3592 2.72535 18.9128C2.17173 19.4665 1.8603 20.2171 1.85938 21V21.875C1.8603 22.6579 2.17173 23.4085 2.72535 23.9622C3.27897 24.5158 4.02957 24.8272 4.8125 24.8281C6.03997 24.8263 7.21815 24.345 8.09575 23.4868C8.97335 22.6286 9.48089 21.4615 9.51011 20.2344H10.6149C10.6441 21.4615 11.1517 22.6286 12.0293 23.4868C12.9068 24.345 14.085 24.8263 15.3125 24.8281C16.0954 24.8272 16.846 24.5158 17.3997 23.9622C17.9533 23.4085 18.2647 22.6579 18.2656 21.875V21C18.2647 20.2171 17.9533 19.4665 17.3997 18.9128C16.846 18.3592 16.0954 18.0478 15.3125 18.0469Z" fill="#F8F9FA"/>
<path d="M21.7656 9.51562C21.7656 9.4286 21.7311 9.34514 21.6695 9.28361C21.608 9.22207 21.5245 9.1875 21.4375 9.1875H6.5625C6.47548 9.1875 6.39202 9.22207 6.33048 9.28361C6.26895 9.34514 6.23438 9.4286 6.23438 9.51562V10.6094H21.7656V9.51562Z" fill="#F8F9FA"/>
<path d="M14.0007 1.85938C12.2126 1.86216 10.4955 2.55957 9.21196 3.80441C7.92837 5.04924 7.17867 6.7441 7.12109 8.53125H20.8802C20.8226 6.7441 20.0729 5.04924 18.7893 3.80441C17.5058 2.55957 15.7887 1.86216 14.0007 1.85938Z" fill="#F8F9FA"/>
<path d="M26.432 18.102L23.8557 16.3844C23.92 16.7098 23.9526 17.0406 23.9531 17.3723V18.8773C24.1414 18.9534 24.2973 19.0927 24.3941 19.2712C24.4909 19.4496 24.5227 19.6562 24.4839 19.8556C24.4451 20.0549 24.3382 20.2345 24.1815 20.3637C24.0248 20.4928 23.8281 20.5634 23.625 20.5634C23.4219 20.5634 23.2252 20.4928 23.0685 20.3637C22.9118 20.2345 22.8049 20.0549 22.7661 19.8556C22.7273 19.6562 22.7591 19.4496 22.8559 19.2712C22.9527 19.0927 23.1086 18.9534 23.2969 18.8773V17.3723C23.2938 17.0831 23.2625 16.7948 23.2035 16.5117L20.818 18.102C20.773 18.1319 20.7361 18.1725 20.7106 18.2202C20.6851 18.2678 20.6718 18.321 20.6719 18.375V24.5C20.6722 24.819 20.7991 25.1248 21.0246 25.3504C21.2502 25.576 21.556 25.7028 21.875 25.7031H25.375C25.694 25.7028 25.9998 25.576 26.2254 25.3504C26.4509 25.1248 26.5778 24.819 26.5781 24.5V18.375C26.5782 18.321 26.5649 18.2678 26.5394 18.2202C26.5139 18.1725 26.477 18.1319 26.432 18.102Z" fill="#F8F9FA"/>
<path d="M20.8539 13.4185C20.7761 13.3795 20.7169 13.3112 20.6894 13.2286C20.6619 13.146 20.6684 13.0559 20.7074 12.978C20.7463 12.9002 20.8146 12.841 20.8972 12.8135C20.9799 12.7861 21.07 12.7925 21.1478 12.8315C22.013 13.2622 22.7368 13.9315 23.2339 14.7602C24.9627 13.9374 26.1251 12.8758 26.4701 11.6848C26.4838 11.6357 26.4859 11.584 26.4763 11.5339C26.4667 11.4838 26.4456 11.4366 26.4148 11.396C26.3839 11.3554 26.344 11.3225 26.2983 11.2999C26.2525 11.2773 26.2022 11.2655 26.1512 11.2656H1.85059C1.79957 11.2655 1.74923 11.2773 1.7035 11.2999C1.65777 11.3225 1.6179 11.3554 1.58701 11.396C1.55612 11.4366 1.53504 11.4838 1.52544 11.5339C1.51584 11.584 1.51796 11.6357 1.53165 11.6848C2.33171 14.4469 7.52059 16.5156 14.0009 16.5156C16.9451 16.5729 19.8732 16.0682 22.6284 15.0286C22.1967 14.3385 21.5826 13.7813 20.8539 13.4185Z" fill="#F8F9FA"/>
<path d="M23.8083 16.352L23.8571 16.3845C23.7452 15.8111 23.5345 15.2615 23.2344 14.7603C23.0398 14.8528 22.838 14.9423 22.6289 15.0286C22.9097 15.4837 23.1049 15.9863 23.2048 16.5117L23.4443 16.352C23.4982 16.3161 23.5615 16.2969 23.6263 16.2969C23.6911 16.2969 23.7544 16.3161 23.8083 16.352Z" fill="#F8F9FA"/>
</svg>
