<svg width="14" height="18" viewBox="0 0 14 18" fill="none" xmlns="http://www.w3.org/2000/svg">
<path d="M0.572671 18.0001C0.465917 18.0006 0.361159 17.9711 0.270344 17.915C0.179528 17.8589 0.106302 17.7784 0.0590002 17.6827C0.0116985 17.587 -0.00777107 17.4799 0.00280369 17.3737C0.0133784 17.2674 0.0535855 17.1663 0.118826 17.0818L12.9604 0.22242C13.0066 0.16282 13.0641 0.112902 13.1296 0.0755193C13.1951 0.0381361 13.2673 0.0140232 13.3421 0.00454888C13.4169 -0.00492539 13.4929 0.000433523 13.5656 0.0203105C13.6384 0.0401875 13.7065 0.074197 13.7661 0.120399C13.8257 0.166601 13.8756 0.224096 13.913 0.28959C13.9504 0.355083 13.9745 0.4273 13.9839 0.502115C13.9934 0.576929 13.9881 0.652867 13.9682 0.725612C13.9483 0.798357 13.9143 0.866468 13.8681 0.926069L1.03004 17.7855C0.975249 17.8538 0.905535 17.9087 0.826253 17.9459C0.746972 17.9831 0.660233 18.0016 0.572671 18.0001Z" fill="#C3C2FE"/>
</svg>
