<svg width="27" height="28" viewBox="0 0 27 28" fill="none" xmlns="http://www.w3.org/2000/svg">
<path d="M17.516 14.1169C17.3902 15.1445 16.9281 16.1239 16.1668 16.8852C15.2415 17.811 13.9481 18.2469 12.3239 18.1813C11.1848 18.1359 10.6587 18.4339 10.5722 18.4881C10.2233 18.7938 9.78037 18.9611 9.31279 18.9611C8.80146 18.9611 8.32075 18.7621 7.95927 18.4006C7.33528 17.7766 7.23465 16.8141 7.66067 16.0807L7.96637 15.5962C8.07028 15.343 8.21083 14.8431 8.17802 14.0354C8.11294 12.4106 8.5488 11.1178 9.47412 10.1925C10.2321 9.43505 11.2012 8.96583 12.249 8.8406C12.3972 8.12801 12.7182 7.46137 13.1814 6.90137H2.19025C0.98274 6.90137 0 7.88356 0 9.09107V19.9515H22.8486V9.16763L20.0721 12.5703C19.4191 13.3682 18.5124 13.9113 17.516 14.1169Z" fill="#F8F9FA"/>
<path d="M5.47099e-05 22.2923C5.47099e-05 23.4993 0.982795 24.4814 2.1903 24.4814H8.41481V26.3594H7.03515C6.58212 26.3594 6.21483 26.7267 6.21483 27.1797C6.21483 27.6328 6.58212 28.0001 7.03515 28.0001H15.8133C16.2663 28.0001 16.6336 27.6328 16.6336 27.1797C16.6336 26.7267 16.2663 26.3594 15.8133 26.3594H14.4336V24.4814H20.6583C21.8658 24.4814 22.8486 23.4993 22.8486 22.2923V21.5923H0V22.2923H5.47099e-05Z" fill="#F8F9FA"/>
<path d="M9.13827 16.8345C9.13811 16.8346 9.13795 16.8348 9.13784 16.835C9.13773 16.835 9.13767 16.8351 9.13762 16.8352L9.1374 16.8354C9.13729 16.8355 9.13724 16.8356 9.13713 16.8357C9.13707 16.8359 9.13702 16.8359 9.13685 16.836L9.1368 16.836C9.13674 16.8361 9.13663 16.8362 9.13652 16.8363C9.13652 16.8363 9.13652 16.8363 9.13647 16.8363C9.13642 16.8364 9.13631 16.8365 9.13625 16.8366C9.13625 16.8366 9.13625 16.8366 9.1362 16.8367C9.13609 16.8367 9.13603 16.8368 9.13592 16.8369C9.13592 16.8369 9.13592 16.8369 9.13587 16.837L9.13559 16.8373C9.03191 16.9443 9.03295 17.1151 9.13866 17.2209C9.19209 17.2742 9.26203 17.3009 9.33203 17.3009C9.40138 17.3009 9.47072 17.2747 9.52393 17.2223C9.54066 17.2064 10.369 16.4406 12.4096 16.5227C13.5577 16.5689 14.4379 16.2939 15.0262 15.7057C16.2317 14.5002 16.2317 12.5388 15.0262 11.3333C14.4423 10.7494 13.6659 10.4277 12.84 10.4277C12.0142 10.4277 11.2378 10.7493 10.6538 11.3333C10.0656 11.9215 9.7907 12.8019 9.83685 13.9499C9.91932 16.0016 9.14489 16.8277 9.13866 16.8342C9.13844 16.8343 9.13838 16.8344 9.13827 16.8345Z" fill="#F8F9FA"/>
<path d="M17.4457 12.4305C17.9805 12.2703 18.4623 11.9531 18.8216 11.5139L19.8698 10.2294L16.1359 6.49561L14.8568 7.54036C14.4166 7.89911 14.0983 8.38036 13.9375 8.9152C14.783 9.11371 15.5584 9.54411 16.1879 10.1736C16.8321 10.8178 17.2516 11.6025 17.4457 12.4305Z" fill="#F8F9FA"/>
<path d="M25.8703 0.492585C25.2594 -0.118275 24.2936 -0.166947 23.6243 0.379928L17.4141 5.45236L20.9134 8.95165L25.9835 2.73811C26.5298 2.06923 26.4811 1.10344 25.8703 0.492585Z" fill="#F8F9FA"/>
</svg>
