<svg width="3" height="4" viewBox="0 0 3 4" fill="none" xmlns="http://www.w3.org/2000/svg">
<path d="M2.68782 3.59039C2.63537 3.59074 2.58368 3.57777 2.53761 3.5527C2.49154 3.52764 2.4526 3.4913 2.42441 3.44707C1.74996 2.4037 0.971219 1.43158 0.100201 0.545684C0.0390727 0.488665 0.00309646 0.4097 0.00019064 0.326158C-0.00271519 0.242615 0.0276959 0.161329 0.0847146 0.100201C0.141733 0.0390727 0.220698 0.00309646 0.304241 0.00019064C0.387783 -0.00271519 0.469046 0.0276959 0.530174 0.0847146C1.43936 1.00557 2.25071 2.01812 2.95122 3.10618C2.98073 3.15408 2.99698 3.20897 2.99832 3.2652C2.99966 3.32144 2.98605 3.37701 2.95886 3.42626C2.93168 3.47551 2.8919 3.51666 2.8436 3.54549C2.7953 3.57433 2.74019 3.58983 2.68394 3.59039H2.68782Z" fill="white"/>
</svg>
