<svg width="20" height="5" viewBox="0 0 20 5" fill="none" xmlns="http://www.w3.org/2000/svg">
<path d="M19.6923 4.24647H19.6409C15.7484 3.55177 0.395125 0.622267 0.240747 0.592861C0.163249 0.577749 0.0949332 0.532466 0.0508172 0.466982C0.00670127 0.401497 -0.00960733 0.321169 0.00549965 0.243669C0.020662 0.165966 0.065794 0.0973453 0.131133 0.05264C0.196471 0.00793469 0.276751 -0.00925177 0.354669 0.00476488C0.509047 0.0341702 15.8586 2.94529 19.7475 3.65837C19.8224 3.67 19.89 3.70978 19.9366 3.76958C19.9832 3.82938 20.0053 3.90471 19.9982 3.98019C19.9912 4.05568 19.9556 4.12563 19.8988 4.1758C19.842 4.22596 19.7681 4.25255 19.6923 4.25015V4.24647Z" fill="#100C27"/>
</svg>
