<svg width="34" height="21" viewBox="0 0 34 21" fill="none" xmlns="http://www.w3.org/2000/svg">
<path fill-rule="evenodd" clip-rule="evenodd" d="M10.3884 20.7143C16.1257 20.7143 20.7768 16.0772 20.7768 10.3571C20.7768 4.63705 16.1257 0 10.3884 0C4.65104 0 0 4.63705 0 10.3571C0 16.0772 4.65104 20.7143 10.3884 20.7143Z" fill="#D8232A"/>
<path fill-rule="evenodd" clip-rule="evenodd" d="M17.002 18.3467C18.7982 19.8258 21.1016 20.7144 23.6132 20.7144C29.3505 20.7144 34.0016 16.0773 34.0016 10.3573C34.0016 4.63717 29.3505 0.000122875 23.6132 0.000122875C21.1016 0.000122875 18.7982 0.888747 17.002 2.36785C19.3089 4.26752 20.7791 7.14121 20.7791 10.3573C20.7791 13.5733 19.3089 16.447 17.002 18.3467Z" fill="#ED9F2D"/>
<path fill-rule="evenodd" clip-rule="evenodd" d="M16.9966 2.36768C14.6896 4.26735 13.2194 7.14104 13.2194 10.3571C13.2194 13.5731 14.6896 16.4468 16.9966 18.3465C19.3035 16.4468 20.7737 13.5731 20.7737 10.3571C20.7737 7.14104 19.3035 4.26735 16.9966 2.36768Z" fill="#D8232A"/>
<mask id="mask0_0_160" style="mask-type:alpha" maskUnits="userSpaceOnUse" x="13" y="2" width="8" height="17">
<path fill-rule="evenodd" clip-rule="evenodd" d="M16.9966 2.36768C14.6896 4.26735 13.2194 7.14104 13.2194 10.3571C13.2194 13.5731 14.6896 16.4468 16.9966 18.3465C19.3035 16.4468 20.7737 13.5731 20.7737 10.3571C20.7737 7.14104 19.3035 4.26735 16.9966 2.36768Z" fill="white"/>
</mask>
<g mask="url(#mask0_0_160)">
<path fill-rule="evenodd" clip-rule="evenodd" d="M12.2757 2.82465H21.7197V3.76621H12.2757V2.82465ZM12.2757 4.70758H21.7197V5.64914H12.2757V4.70758ZM21.7197 6.59052H12.2757V7.53207H21.7197V6.59052ZM12.2757 8.47433H21.7197V9.41589H12.2757V8.47433ZM21.7197 10.3573H12.2757V11.2988H21.7197V10.3573ZM12.2757 12.2402H21.7197V13.1818H12.2757V12.2402ZM21.7197 14.1231H12.2757V15.0647H21.7197V14.1231ZM12.2757 16.0065H21.7197V16.9481H12.2757V16.0065ZM21.7197 17.8894H12.2757V18.831H21.7197V17.8894Z" fill="#ED9F2D"/>
</g>
</svg>
