<svg width="19" height="20" viewBox="0 0 19 20" fill="none" xmlns="http://www.w3.org/2000/svg">
<path d="M18.1562 19.9999C18.0751 20.0004 17.9948 19.9842 17.9203 19.9523C17.8457 19.9203 17.7786 19.8733 17.723 19.8143L0.183322 1.02231C0.124928 0.966485 0.0785516 0.899337 0.0470276 0.824957C0.0155037 0.750576 -0.000484925 0.670525 1.12019e-05 0.589741C0.000507329 0.508958 0.017481 0.429136 0.0499162 0.355148C0.0823514 0.28116 0.12958 0.214564 0.188655 0.159461C0.247729 0.104357 0.317411 0.0619144 0.393474 0.0346984C0.469536 0.00748232 0.550378 -0.00392662 0.631 0.00119138C0.711623 0.00630938 0.790339 0.0278344 0.86235 0.0644503C0.93436 0.101066 0.998116 0.152012 1.04975 0.214143L18.5894 19.0061C18.6685 19.0902 18.7212 19.1956 18.7409 19.3093C18.7607 19.423 18.7466 19.54 18.7005 19.6458C18.6543 19.7516 18.5782 19.8416 18.4815 19.9045C18.3847 19.9675 18.2716 20.0006 18.1562 19.9999Z" fill="#C3C2FE"/>
</svg>
