<svg width="169" height="174" viewBox="0 0 169 174" fill="none" xmlns="http://www.w3.org/2000/svg">
<path d="M7.5133 110.709C10.4941 110.149 12.4569 107.279 11.8975 104.299C11.338 101.318 8.46811 99.3551 5.48736 99.9145C2.50661 100.474 0.543749 103.344 1.1032 106.325C1.66265 109.305 4.53255 111.268 7.5133 110.709Z" stroke="#689EFB" stroke-width="2.00518" stroke-linecap="round" stroke-linejoin="round"/>
<path d="M156.738 90.7392C156.663 91.2163 156.447 91.6602 156.12 92.015C155.792 92.3697 155.366 92.6192 154.897 92.7321C154.427 92.8449 153.935 92.8159 153.481 92.6488C153.028 92.4816 152.635 92.1839 152.351 91.7931C152.067 91.4024 151.905 90.9363 151.887 90.4537C151.868 89.971 151.992 89.4937 152.245 89.0819C152.497 88.6701 152.866 88.3424 153.304 88.1403C153.743 87.9382 154.232 87.8707 154.709 87.9463C155.348 88.0482 155.921 88.3994 156.301 88.9231C156.682 89.4467 156.839 90.0999 156.738 90.7392V90.7392Z" stroke="#8DE2EF" stroke-width="2.00518" stroke-linecap="round" stroke-linejoin="round"/>
<path d="M46.6506 47.4368C42.8433 49.9153 37.7896 50.7287 34.5185 46.9902C30.8479 42.8007 33.7878 36.8994 36.2451 36.9412C38.0779 36.972 40.7527 39.1289 38.464 42.0657C36.1753 45.0024 31.1746 45.5413 27.7942 43.8995C24.4137 42.2577 23.592 38.0199 23.731 35.5762" stroke="#94C7D4" stroke-width="2.00518" stroke-linecap="round" stroke-linejoin="round"/>
<path d="M125.403 171.033C121.92 171.555 119.632 169.992 120.314 168.178C120.996 166.363 121.046 163.992 117.058 163.793C113.069 163.594 111.465 162.202 112.565 159.898C113.665 157.594 111.969 156.473 108.943 156.614" stroke="#FFA18C" stroke-width="2.00518" stroke-linecap="round" stroke-linejoin="round"/>
<ellipse cx="85.0472" cy="93.8972" rx="56.2379" ry="56.74" fill="#7875FC"/>
<path d="M150.888 102.82C150.818 102.517 150.688 102.23 150.504 101.978C150.321 101.727 150.089 101.514 149.821 101.355C149.554 101.195 149.257 101.091 148.948 101.049C148.64 101.007 148.326 101.028 148.026 101.111C147.416 101.31 146.907 101.737 146.604 102.303C146.301 102.868 146.228 103.529 146.399 104.147C146.469 104.451 146.599 104.737 146.782 104.989C146.965 105.241 147.197 105.454 147.465 105.614C147.732 105.774 148.03 105.877 148.338 105.919C148.647 105.961 148.961 105.939 149.262 105.856C149.871 105.657 150.38 105.23 150.683 104.664C150.986 104.099 151.059 103.438 150.888 102.82Z" fill="#F89F93"/>
<path d="M148.878 103.493C151.291 103.308 151.618 126.511 151.618 126.511C151.618 126.511 150.041 127.281 149.271 127.093C148.502 126.905 148.136 123.768 148.136 123.768L148.028 127.051C148.028 127.051 145.389 127.131 144.476 126.445C144.476 126.445 145.065 103.778 148.878 103.493Z" fill="#F89F93"/>
<path d="M131.119 46.6479C131.119 46.6479 133.652 60.4382 130.635 60.5468C127.618 60.6554 121.061 55.1598 109.214 57.4245C97.368 59.6892 83.0329 64.0037 72.4931 48.4166C61.9534 32.8294 81.6079 25.9386 81.6079 25.9386L131.12 46.6613L131.119 46.6479Z" fill="#152946"/>
<path d="M100.835 50.456L167.701 53.9762L169 50.9678C143.483 33.2678 129.176 23.3441 103.659 5.64414L38.8402 1.13789e-05L37.6773 2.69151L100.835 50.456Z" fill="#4285FA"/>
<path d="M149.75 101.786L150.098 54.464C150.339 52.357 150.005 50.2241 149.132 48.2914C148.259 46.3587 146.88 44.6981 145.14 43.4856L116.105 23.2907C115.954 23.1834 115.783 23.1073 115.603 23.0667C115.422 23.0261 115.235 23.0218 115.053 23.0543C114.871 23.0867 114.697 23.1551 114.542 23.2555C114.386 23.3558 114.252 23.4862 114.148 23.6389C114.094 23.7144 114.056 23.8 114.036 23.8904C114.016 23.9808 114.015 24.0743 114.031 24.1654C114.048 24.2565 114.082 24.3433 114.133 24.4209C114.183 24.4985 114.249 24.5653 114.325 24.6173L145.144 46.0413C146.307 46.8498 147.23 47.9586 147.814 49.2498C148.398 50.5411 148.62 51.9664 148.458 53.3741L148.054 102.333L149.75 101.786Z" fill="#F89F93"/>
<path fill-rule="evenodd" clip-rule="evenodd" d="M119.089 80.4324C120.565 81.8947 120.565 84.2657 119.089 85.7281L82.0377 122.426C80.5613 123.888 78.1675 123.888 76.691 122.426L57.0314 102.954C55.5549 101.491 55.5549 99.1201 57.0314 97.6578C58.5078 96.1954 60.9017 96.1954 62.3781 97.6578L79.3644 114.482L113.742 80.4324C115.218 78.97 117.612 78.97 119.089 80.4324Z" fill="#8DE2EF"/>
</svg>
