<svg width="3" height="5" viewBox="0 0 3 5" fill="none" xmlns="http://www.w3.org/2000/svg">
<path d="M2.50367 4.98432C2.43956 4.98336 2.37709 4.96384 2.32385 4.92811C2.2706 4.89238 2.22886 4.84197 2.20367 4.783C2.20367 4.74748 0.885272 1.49885 0.103705 0.555442C0.0696906 0.524267 0.0428164 0.486096 0.0249472 0.443557C0.00707795 0.401017 -0.00136814 0.355114 0.000180159 0.309C0.00172846 0.262886 0.0132513 0.217653 0.0339337 0.176408C0.054616 0.135163 0.0839626 0.0988871 0.119992 0.0700637C0.156021 0.0412404 0.197868 0.0205593 0.242646 0.00943514C0.287425 -0.001689 0.33409 -0.00299555 0.379419 0.00561649C0.424748 0.0142285 0.467675 0.0325472 0.505254 0.0593185C0.542833 0.0860898 0.57417 0.120683 0.597119 0.160712C1.44579 1.18306 2.74446 4.41985 2.79972 4.558C2.81886 4.60667 2.82592 4.65926 2.8203 4.71125C2.81468 4.76325 2.79654 4.81311 2.76744 4.85657C2.73834 4.90002 2.69915 4.93578 2.65322 4.96078C2.60728 4.98578 2.55597 4.99926 2.50367 5.0001V4.98432Z" fill="#292F44"/>
</svg>
