<svg width="18" height="10" viewBox="0 0 18 10" fill="none" xmlns="http://www.w3.org/2000/svg">
<path d="M0.586145 9.90343C0.454623 9.90233 0.327223 9.8574 0.224111 9.77574C0.120999 9.69409 0.0481007 9.58038 0.0168867 9.45261C-0.0143273 9.32484 -0.0020332 9.19031 0.0518151 9.07031C0.105663 8.95031 0.197955 8.85169 0.314155 8.79008L17.1631 0.053752C17.301 -0.00947964 17.458 -0.0172266 17.6016 0.0321154C17.7451 0.0814574 17.8641 0.184103 17.934 0.318803C18.0039 0.453503 18.0193 0.609933 17.9771 0.755696C17.9348 0.901459 17.8382 1.02539 17.7071 1.10182L0.858135 9.83815C0.773715 9.88058 0.680628 9.90292 0.586145 9.90343Z" fill="#C3C2FE"/>
</svg>
