<svg width="16" height="20" viewBox="0 0 16 20" fill="none" xmlns="http://www.w3.org/2000/svg">
<path fill-rule="evenodd" clip-rule="evenodd" d="M4.89982 0H11.0696C13.7795 0 15.9694 1.06996 15.9994 3.78986V18.9693C15.9994 19.1393 15.9594 19.3093 15.8794 19.4593C15.7494 19.6993 15.5294 19.8793 15.2594 19.9593C14.9995 20.0393 14.7095 19.9993 14.4695 19.8593L7.98971 16.6194L1.49995 19.8593C1.35095 19.9383 1.17996 19.9893 1.00996 19.9893C0.449984 19.9893 0 19.5293 0 18.9693V3.78986C0 1.06996 2.19992 0 4.89982 0ZM4.21985 7.61972H11.7496C12.1796 7.61972 12.5295 7.26873 12.5295 6.82975C12.5295 6.38977 12.1796 6.03978 11.7496 6.03978H4.21985C3.78986 6.03978 3.43987 6.38977 3.43987 6.82975C3.43987 7.26873 3.78986 7.61972 4.21985 7.61972Z" fill="#5F5CF0"/>
</svg>
