<svg width="169" height="174" viewBox="0 0 169 174" fill="none" xmlns="http://www.w3.org/2000/svg">
<path d="M7.5133 110.709C10.4941 110.149 12.4569 107.279 11.8975 104.299C11.338 101.318 8.46811 99.355 5.48736 99.9144C2.50661 100.474 0.543749 103.344 1.1032 106.325C1.66265 109.305 4.53255 111.268 7.5133 110.709Z" stroke="#689EFB" stroke-width="2.00518" stroke-linecap="round" stroke-linejoin="round"/>
<path d="M156.738 90.7393C156.663 91.2164 156.447 91.6604 156.12 92.0151C155.792 92.3698 155.366 92.6194 154.897 92.7322C154.427 92.845 153.935 92.816 153.481 92.6489C153.028 92.4817 152.635 92.184 152.351 91.7933C152.067 91.4025 151.905 90.9364 151.887 90.4538C151.868 89.9712 151.992 89.4938 152.245 89.082C152.497 88.6702 152.866 88.3426 153.304 88.1404C153.743 87.9383 154.232 87.8708 154.709 87.9465C155.348 88.0483 155.921 88.3996 156.301 88.9232C156.682 89.4468 156.839 90.1 156.738 90.7393V90.7393Z" stroke="#8DE2EF" stroke-width="2.00518" stroke-linecap="round" stroke-linejoin="round"/>
<path d="M46.6506 47.4367C42.8433 49.9152 37.7896 50.7286 34.5185 46.9901C30.8479 42.8006 33.7878 36.8993 36.2451 36.941C38.0779 36.9719 40.7527 39.1288 38.464 42.0655C36.1753 45.0023 31.1746 45.5411 27.7942 43.8993C24.4137 42.2575 23.592 38.0198 23.731 35.5761" stroke="#94C7D4" stroke-width="2.00518" stroke-linecap="round" stroke-linejoin="round"/>
<path d="M125.403 171.033C121.92 171.555 119.632 169.992 120.314 168.178C120.996 166.363 121.046 163.992 117.058 163.793C113.069 163.594 111.465 162.202 112.565 159.898C113.665 157.594 111.969 156.473 108.943 156.614" stroke="#FFA18C" stroke-width="2.00518" stroke-linecap="round" stroke-linejoin="round"/>
<ellipse cx="85.0472" cy="93.8972" rx="56.2379" ry="56.74" fill="#7875FC"/>
<path d="M150.888 102.82C150.818 102.517 150.688 102.23 150.504 101.978C150.321 101.727 150.089 101.514 149.821 101.355C149.554 101.195 149.257 101.091 148.948 101.049C148.64 101.007 148.326 101.028 148.026 101.111C147.416 101.31 146.907 101.737 146.604 102.303C146.301 102.868 146.228 103.529 146.399 104.147C146.469 104.451 146.599 104.737 146.782 104.989C146.965 105.241 147.197 105.454 147.465 105.614C147.732 105.774 148.03 105.877 148.338 105.919C148.647 105.961 148.961 105.939 149.262 105.856C149.871 105.657 150.38 105.23 150.683 104.664C150.986 104.099 151.059 103.438 150.888 102.82Z" fill="#F89F93"/>
<path d="M148.878 103.493C151.291 103.308 151.618 126.511 151.618 126.511C151.618 126.511 150.041 127.281 149.271 127.093C148.502 126.905 148.136 123.768 148.136 123.768L148.028 127.051C148.028 127.051 145.389 127.131 144.476 126.445C144.476 126.445 145.065 103.778 148.878 103.493Z" fill="#F89F93"/>
<path d="M131.119 46.6482C131.119 46.6482 133.652 60.4385 130.635 60.547C127.618 60.6556 121.061 55.16 109.214 57.4247C97.368 59.6894 83.0329 64.004 72.4931 48.4168C61.9534 32.8296 81.6079 25.9389 81.6079 25.9389L131.12 46.6615L131.119 46.6482Z" fill="#152946"/>
<path d="M100.835 50.456L167.701 53.9762L169 50.9678C143.483 33.2678 129.176 23.3441 103.659 5.64414L38.8402 1.13789e-05L37.6773 2.69151L100.835 50.456Z" fill="#4285FA"/>
<path d="M149.75 101.787L150.098 54.4642C150.339 52.3572 150.005 50.2244 149.132 48.2916C148.259 46.3589 146.88 44.6983 145.14 43.4858L116.105 23.2909C115.954 23.1836 115.783 23.1075 115.603 23.0669C115.422 23.0263 115.235 23.0221 115.053 23.0545C114.871 23.0869 114.697 23.1553 114.542 23.2557C114.386 23.3561 114.252 23.4864 114.148 23.6391C114.094 23.7147 114.056 23.8002 114.036 23.8906C114.016 23.981 114.015 24.0745 114.031 24.1656C114.048 24.2567 114.082 24.3436 114.133 24.4212C114.183 24.4988 114.249 24.5655 114.325 24.6175L145.144 46.0416C146.307 46.85 147.23 47.9588 147.814 49.2501C148.398 50.5413 148.62 51.9666 148.458 53.3744L148.054 102.333L149.75 101.787Z" fill="#F89F93"/>
<path fill-rule="evenodd" clip-rule="evenodd" d="M119.089 80.4324C120.565 81.8947 120.565 84.2657 119.089 85.7281L82.0377 122.426C80.5613 123.888 78.1675 123.888 76.691 122.426L57.0314 102.954C55.5549 101.491 55.5549 99.1201 57.0314 97.6578C58.5078 96.1954 60.9017 96.1954 62.3781 97.6578L79.3644 114.482L113.742 80.4324C115.218 78.97 117.612 78.97 119.089 80.4324Z" fill="#8DE2EF"/>
</svg>
