<svg width="20" height="4" viewBox="0 0 20 4" fill="none" xmlns="http://www.w3.org/2000/svg">
<path d="M2 4C0.896494 4 0 3.10313 0 2.00083C0 0.898538 0.896494 0 2 0C3.10351 0 4 0.898538 4 2.00083C4 3.10313 3.10351 4 2 4Z" fill="#152946"/>
<path d="M10 4C8.89649 4 8 3.10313 8 2.00083C8 0.898538 8.89649 0 10 0C11.1035 0 12 0.898538 12 2.00083C12 3.10313 11.1035 4 10 4Z" fill="#152946"/>
<path d="M18 4C16.8965 4 16 3.10313 16 2.00083C16 0.898538 16.8965 0 18 0C19.1035 0 20 0.898538 20 2.00083C20 3.10313 19.1035 4 18 4Z" fill="#152946"/>
</svg>
