<svg width="19" height="35" viewBox="0 0 19 35" fill="none" xmlns="http://www.w3.org/2000/svg">
<path d="M18.6732 35.0001C18.6194 35 18.5667 34.9852 18.5208 34.9571C18.4749 34.9291 18.4376 34.8889 18.413 34.841C18.2648 34.5591 3.72514 6.5857 0.0423343 0.445274C0.0224004 0.412288 0.00912738 0.375697 0.00333401 0.337593C-0.00245935 0.29949 -0.000689179 0.260627 0.00853993 0.223207C0.017769 0.185787 0.0343113 0.150547 0.0571579 0.119508C0.0800044 0.0884679 0.108702 0.062235 0.141688 0.0423012C0.174674 0.0223673 0.211276 0.00912738 0.24938 0.00333401C0.287483 -0.00245935 0.326358 -0.000689179 0.363777 0.00853993C0.401197 0.017769 0.436415 0.0342782 0.467455 0.0571248C0.498494 0.0799713 0.524771 0.108702 0.544705 0.141688C4.23836 6.28573 18.7888 34.2881 18.9334 34.57C18.9693 34.6391 18.9765 34.7196 18.9535 34.794C18.9305 34.8683 18.8791 34.9307 18.8105 34.9675C18.7679 34.9889 18.7209 35 18.6732 35.0001Z" fill="#292F44"/>
</svg>
