<svg width="57" height="32" viewBox="0 0 57 32" fill="none" xmlns="http://www.w3.org/2000/svg">
<path d="M1.51589 30.9475C0.632832 30.8087 -0.136264 28.1524 0.020407 26.9987C0.291021 24.9549 2.6945 24.054 2.47018 22.7081C2.11411 20.6678 3.2856 18.8269 5.60006 18.0791C7.91452 17.3314 9.44917 18.3284 10.4355 17.1249C11.6604 15.6294 13.0206 15.4228 14.1778 16.8542C15.157 18.0613 16.6311 16.8542 17.6495 16.4448C18.6679 16.0353 21.2601 17.7373 21.2601 17.7373C21.665 17.0319 21.9168 16.2491 21.999 15.4398C22.0812 14.6306 21.992 13.8132 21.7372 13.0407C21.1888 11.4491 21.9437 7.69966 24.3899 7.38987C27.5233 6.98395 27.5945 5.21428 28.4064 3.85053C29.2182 2.48677 31.611 1.46841 33.3095 2.35503C35.008 3.24165 36.1011 4.05705 38.209 3.71522C40.317 3.37339 40.933 0.446488 43.0445 0.108221C45.156 -0.230047 46.3809 0.243528 47.6734 1.26545C48.9659 2.28738 48.795 5.0861 50.6003 4.47009C52.5729 3.79 55.4322 6.10445 54.3462 8.1483C53.2601 10.1921 55.3645 10.3951 56.3864 11.4847C57.4084 12.5743 57.2054 14.8852 55.3645 15.9747C53.6269 17.0074 53.4596 17.0643 53.5272 18.8233C53.5949 20.5823 50.3724 22.6796 48.763 21.0701C46.9826 19.2898 44.1341 21.0025 43.5216 22.911C42.9519 24.6914 38.7182 24.8338 37.326 22.6368C36.0334 20.593 34.1213 20.4577 32.2199 21.6149C30.5748 22.6155 29.4283 23.3169 27.7263 20.9348C26.7293 19.5355 24.3223 19.9805 23.5745 21.0701C22.8268 22.1597 22.6202 22.911 23.5068 23.7941C24.3935 24.6771 25.6148 26.4504 25.6824 27.9459C25.7501 29.4414 22.4778 31.7594 22.4778 31.7594C22.4778 31.7594 21.933 29.0354 21.2529 27.7429C20.7046 26.7067 19.1414 23.3169 16.7593 22.4339C14.7048 21.6683 11.5856 20.9348 8.31684 22.0244C4.40006 23.3347 3.07549 25.6314 2.46305 27.1305C2.02475 28.3692 1.70754 29.6476 1.51589 30.9475Z" fill="#292F44"/>
</svg>
