<svg width="4" height="4" viewBox="0 0 4 4" fill="none" xmlns="http://www.w3.org/2000/svg">
<path d="M0.300026 3.33749C0.244822 3.33801 0.190559 3.32316 0.14333 3.29458C0.0961014 3.26599 0.0577402 3.22479 0.0325952 3.17564C0.00745028 3.1265 -0.00348142 3.07133 0.000969446 3.0163C0.00542031 2.96128 0.0250982 2.90858 0.0578152 2.86411C1.02661 1.53202 2.55684 0.295338 3.62105 0.0127739C3.65887 0.00115274 3.69868 -0.00258977 3.73801 0.00175419C3.77734 0.00609815 3.81539 0.018443 3.84977 0.0380387C3.88415 0.0576345 3.91415 0.0840627 3.93793 0.115692C3.96171 0.147322 3.97874 0.183479 3.98801 0.221948C3.99864 0.259536 4.00178 0.298863 3.9972 0.337655C3.99262 0.376447 3.9804 0.41395 3.96131 0.448032C3.94223 0.482113 3.9166 0.512082 3.88592 0.536257C3.85524 0.560432 3.82013 0.578331 3.78253 0.588914C2.9642 0.812764 1.52933 1.85496 0.545865 3.21273C0.517791 3.25162 0.480855 3.28322 0.438086 3.30492C0.395318 3.32663 0.347985 3.33779 0.300026 3.33749Z" fill="white"/>
</svg>
