<svg width="16" height="16" viewBox="0 0 16 16" fill="none" xmlns="http://www.w3.org/2000/svg">
<path d="M3.66801 6.6665C3.11594 6.66732 2.6687 7.16435 2.66797 7.77765V12.222C2.66797 12.8357 3.11567 13.3332 3.66801 13.3332C4.22027 13.3332 4.66797 12.8357 4.66797 12.222V7.77765C4.66733 7.16435 4.21999 6.66732 3.66801 6.6665Z" fill="#4285FA"/>
<path d="M12.9907 6.75331C12.7118 6.41629 12.2988 6.22163 11.8634 6.22206H10.1326C10.3984 5.12484 10.267 4.02121 9.77093 3.32742C9.50176 2.92063 9.05116 2.67356 8.56611 2.6665C7.87993 2.6665 7.87993 3.30713 7.87993 3.77469C7.87993 4.69656 7.68408 6.22206 5.5548 6.8233C5.42473 6.85769 5.33343 6.97542 5.33203 7.11095V11.8535C5.333 12.6703 5.98979 13.3322 6.80032 13.3332H11.1145C11.8241 13.3332 12.432 12.8218 12.5588 12.1183L13.3082 7.9662C13.3864 7.53445 13.2701 7.09001 12.9907 6.75331Z" fill="#4285FA"/>
</svg>
