<svg width="6" height="2" viewBox="0 0 6 2" fill="none" xmlns="http://www.w3.org/2000/svg">
<path d="M0.677032 1.87651C0.521347 1.87435 0.371008 1.81933 0.250706 1.72048C0.130405 1.62164 0.0472809 1.48484 0.0149583 1.33253C-0.0173643 1.18022 0.0030409 1.02145 0.0728284 0.882268C0.142616 0.743084 0.257633 0.63175 0.399019 0.566541C1.23013 0.19309 2.13096 0 3.04212 0C3.95328 0 4.85409 0.19309 5.6852 0.566541C5.82686 0.657398 5.93024 0.797126 5.97566 0.959176C6.02107 1.12123 6.00537 1.29431 5.93156 1.44556C5.85776 1.5968 5.73098 1.71567 5.57529 1.77959C5.41961 1.84351 5.24588 1.84802 5.08709 1.79226C4.43662 1.50058 3.73183 1.34979 3.01896 1.34979C2.30609 1.34979 1.60127 1.50058 0.950803 1.79226C0.866147 1.8385 0.773037 1.86716 0.677032 1.87651Z" fill="#292F44"/>
</svg>
