<svg width="24" height="21" viewBox="0 0 24 21" fill="none" xmlns="http://www.w3.org/2000/svg">
<path fill-rule="evenodd" clip-rule="evenodd" d="M18.0133 3.7758C18.06 3.85738 18.1417 3.91565 18.2467 3.91565C21.0467 3.91565 23.3333 6.19978 23.3333 8.99667V15.919C23.3333 18.7159 21.0467 21 18.2467 21H5.08667C2.275 21 0 18.7159 0 15.919V8.99667C0 6.19978 2.275 3.91565 5.08667 3.91565C5.18 3.91565 5.27333 3.86903 5.30833 3.7758L5.37833 3.63596C5.41855 3.55131 5.45983 3.46436 5.50174 3.37609C5.8002 2.74743 6.13039 2.05193 6.335 1.64317C6.87167 0.59434 7.78167 0.0116537 8.91333 0H14.4083C15.54 0.0116537 16.4617 0.59434 16.9983 1.64317C17.1821 2.0103 17.4621 2.6017 17.7319 3.17168C17.7876 3.28922 17.8428 3.40586 17.8967 3.51942L18.0133 3.7758ZM17.1617 8.25083C17.1617 8.83352 17.6283 9.29967 18.2117 9.29967C18.795 9.29967 19.2733 8.83352 19.2733 8.25083C19.2733 7.66815 18.795 7.19034 18.2117 7.19034C17.6283 7.19034 17.1617 7.66815 17.1617 8.25083ZM9.64833 10.0572C10.1967 9.50943 10.9083 9.21809 11.6667 9.21809C12.425 9.21809 13.1367 9.50943 13.6733 10.0455C14.21 10.5816 14.5017 11.2925 14.5017 12.0499C14.49 13.6115 13.23 14.8818 11.6667 14.8818C10.9083 14.8818 10.1967 14.5905 9.66 14.0544C9.12333 13.5183 8.83167 12.8074 8.83167 12.0499V12.0383C8.82 11.3041 9.11167 10.5932 9.64833 10.0572ZM14.8983 15.2897C14.07 16.1171 12.9267 16.6299 11.6667 16.6299C10.4417 16.6299 9.29833 16.1521 8.42333 15.2897C7.56 14.4156 7.08167 13.2736 7.08167 12.0499C7.07 10.838 7.54833 9.69589 8.41167 8.82187C9.28667 7.94784 10.4417 7.47003 11.6667 7.47003C12.8917 7.47003 14.0467 7.94784 14.91 8.81021C15.7733 9.68424 16.2517 10.838 16.2517 12.0499C16.24 13.3202 15.7267 14.4623 14.8983 15.2897Z" fill="#F8F9FA"/>
</svg>
