<svg width="27" height="28" viewBox="0 0 27 28" fill="none" xmlns="http://www.w3.org/2000/svg">
<path d="M17.516 14.117C17.3902 15.1446 16.9281 16.124 16.1668 16.8853C15.2415 17.8112 13.9481 18.247 12.3239 18.1814C11.1848 18.136 10.6587 18.4341 10.5722 18.4882C10.2233 18.7939 9.78037 18.9612 9.31279 18.9612C8.80146 18.9612 8.32075 18.7622 7.95927 18.4007C7.33528 17.7767 7.23465 16.8142 7.66067 16.0808L7.96637 15.5963C8.07028 15.3431 8.21083 14.8433 8.17802 14.0355C8.11294 12.4107 8.5488 11.1179 9.47412 10.1926C10.2321 9.43518 11.2012 8.96595 12.249 8.84072C12.3972 8.12814 12.7182 7.46149 13.1814 6.90149H2.19025C0.98274 6.90149 0 7.88368 0 9.09119V19.9516H22.8486V9.16775L20.0721 12.5704C19.4191 13.3683 18.5124 13.9114 17.516 14.117Z" fill="#F8F9FA"/>
<path d="M5.47099e-05 22.2923C5.47099e-05 23.4993 0.982795 24.4814 2.1903 24.4814H8.41481V26.3594H7.03515C6.58212 26.3594 6.21483 26.7267 6.21483 27.1797C6.21483 27.6328 6.58212 28.0001 7.03515 28.0001H15.8133C16.2663 28.0001 16.6336 27.6328 16.6336 27.1797C16.6336 26.7267 16.2663 26.3594 15.8133 26.3594H14.4336V24.4814H20.6583C21.8658 24.4814 22.8486 23.4993 22.8486 22.2923V21.5923H0V22.2923H5.47099e-05Z" fill="#F8F9FA"/>
<path d="M9.13827 16.8348C9.13811 16.8349 9.13795 16.8351 9.13784 16.8352C9.13773 16.8353 9.13767 16.8353 9.13762 16.8354L9.1374 16.8357C9.13729 16.8357 9.13724 16.8358 9.13713 16.8359C9.13707 16.8361 9.13702 16.8361 9.13685 16.8362L9.1368 16.8363C9.13674 16.8364 9.13663 16.8364 9.13652 16.8365C9.13652 16.8365 9.13652 16.8365 9.13647 16.8366C9.13642 16.8366 9.13631 16.8368 9.13625 16.8369C9.13625 16.8369 9.13625 16.8369 9.1362 16.8369C9.13609 16.837 9.13603 16.8371 9.13592 16.8372C9.13592 16.8372 9.13592 16.8372 9.13587 16.8372L9.13559 16.8375C9.03191 16.9445 9.03295 17.1153 9.13866 17.2211C9.19209 17.2745 9.26203 17.3012 9.33203 17.3012C9.40138 17.3012 9.47072 17.275 9.52393 17.2225C9.54066 17.2067 10.369 16.4409 12.4096 16.5229C13.5577 16.5692 14.4379 16.2941 15.0262 15.7059C16.2317 14.5004 16.2317 12.539 15.0262 11.3335C14.4423 10.7496 13.6659 10.428 12.84 10.428C12.0142 10.428 11.2378 10.7495 10.6538 11.3335C10.0656 11.9218 9.7907 12.8021 9.83685 13.9501C9.91932 16.0018 9.14489 16.8279 9.13866 16.8344C9.13844 16.8346 9.13838 16.8347 9.13827 16.8348Z" fill="#F8F9FA"/>
<path d="M17.4457 12.4304C17.9805 12.2702 18.4623 11.953 18.8216 11.5138L19.8698 10.2293L16.1359 6.49548L14.8568 7.54023C14.4166 7.89898 14.0983 8.38023 13.9375 8.91508C14.783 9.11359 15.5584 9.54398 16.1879 10.1734C16.8321 10.8177 17.2516 11.6024 17.4457 12.4304Z" fill="#F8F9FA"/>
<path d="M25.8703 0.492585C25.2594 -0.118275 24.2936 -0.166947 23.6243 0.379928L17.4141 5.45236L20.9134 8.95165L25.9835 2.73811C26.5298 2.06923 26.4811 1.10344 25.8703 0.492585Z" fill="#F8F9FA"/>
</svg>
