<svg width="3" height="4" viewBox="0 0 3 4" fill="none" xmlns="http://www.w3.org/2000/svg">
<path d="M2.69169 3.59039C2.63866 3.59104 2.58632 3.57824 2.53958 3.55318C2.49283 3.52811 2.45322 3.4916 2.42441 3.44707C1.74996 2.4037 0.971219 1.43158 0.100201 0.545683C0.069933 0.517451 0.0455323 0.483529 0.028373 0.445862C0.0112136 0.408196 0.00162923 0.367524 0.000190404 0.326158C-0.00124842 0.284791 0.00547886 0.243542 0.0199797 0.204774C0.0344805 0.166006 0.0564816 0.130468 0.0847144 0.100201C0.112947 0.069933 0.146869 0.0455323 0.184535 0.028373C0.222202 0.0112136 0.262874 0.00162922 0.30424 0.000190402C0.345606 -0.00124841 0.386856 0.00547885 0.425624 0.0199797C0.464392 0.0344805 0.499906 0.0564816 0.530174 0.0847144C1.43745 1.00727 2.24863 2.01962 2.95122 3.10618C2.98187 3.15355 2.99918 3.20833 3.00132 3.26471C3.00347 3.32109 2.99039 3.377 2.96342 3.42657C2.93646 3.47613 2.89662 3.51751 2.84812 3.54634C2.79962 3.57518 2.74424 3.59039 2.68782 3.59039H2.69169Z" fill="white"/>
</svg>
