<svg width="25" height="15" viewBox="0 0 25 15" fill="none" xmlns="http://www.w3.org/2000/svg">
<path d="M24.709 14.5591C24.6493 14.5589 24.591 14.5399 24.5426 14.5048C19.9739 11.3686 0.350096 0.661402 0.154762 0.552883C0.120726 0.534668 0.0906199 0.50991 0.0661836 0.480025C0.0417474 0.45014 0.0234494 0.415727 0.0123568 0.378752C0.00126419 0.341777 -0.0024122 0.302964 0.00153845 0.264563C0.00548909 0.226162 0.0169738 0.188931 0.0353624 0.154989C0.0728591 0.0859969 0.136192 0.0346735 0.211459 0.0122968C0.286726 -0.01008 0.36778 -0.00169018 0.436878 0.0356114C0.632212 0.144131 20.2814 10.8875 24.8754 14.0201C24.9391 14.0647 24.9828 14.1325 24.997 14.209C25.0112 14.2854 24.9948 14.3644 24.9514 14.4289C24.9243 14.4683 24.8882 14.5007 24.846 14.5234C24.8038 14.546 24.7569 14.5583 24.709 14.5591Z" fill="#100C27"/>
</svg>
