<svg width="2" height="5" viewBox="0 0 2 5" fill="none" xmlns="http://www.w3.org/2000/svg">
<path d="M0.295498 5.00017H0.234729C0.195832 4.99265 0.158857 4.97724 0.126155 4.95488C0.0934525 4.93252 0.0657219 4.90368 0.0446047 4.87016C0.0234874 4.83664 0.00944403 4.79915 0.00339299 4.75999C-0.00265805 4.72084 -0.000595046 4.68087 0.00941758 4.64254C0.320417 3.13786 0.718037 1.6524 1.20032 0.193572C1.213 0.157643 1.23266 0.12458 1.25812 0.0962394C1.28359 0.0678986 1.31438 0.0448359 1.34875 0.0283972C1.38313 0.0119586 1.42037 0.0024473 1.45842 0.000413452C1.49647 -0.00162039 1.53456 0.00386393 1.57049 0.0165445C1.60641 0.0292251 1.6395 0.0488593 1.66784 0.0743239C1.69618 0.0997884 1.7192 0.130583 1.73564 0.164955C1.75208 0.199326 1.76159 0.236595 1.76362 0.274642C1.76566 0.312688 1.76019 0.350779 1.74751 0.386708C1.27782 1.82212 0.8874 3.28227 0.578043 4.76056C0.565711 4.82691 0.530892 4.88697 0.479423 4.93063C0.427954 4.97428 0.362972 4.99884 0.295498 5.00017Z" fill="white"/>
</svg>
