<svg width="11" height="7" viewBox="0 0 11 7" fill="none" xmlns="http://www.w3.org/2000/svg">
<path d="M10.6839 6.8572C10.6457 6.85492 10.6083 6.8451 10.5738 6.82832C10.5394 6.81154 10.5086 6.78811 10.4832 6.7594C10.4578 6.73069 10.4384 6.69725 10.426 6.661C10.4136 6.62475 10.4084 6.58641 10.4108 6.54817C10.4476 5.46867 10.2793 4.392 9.91495 3.37519C9.44062 2.19296 8.24401 1.04667 7.79842 0.651393C5.01353 2.59183 2.27178 1.84081 0.180416 0.960421C0.144977 0.945852 0.112764 0.924424 0.0856242 0.897376C0.0584841 0.870328 0.0369292 0.838192 0.0222395 0.802803C0.00754973 0.767414 -7.69748e-06 0.729473 5.88314e-09 0.691156C7.70925e-06 0.65284 0.00757937 0.614903 0.0222833 0.57952C0.0524507 0.507689 0.109852 0.450733 0.181908 0.421102C0.253963 0.391472 0.33483 0.391579 0.406803 0.42141C2.40114 1.26227 5.02793 1.98095 7.64393 0.0620688C7.69519 0.0218532 7.75845 0 7.8236 0C7.88875 0 7.95202 0.0218532 8.00327 0.0620688C8.07514 0.123157 9.79996 1.57131 10.4576 3.16678C10.8574 4.26252 11.0392 5.42581 10.993 6.5913C10.9865 6.66726 10.9506 6.73767 10.8928 6.78739C10.835 6.83712 10.76 6.86218 10.6839 6.8572Z" fill="#292F44"/>
</svg>
