<svg width="31" height="43" viewBox="0 0 31 43" fill="none" xmlns="http://www.w3.org/2000/svg">
<path d="M3.06135 5.34814C2.32886 6.86974 1.94315 11.7424 2.14839 15.6101C2.35363 19.4777 3.16044 23.3242 3.97431 24.6441L2.45272 32.0504C2.26261 31.9697 2.05753 31.9304 1.85107 31.935C1.64462 31.9396 1.44149 31.9879 1.25515 32.0769C1.0688 32.1659 0.903502 32.2935 0.770165 32.4512C0.636829 32.6089 0.53851 32.7931 0.481726 32.9916C-0.119835 35.0759 -0.657714 38.7206 2.14839 40.4758C6.20715 43.0129 9.73513 43.2111 13.1393 42.8749C16.5434 42.5387 17.8774 41.4595 19.1549 40.7128C19.5675 40.4729 19.9226 40.1456 20.1952 39.7539C20.4046 39.4543 20.5085 39.0935 20.4905 38.7284C20.4726 38.3633 20.3339 38.0146 20.0961 37.7369C19.7812 37.383 19.4981 36.739 19.5937 35.7057C19.7989 33.5826 20.8109 24.6441 20.8109 24.6441C20.8109 24.6441 22.7395 21.5974 23.249 19.8741C23.249 19.8741 26.3948 21.0913 28.8294 18.7559C31.2639 16.4204 30.8605 12.5669 28.8294 11.1444C26.7982 9.72184 23.3481 10.6383 23.3481 10.6383C23.3481 10.6383 22.0813 6.53004 21.37 3.48331C20.8605 1.29646 14.6219 -0.409145 10.5632 0.0862578C6.50441 0.581661 4.27863 2.81097 3.06135 5.34814Z" fill="#FFCEC1"/>
</svg>
