<svg width="4" height="4" viewBox="0 0 4 4" fill="none" xmlns="http://www.w3.org/2000/svg">
<path d="M0.325715 3.8863C0.262599 3.88652 0.200823 3.86826 0.147964 3.83377C0.0759451 3.78592 0.0254685 3.71179 0.0073507 3.62724C-0.010767 3.54269 0.00491392 3.45442 0.0509994 3.38126C0.547961 2.60551 2.07116 0.763102 3.52568 0.0318011C3.60417 -0.00505474 3.69387 -0.0100792 3.77598 0.017794C3.8581 0.0456672 3.92623 0.104269 3.96606 0.181292C4.00398 0.259622 4.00957 0.349731 3.9816 0.432136C3.95363 0.514541 3.89434 0.582636 3.81657 0.621699C2.47922 1.28431 1.04896 3.04589 0.604524 3.73678C0.574205 3.78297 0.532823 3.82086 0.484132 3.84697C0.435442 3.87308 0.380963 3.8866 0.325715 3.8863Z" fill="white"/>
</svg>
