<svg width="2" height="13" viewBox="0 0 2 13" fill="none" xmlns="http://www.w3.org/2000/svg">
<path d="M0.303622 12.9999H0.244807C0.20449 12.9926 0.166107 12.9771 0.132068 12.9543C0.0980282 12.9315 0.0690601 12.9019 0.0469748 12.8674C0.0248894 12.8329 0.0101584 12.7942 0.00371029 12.7537C-0.0027378 12.7132 -0.000764722 12.6719 0.00949983 12.6322C0.447013 10.3344 0.998496 2.4775 0.693339 0.341407C0.687113 0.302454 0.688781 0.262647 0.698253 0.224354C0.707726 0.186061 0.724806 0.150062 0.748474 0.118504C0.772143 0.086946 0.801927 0.0604748 0.836036 0.0406592C0.870145 0.0208435 0.907886 0.00809132 0.947024 0.00316179C0.985912 -0.00254941 1.02555 -0.000509839 1.06365 0.00917013C1.10174 0.0188501 1.13754 0.0359765 1.16898 0.0595593C1.20042 0.0831422 1.22689 0.112716 1.24685 0.146576C1.26681 0.180436 1.27986 0.217916 1.28526 0.256847C1.61248 2.56574 0.994812 10.6469 0.594064 12.7572C0.581949 12.8254 0.546189 12.8871 0.493061 12.9315C0.439933 12.9759 0.372851 13.0001 0.303622 12.9999Z" fill="#292F44"/>
</svg>
