<svg width="24" height="25" viewBox="0 0 24 25" fill="none" xmlns="http://www.w3.org/2000/svg">
<path d="M18 22.5107C19.6569 22.5107 21 21.1363 21 19.441C21 17.7457 19.6569 16.3714 18 16.3714C16.3431 16.3714 15 17.7457 15 19.441C15 21.1363 16.3431 22.5107 18 22.5107Z" fill="#152946"/>
<path d="M6 15.3482C7.65685 15.3482 9 13.9739 9 12.2786C9 10.5832 7.65685 9.20892 6 9.20892C4.34315 9.20892 3 10.5832 3 12.2786C3 13.9739 4.34315 15.3482 6 15.3482Z" fill="#152946"/>
<path d="M8.58984 13.8236L15.4198 17.896" stroke="#152946" stroke-width="2" stroke-linecap="round" stroke-linejoin="round"/>
<path d="M18 8.18571C19.6569 8.18571 21 6.81139 21 5.11608C21 3.42077 19.6569 2.04645 18 2.04645C16.3431 2.04645 15 3.42077 15 5.11608C15 6.81139 16.3431 8.18571 18 8.18571Z" fill="#152946"/>
<path d="M15.4098 6.66113L8.58984 10.7335" stroke="#152946" stroke-width="2" stroke-linecap="round" stroke-linejoin="round"/>
</svg>
