<svg width="11" height="11" viewBox="0 0 11 11" fill="none" xmlns="http://www.w3.org/2000/svg">
<path d="M5.49998 10.9999C4.41219 10.9999 3.34883 10.6773 2.44436 10.073C1.5399 9.46866 0.834942 8.60968 0.418663 7.60469C0.00238379 6.59971 -0.106535 5.49386 0.105682 4.42697C0.3179 3.36008 0.841726 2.38007 1.61091 1.61089C2.38009 0.841703 3.36008 0.3179 4.42697 0.105682C5.49386 -0.106535 6.59973 0.00238379 7.60472 0.418663C8.6097 0.834942 9.46868 1.53987 10.073 2.44434C10.6774 3.3488 10.9999 4.41217 10.9999 5.49996C10.9979 6.95803 10.4178 8.35581 9.38681 9.38681C8.3558 10.4178 6.95805 10.9979 5.49998 10.9999ZM5.49998 1.23019C4.6555 1.23019 3.82998 1.48062 3.12783 1.94979C2.42567 2.41896 1.8784 3.0858 1.55523 3.866C1.23206 4.6462 1.1475 5.5047 1.31225 6.33295C1.477 7.1612 1.88366 7.92199 2.4808 8.51912C3.07793 9.11626 3.83874 9.52292 4.66699 9.68767C5.49524 9.85242 6.35374 9.76786 7.13394 9.44469C7.91414 9.12152 8.58099 8.57427 9.05015 7.87212C9.51932 7.16996 9.76973 6.34444 9.76973 5.49996C9.76873 4.36786 9.31855 3.2824 8.51804 2.48188C7.71752 1.68136 6.63208 1.23119 5.49998 1.23019Z" fill="#689EFB"/>
</svg>
