<svg width="3" height="5" viewBox="0 0 3 5" fill="none" xmlns="http://www.w3.org/2000/svg">
<path d="M2.2027 4.99977C1.95356 4.99977 0.682549 4.93838 0.202316 4.42926C0.0697798 4.29181 -0.00294373 4.10746 9.13217e-05 3.91654C9.13217e-05 3.49408 0.310623 2.9994 0.682533 2.37834C1.11975 1.70327 1.4692 0.97526 1.72244 0.21188C1.73311 0.174894 1.75097 0.14037 1.77498 0.110283C1.79899 0.0801954 1.82868 0.0551289 1.86238 0.0365202C1.89608 0.0179116 1.93313 0.00612874 1.97138 0.00183177C2.00964 -0.0024652 2.04834 0.000815694 2.08532 0.0114846C2.12231 0.0221535 2.15683 0.0400026 2.18692 0.0640132C2.21701 0.0880237 2.24209 0.117721 2.2607 0.151418C2.27931 0.185114 2.2911 0.222144 2.29539 0.260397C2.29969 0.29865 2.29641 0.337373 2.28574 0.374358C2.02388 1.18169 1.65985 1.95222 1.20251 2.6672C0.92746 3.04714 0.724302 3.47425 0.603106 3.92737C0.602397 3.94393 0.605634 3.96041 0.612539 3.97548C0.619444 3.99054 0.629814 4.00375 0.64282 4.01402C0.873909 4.25956 1.72606 4.3751 2.23157 4.40038C2.304 4.40842 2.37091 4.44288 2.41951 4.49717C2.46812 4.55147 2.49502 4.62179 2.49502 4.69466C2.49502 4.76753 2.46812 4.83784 2.41951 4.89213C2.37091 4.94643 2.304 4.98089 2.23157 4.98893L2.2027 4.99977Z" fill="#292F44"/>
</svg>
