<svg width="21" height="3" viewBox="0 0 21 3" fill="none" xmlns="http://www.w3.org/2000/svg">
<path d="M0.300541 2.80036C0.230812 2.8007 0.163194 2.77659 0.109406 2.73221C0.0556183 2.68784 0.019092 2.62602 0.00617991 2.5575C-0.00181998 2.51904 -0.00206189 2.47936 0.00550611 2.44082C0.0130741 2.40227 0.0282993 2.36563 0.0502464 2.33306C0.0721936 2.30048 0.100425 2.27261 0.133304 2.25112C0.166182 2.22963 0.203049 2.21494 0.241695 2.20791C3.24077 1.62649 16.9224 0 20.7016 0C20.7807 0 20.8565 0.0314035 20.9124 0.087302C20.9683 0.143201 20.9997 0.219014 20.9997 0.298067C20.9997 0.377119 20.9683 0.452933 20.9124 0.508831C20.8565 0.56473 20.7807 0.596133 20.7016 0.596133C16.9482 0.596133 3.3401 2.23367 0.355747 2.80404L0.300541 2.80036Z" fill="#292F44"/>
</svg>
