<svg width="11" height="4" viewBox="0 0 11 4" fill="none" xmlns="http://www.w3.org/2000/svg">
<path d="M0.297789 3.97028C0.218816 3.97028 0.143056 3.9389 0.087214 3.88306C0.0313719 3.82722 0 3.75148 0 3.67251C0 3.59354 0.0313719 3.5178 0.087214 3.46196C0.143056 3.40612 0.218816 3.37474 0.297789 3.37474C2.32334 3.37474 10.5027 0.0662223 10.591 0.0221087C10.6271 0.00723193 10.6659 -0.000277968 10.705 7.86267e-06C10.7441 0.000293694 10.7827 0.00836522 10.8187 0.023769C10.8546 0.0391728 10.8871 0.0615936 10.9143 0.0897124C10.9415 0.117831 10.9628 0.151092 10.977 0.187539C11.0063 0.26074 11.0059 0.342541 10.9756 0.415391C10.9454 0.48824 10.8878 0.546333 10.8152 0.577209C10.4697 0.713226 2.4373 3.97028 0.297789 3.97028Z" fill="#292F44"/>
</svg>
