<svg width="26" height="1" viewBox="0 0 26 1" fill="none" xmlns="http://www.w3.org/2000/svg">
<path d="M0.298766 0.85051C0.222417 0.853338 0.148071 0.82573 0.0920847 0.773742C0.0360981 0.721755 0.00302526 0.649658 0.000197515 0.573308C-0.00263023 0.496959 0.0249996 0.422614 0.0769871 0.366627C0.128975 0.310641 0.201072 0.27759 0.277421 0.274762C8.17088 -0.290326 22.8561 0.175249 25.7206 0.274762C25.7973 0.277545 25.8698 0.310455 25.9223 0.366345C25.9749 0.422236 26.0033 0.496608 26.0014 0.573308C25.9968 0.649041 25.9633 0.720099 25.9077 0.771725C25.8521 0.82335 25.7787 0.851562 25.7028 0.85051C22.8596 0.750998 8.1851 0.288976 0.320067 0.85051H0.298766Z" fill="#292F44"/>
</svg>
