<svg width="7" height="6" viewBox="0 0 7 6" fill="none" xmlns="http://www.w3.org/2000/svg">
<path d="M6.65055 5.99993C6.56987 5.99856 6.49243 5.96812 6.43239 5.91421C6.40123 5.88304 3.49865 3.13632 0.12468 0.572728C0.0914233 0.547146 0.0635277 0.515279 0.0425926 0.478917C0.0216575 0.442556 0.00811727 0.402433 0.00269055 0.360828C-0.00273616 0.319223 5.79982e-05 0.276952 0.0109658 0.236437C0.0218737 0.195923 0.0406477 0.157954 0.0662295 0.124697C0.0918113 0.091441 0.123702 0.0635454 0.160064 0.0426103C0.196425 0.0216752 0.236548 0.00811119 0.278153 0.00268448C0.319758 -0.00274223 0.362053 7.57037e-05 0.402567 0.0109835C0.443082 0.0218914 0.481027 0.0406654 0.514284 0.0662472C3.91553 2.65711 6.84148 5.42721 6.87265 5.45448C6.93142 5.51423 6.96434 5.59469 6.96434 5.67851C6.96434 5.76232 6.93142 5.84278 6.87265 5.90253C6.8136 5.96191 6.73422 5.99671 6.65055 5.99993Z" fill="white"/>
</svg>
