<svg width="6" height="6" viewBox="0 0 6 6" fill="none" xmlns="http://www.w3.org/2000/svg">
<path d="M3.00014 6.00024C2.40677 6.00024 1.82673 5.82429 1.33337 5.49463C0.84 5.16497 0.455444 4.69642 0.228372 4.14822C0.00129954 3.60002 -0.0581123 2.99679 0.0576479 2.41483C0.173408 1.83286 0.459157 1.29829 0.878732 0.878719C1.29831 0.459145 1.83288 0.173408 2.41485 0.0576479C2.99681 -0.0581123 3.60002 0.00129954 4.14822 0.228372C4.69642 0.455444 5.16498 0.839975 5.49464 1.33334C5.82429 1.82671 6.00024 2.40675 6.00024 3.00012C5.99917 3.79547 5.68276 4.55794 5.12036 5.12034C4.55796 5.68274 3.79549 5.99917 3.00014 6.00024ZM3.00014 1.32347C2.66755 1.32347 2.34245 1.42214 2.06597 1.607C1.78949 1.79186 1.57407 2.05459 1.44698 2.36194C1.31989 2.66929 1.28684 3.00743 1.35203 3.33357C1.41721 3.65971 1.57767 3.95917 1.81313 4.19406C2.04859 4.42895 2.34845 4.58871 2.67475 4.6531C3.00104 4.71749 3.3391 4.68363 3.64614 4.55579C3.95318 4.42796 4.21539 4.21191 4.39958 3.93498C4.58377 3.65805 4.68164 3.33271 4.68084 3.00012C4.68084 2.7796 4.63735 2.56124 4.55283 2.35755C4.46832 2.15387 4.34446 1.96885 4.18834 1.81311C4.03222 1.65736 3.84691 1.53395 3.64302 1.44992C3.43913 1.3659 3.22066 1.32293 3.00014 1.32347Z" fill="#689EFB"/>
</svg>
