<svg width="4" height="4" viewBox="0 0 4 4" fill="none" xmlns="http://www.w3.org/2000/svg">
<path d="M1.99999 4.00005C1.60443 4.00005 1.21776 3.88275 0.888857 3.66299C0.559954 3.44322 0.303621 3.13085 0.152244 2.7654C0.000866849 2.39994 -0.0387407 1.99781 0.0384308 1.60984C0.115602 1.22188 0.306059 0.865502 0.585767 0.585793C0.865476 0.306084 1.22186 0.115602 1.60983 0.0384308C1.9978 -0.0387407 2.39995 0.000866849 2.76541 0.152244C3.13087 0.303621 3.44319 0.559967 3.66296 0.888869C3.88273 1.21777 4.00001 1.60445 4.00001 2.00002C4.00001 2.53046 3.7893 3.03917 3.41422 3.41425C3.03914 3.78933 2.53044 4.00005 1.99999 4.00005ZM1.99999 0.689219C1.73973 0.68922 1.4853 0.766457 1.26896 0.911142C1.05261 1.05583 0.884101 1.26145 0.784695 1.50199C0.68529 1.74253 0.65949 2.00715 0.710575 2.26236C0.761659 2.51756 0.887296 2.75187 1.07163 2.93561C1.25596 3.11935 1.49068 3.24426 1.74604 3.29452C2.00141 3.34479 2.26598 3.31815 2.50619 3.21797C2.74641 3.11779 2.95151 2.94857 3.09549 2.73176C3.23948 2.51494 3.31585 2.26029 3.31502 2.00002C3.31502 1.82753 3.28097 1.65673 3.21483 1.49742C3.14869 1.33811 3.05177 1.19343 2.9296 1.07165C2.80743 0.94988 2.66246 0.853404 2.50294 0.787779C2.34342 0.722155 2.17249 0.688662 1.99999 0.689219Z" fill="#292F44"/>
</svg>
