<svg width="16" height="20" viewBox="0 0 16 20" fill="none" xmlns="http://www.w3.org/2000/svg">
<path fill-rule="evenodd" clip-rule="evenodd" d="M4.89976 0H11.0695C13.7793 0 15.9692 1.06995 15.9992 3.78981V18.9691C15.9992 19.1391 15.9592 19.3091 15.8792 19.459C15.7492 19.699 15.5292 19.879 15.2593 19.959C14.9993 20.039 14.7093 19.999 14.4693 19.859L7.98961 16.6192L1.49993 19.859C1.35093 19.938 1.17994 19.989 1.00995 19.989C0.449978 19.989 0 19.529 0 18.9691V3.78981C0 1.06995 2.19989 0 4.89976 0ZM4.21979 7.61963H11.7494C12.1794 7.61963 12.5294 7.26865 12.5294 6.82967C12.5294 6.38969 12.1794 6.03971 11.7494 6.03971H4.21979C3.78981 6.03971 3.43983 6.38969 3.43983 6.82967C3.43983 7.26865 3.78981 7.61963 4.21979 7.61963Z" fill="#CED3DB"/>
</svg>
