<svg width="24" height="24" viewBox="0 0 24 24" fill="none" xmlns="http://www.w3.org/2000/svg">
<mask id="mask0_443_9783" style="mask-type:alpha" maskUnits="userSpaceOnUse" x="2" y="5" width="20" height="13">
<path fill-rule="evenodd" clip-rule="evenodd" d="M2.9995 6.99986C2.9995 7.54984 3.44949 7.99984 3.99948 7.99984H19.9992C20.5492 7.99984 20.9992 7.54984 20.9992 6.99986C20.9992 6.44987 20.5492 5.99987 19.9992 5.99987H3.99948C3.44949 5.99987 2.9995 6.44987 2.9995 6.99986ZM11.0008 17.9996H13.0007C13.5507 17.9996 14.0007 17.5496 14.0007 16.9996C14.0007 16.4496 13.5507 15.9996 13.0007 15.9996H11.0008C10.4508 15.9996 10.0008 16.4496 10.0008 16.9996C10.0008 17.5496 10.4508 17.9996 11.0008 17.9996ZM16.9992 12.9998H6.99942C6.44943 12.9998 5.99944 12.5498 5.99944 11.9998C5.99944 11.4498 6.44943 10.9998 6.99942 10.9998H16.9992C17.5492 10.9998 17.9992 11.4498 17.9992 11.9998C17.9992 12.5498 17.5492 12.9998 16.9992 12.9998Z" fill="black"/>
</mask>
<g mask="url(#mask0_443_9783)">
<rect width="23.9996" height="23.9996" fill="#5F5CF0"/>
</g>
</svg>
