<svg width="101" height="38" viewBox="0 0 101 38" fill="none" xmlns="http://www.w3.org/2000/svg">
<path d="M88.0582 3.38458L54.2756 11.8974L24.684 10.2789C24.684 10.2789 25.0904 5.00656 21.1715 3.25029C17.2525 1.49402 11.171 -0.802904 8.73975 0.278422C6.30854 1.35975 5.91276 3.10542 6.71139 5.00658C7.51001 6.90773 13.1993 7.3035 12.9272 10.0068C12.9272 10.0068 9.54898 10.1411 7.38986 9.33188C7.38986 7.50846 5.16007 6.50487 3.14937 8.01377C1.78181 9.03856 0.95491 13.3144 3.65469 15.2085C3.65469 15.2085 0.311765 14.1943 0.00786319 18.6539C-0.19356 21.6222 3.54161 23.1135 3.54161 23.1135C3.54161 23.1135 0.940772 22.5057 0.802956 25.7496C0.66514 28.9936 3.60875 30.5449 7.93405 31.8984C12.2594 33.2518 31.5783 37.5736 46.0384 37.4357C60.4985 37.2979 67.9265 36.3544 77.5206 34.1953C87.1147 32.0362 97.6629 28.5201 97.6629 28.5201C97.6629 28.5201 102.932 25.2761 100.228 14.06C97.5251 2.84392 88.0582 3.38458 88.0582 3.38458Z" fill="#FFCEC1"/>
</svg>
