<svg width="2" height="5" viewBox="0 0 2 5" fill="none" xmlns="http://www.w3.org/2000/svg">
<path d="M0.336904 5.00018H0.263381C0.219587 4.99058 0.178122 4.9723 0.141523 4.94641C0.104924 4.92051 0.0739156 4.88752 0.0502917 4.84941C0.0266678 4.81131 0.010921 4.76886 0.00400269 4.72456C-0.0029156 4.68027 -0.000841708 4.63505 0.0100382 4.59156C0.339332 3.11172 0.748552 1.6508 1.2359 0.215228C1.2655 0.135939 1.3243 0.0710037 1.4003 0.0337636C1.4763 -0.00347652 1.56372 -0.0101879 1.64452 0.0150086C1.72444 0.0437625 1.79001 0.102496 1.82738 0.178766C1.86475 0.255035 1.87099 0.342853 1.84474 0.423628C1.35861 1.83328 0.949386 3.26829 0.618878 4.72232C0.608099 4.79283 0.574812 4.85795 0.524005 4.90802C0.473199 4.95809 0.407567 4.99043 0.336904 5.00018Z" fill="white"/>
</svg>
