<svg width="335" height="276" viewBox="0 0 335 276" fill="none" xmlns="http://www.w3.org/2000/svg">
<path d="M301.143 179.091L98.2802 177.012C93.9369 176.967 90.4424 173.809 90.4424 169.93V59.324C90.4424 55.4548 93.9179 52.3015 98.2494 52.2423L298.494 49.504C302.857 49.4447 306.453 52.5458 306.543 56.4411L309.151 171.855C309.251 175.864 305.619 179.136 301.143 179.091Z" fill="#689EFB"/>
<path d="M297.207 57.9869H102.311C100.097 57.9869 98.3018 59.7818 98.3018 61.996V166.016C98.3018 168.23 100.097 170.025 102.311 170.025H297.207C299.421 170.025 301.216 168.23 301.216 166.016V61.996C301.216 59.7818 299.421 57.9869 297.207 57.9869Z" fill="#F8F9FA"/>
<path d="M301.22 157.22V160.511C301.22 160.993 301.125 161.471 300.94 161.917C300.756 162.362 300.485 162.767 300.144 163.108C299.802 163.449 299.397 163.72 298.951 163.904C298.505 164.089 298.028 164.183 297.545 164.183H180.832C180.574 164.117 180.32 164.038 180.071 163.946C188.369 155.885 204.365 143.216 226.216 138.943C227.822 138.627 229.459 138.358 231.126 138.135C232.598 137.944 234.095 137.792 235.617 137.68L235.854 137.661C240.477 137.367 245.117 137.477 249.721 137.988C250.647 138.084 251.571 138.193 252.492 138.315C253.856 138.495 255.188 138.689 256.487 138.896C278.353 142.379 292.332 149.735 301.22 157.22Z" fill="#8DE2EF"/>
<path d="M257.424 142.524C260.964 137.079 254.466 139.111 253.34 135.263L248.802 117.567L243.938 120.107L237.98 99.7182L230.652 116.659L235.19 132.087L235.922 135.79C235.775 138.398 235.062 138.749 233.094 140.98C232.297 141.883 229.324 145.537 233.127 147.381C236.539 149.046 254.268 147.377 257.424 142.524Z" fill="#FCDADC"/>
<path d="M249.491 118.99C249.491 118.99 269.339 112.063 266.378 97.2973C263.417 82.5318 248.282 110.657 248.282 110.657L247.483 118.381L249.491 118.99Z" fill="#152946"/>
<path d="M218.889 102.783C220.43 91.0477 229.558 82.5719 239.299 83.8475C249.041 85.123 255.672 95.6755 254.131 107.411C252.59 119.147 243.463 127.622 233.721 126.345C223.979 125.067 217.35 114.519 218.889 102.783Z" fill="#FCDADC"/>
<path d="M251.877 104.592C251.877 104.592 246.019 105.778 243.532 101.413C241.045 97.0483 239.582 93.3119 229.419 93.6936C219.255 94.0753 211.021 88.1127 211.45 82.7001C211.879 77.2875 217.441 75.5117 222.546 78.0982C227.65 80.6848 222.619 75.0019 228.456 71.7492C234.293 68.4964 241.202 77.6952 246.854 77.3325C252.506 76.9697 269.69 82.2045 266.377 97.2972L251.877 104.592Z" fill="#152946"/>
<path d="M254.096 108.919C252.294 110.067 250.004 109.69 248.979 108.08C247.955 106.47 248.586 104.235 250.388 103.089C252.189 101.944 254.48 102.319 255.504 103.929C256.528 105.539 255.897 107.774 254.096 108.919Z" fill="#FCDADC"/>
<path d="M224.675 85.614C222.866 85.614 221.51 85.2631 220.628 84.5613C219.087 83.3404 218.985 82.2498 219.403 81.6381C219.898 80.9127 221.257 80.6542 222.679 81.4793C225.112 82.9018 226.897 82.6647 226.913 82.6647L226.949 82.9018C226.873 82.9018 225.069 83.1389 222.556 81.6903C221.259 80.9364 220.036 81.1426 219.604 81.7756C219.249 82.2996 219.367 83.255 220.79 84.3835C223.706 86.6998 231.553 84.2484 231.632 84.2223L231.705 84.4594C230.273 84.8898 228.812 85.2139 227.333 85.4291C226.453 85.553 225.565 85.6147 224.675 85.614Z" fill="#2D3A4A"/>
<path d="M256.934 82.0103C254.855 80.5404 252.309 80.6874 249.359 80.8558C247.788 80.9752 246.211 81.0028 244.637 80.9387C239.573 80.6613 235.367 75.8604 235.22 75.3744L235.457 75.3032C235.561 75.602 239.573 80.4171 244.656 80.6969C246.221 80.7598 247.788 80.7322 249.35 80.6139C252.344 80.4432 254.931 80.2939 257.079 81.8136L256.934 82.0103Z" fill="#2D3A4A"/>
<path d="M262.802 94.5423H262.774C262.012 94.4949 260.808 92.2355 260.768 91.088C260.749 90.5001 261.04 90.3768 261.216 90.3507C262.638 90.1587 263.316 93.6225 263.35 93.7695V93.7908V93.8121C263.248 94.4119 263.001 94.5423 262.802 94.5423ZM261.325 90.5831H261.247C261.185 90.5831 260.995 90.6162 261.01 91.0738C261.048 92.1502 262.209 94.2555 262.788 94.2934C262.961 94.3052 263.06 94.0303 263.103 93.7861C262.921 92.8614 262.276 90.5831 261.327 90.5831H261.325Z" fill="#2D3A4A"/>
<path d="M233.172 104.199C233.124 104.17 233.085 104.129 233.056 104.082C233.027 104.034 233.01 103.98 233.006 103.924C232.998 103.829 233.028 103.735 233.089 103.662C233.15 103.589 233.238 103.544 233.333 103.535C233.451 103.535 236.135 103.047 237.487 105.906C237.526 105.991 237.531 106.087 237.501 106.175C237.471 106.264 237.408 106.337 237.325 106.38C237.24 106.412 237.146 106.413 237.06 106.384C236.974 106.354 236.9 106.296 236.851 106.219C235.595 104.671 233.499 104.244 233.404 104.251C233.323 104.261 233.241 104.243 233.172 104.199Z" fill="#060633"/>
<path d="M234.734 108.822C234.509 109.649 233.835 110.19 233.235 110.026C232.636 109.863 232.327 109.057 232.555 108.227C232.783 107.397 233.451 106.857 234.053 107.022C234.656 107.188 234.959 107.992 234.734 108.822Z" fill="#060633"/>
<path d="M219.838 103.13C219.793 103.119 219.751 103.097 219.717 103.066C219.683 103.034 219.658 102.994 219.644 102.949C219.613 102.864 219.61 102.771 219.635 102.684C219.66 102.597 219.712 102.519 219.784 102.463C219.867 102.407 221.716 100.861 223.459 102.881C223.511 102.954 223.54 103.042 223.54 103.132C223.54 103.222 223.511 103.31 223.459 103.383C223.437 103.415 223.41 103.442 223.378 103.462C223.346 103.482 223.309 103.495 223.272 103.501C223.234 103.506 223.196 103.503 223.159 103.492C223.123 103.481 223.089 103.463 223.06 103.438C221.73 102.558 220.078 103.04 220.009 103.087C219.96 103.123 219.899 103.138 219.838 103.13Z" fill="#060633"/>
<path d="M223.128 106.821C223.235 107.675 222.82 108.429 222.201 108.507C221.582 108.585 220.994 107.957 220.888 107.103C220.781 106.25 221.196 105.496 221.815 105.418C222.433 105.34 223.021 105.97 223.128 106.821Z" fill="#060633"/>
<path d="M232.64 120.176C229.442 120.176 226.95 118.223 226.907 118.194C226.881 118.174 226.86 118.148 226.844 118.119C226.828 118.09 226.818 118.059 226.814 118.026C226.81 117.993 226.813 117.96 226.822 117.928C226.831 117.896 226.846 117.867 226.867 117.841C226.887 117.815 226.913 117.793 226.942 117.777C226.97 117.761 227.002 117.75 227.035 117.747C227.068 117.743 227.101 117.746 227.133 117.755C227.165 117.764 227.195 117.78 227.22 117.801C227.422 117.959 232.18 121.67 236.891 118.258C236.945 118.219 237.012 118.203 237.078 118.213C237.143 118.223 237.202 118.259 237.242 118.313C237.28 118.367 237.296 118.434 237.285 118.5C237.274 118.565 237.238 118.624 237.185 118.664C235.873 119.645 234.279 120.176 232.64 120.176Z" fill="#020202"/>
<path d="M237.393 119.702H237.367C237.301 119.694 237.24 119.661 237.198 119.609C237.155 119.557 237.136 119.491 237.142 119.424C237.18 119.062 237.085 118.438 236.431 117.528L236.381 117.456C236.346 117.4 236.335 117.332 236.35 117.267C236.365 117.202 236.405 117.146 236.462 117.11C236.518 117.075 236.586 117.063 236.651 117.078C236.716 117.093 236.772 117.132 236.808 117.189L236.836 117.231C237.441 118.063 237.714 118.817 237.645 119.472C237.639 119.535 237.611 119.593 237.564 119.636C237.518 119.678 237.457 119.702 237.393 119.702Z" fill="#020202"/>
<path d="M218.264 117.485C217.328 117.478 216.414 117.205 215.627 116.698C213.344 115.276 211.742 112.092 211.336 108.192C210.679 101.843 213.399 95.4864 217.398 94.0236C218.109 93.7538 218.874 93.6561 219.63 93.7385C220.387 93.8209 221.113 94.0811 221.749 94.4978C224.032 95.9203 225.635 99.1019 226.04 103.004C226.697 109.351 223.977 115.707 219.98 117.172C219.431 117.376 218.85 117.482 218.264 117.485ZM219.108 94.4598C218.611 94.4618 218.119 94.5517 217.654 94.7254C213.958 96.0791 211.457 102.075 212.081 108.116C212.462 111.788 213.935 114.754 216.023 116.065C216.564 116.419 217.181 116.641 217.824 116.711C218.467 116.782 219.117 116.699 219.722 116.471C223.42 115.117 225.919 109.109 225.296 103.08C224.914 99.4078 223.442 96.4418 221.353 95.1308C220.683 94.6994 219.904 94.4668 219.108 94.4598Z" fill="#1C1B43"/>
<g opacity="0.3">
<path opacity="0.3" d="M245.872 103.089C245.983 109.156 242.579 114.943 238.267 115.998C233.954 117.053 230.367 113.004 230.256 106.935C230.144 100.865 233.549 95.0805 237.861 94.0255C242.174 92.9705 245.761 97.0198 245.872 103.089Z" fill="#F7EAE1"/>
</g>
<g opacity="0.3">
<path opacity="0.3" d="M226.092 103.514C226.202 109.609 223.127 115.553 219.217 116.79C215.308 118.028 212.057 114.088 211.946 107.992C211.834 101.897 214.914 95.9555 218.821 94.7155C222.728 93.4756 225.983 97.4182 226.092 103.514Z" fill="white"/>
</g>
<path d="M236.572 116.266C235.194 116.26 233.858 115.79 232.779 114.932C230.508 113.18 229.157 110.007 229.071 106.233C228.922 99.7418 232.661 93.5444 237.402 92.4159C238.318 92.1854 239.275 92.1697 240.199 92.37C241.122 92.5703 241.986 92.9811 242.725 93.5705C244.994 95.3225 246.347 98.4923 246.433 102.267C246.582 108.758 242.843 114.955 238.102 116.084C237.601 116.204 237.088 116.265 236.572 116.266ZM238.91 92.9825C238.458 92.9842 238.008 93.0383 237.568 93.1437C233.149 94.194 229.671 100.059 229.811 106.216C229.891 109.713 231.169 112.748 233.23 114.339C233.881 114.858 234.643 115.22 235.456 115.397C236.27 115.573 237.114 115.559 237.921 115.356C242.338 114.306 245.819 108.443 245.679 102.283C245.598 98.7887 244.32 95.7516 242.26 94.1608C241.307 93.4049 240.127 92.9923 238.91 92.9896V92.9825Z" fill="#1C1C45"/>
<path d="M230.681 105.666C230.587 105.666 230.495 105.647 230.408 105.612C227.449 104.357 225.354 105.441 225.332 105.45C225.251 105.494 225.162 105.521 225.07 105.531C224.978 105.54 224.886 105.531 224.798 105.504C224.709 105.477 224.627 105.433 224.556 105.374C224.485 105.315 224.427 105.243 224.384 105.161C224.34 105.08 224.312 104.991 224.303 104.9C224.294 104.808 224.303 104.715 224.329 104.627C224.356 104.539 224.4 104.457 224.459 104.386C224.517 104.315 224.589 104.256 224.671 104.213C224.78 104.156 227.383 102.812 230.949 104.322C231.033 104.357 231.11 104.409 231.174 104.474C231.238 104.539 231.289 104.617 231.323 104.701C231.358 104.786 231.375 104.877 231.374 104.968C231.373 105.06 231.354 105.15 231.319 105.235C231.267 105.362 231.179 105.47 231.065 105.547C230.952 105.624 230.818 105.665 230.681 105.666Z" fill="#1C1C45"/>
<path d="M266.469 97.4728L266.294 97.1219C269.16 95.6781 268.427 92.5201 268.427 92.4869L268.811 92.3945C268.809 92.4301 269.613 95.8915 266.469 97.4728Z" fill="#2D3A4A"/>
<path d="M268.541 101.678C268.524 101.655 266.988 99.3075 265.319 98.9305L265.404 98.5464C267.232 98.9518 268.804 101.363 268.87 101.465L268.541 101.678Z" fill="#2D3A4A"/>
<path d="M185.796 80.4194H131.229C129.656 80.4194 128.381 81.6942 128.381 83.2668V114.77C128.381 116.343 129.656 117.618 131.229 117.618H185.796C187.368 117.618 188.643 116.343 188.643 114.77V83.2668C188.643 81.6942 187.368 80.4194 185.796 80.4194Z" fill="#8DE2EF"/>
<path d="M173.697 70.1797H119.13C117.558 70.1797 116.283 71.4545 116.283 73.0271V104.533C116.283 106.106 117.558 107.38 119.13 107.38H173.697C175.27 107.38 176.545 106.106 176.545 104.533V73.0271C176.545 71.4545 175.27 70.1797 173.697 70.1797Z" fill="#C3C2FE"/>
<path d="M173.17 151.786C173.17 151.786 173.17 151.807 173.17 151.817C173.035 152.765 172.907 153.851 172.791 155.075C172.554 157.54 172.371 160.527 172.317 163.866H141.908C142.084 154.709 142.987 148.455 143.047 148.055L145.543 148.367L157.634 149.878L158.108 149.937L158.699 150.008L172.262 151.668L173.17 151.779V151.786Z" fill="#F7CCCF"/>
<path d="M142.981 148.059C142.981 148.059 143.396 128.668 146.385 125.387C149.375 122.106 172.033 124.647 173.723 129.323C175.414 133.998 173.166 151.796 173.166 151.796L142.981 148.059Z" fill="#F7CCCF"/>
<path d="M156.301 157.547C156.227 157.547 156.157 157.519 156.103 157.468C156.05 157.418 156.018 157.348 156.014 157.275C155.968 155.857 156.064 154.439 156.301 153.04C156.83 150.065 157.961 148.299 159.67 147.787C165.988 145.904 169.495 142.184 169.53 142.147C169.556 142.119 169.587 142.096 169.621 142.08C169.655 142.065 169.692 142.056 169.73 142.054C169.768 142.053 169.806 142.059 169.841 142.073C169.876 142.086 169.908 142.106 169.936 142.132C169.964 142.158 169.987 142.189 170.003 142.223C170.019 142.257 170.028 142.295 170.029 142.333C170.031 142.371 170.025 142.408 170.012 142.444C169.998 142.48 169.978 142.512 169.952 142.54C169.805 142.697 166.301 146.414 159.834 148.341C156.249 149.408 156.588 157.168 156.59 157.246C156.592 157.284 156.587 157.322 156.574 157.357C156.561 157.393 156.542 157.425 156.517 157.453C156.491 157.481 156.461 157.504 156.427 157.52C156.392 157.536 156.355 157.546 156.318 157.547H156.301Z" fill="#E08B65"/>
<path d="M174.316 133.718C174.316 133.718 175.246 103.691 172.145 103.175C167.609 102.423 165.808 114.865 165.032 123.905C164.257 132.945 174.316 133.718 174.316 133.718Z" fill="#F7CCCF"/>
<path d="M163.36 116.843C164.998 117.122 166.644 116.62 167.412 125.788C167.796 130.375 168.123 144.809 163.787 144.081C159.451 143.353 157.981 126.994 157.981 126.994C157.981 126.994 158.071 145.752 154.294 143.794C150.517 141.836 149.078 126.994 149.078 126.994C149.078 126.994 150.207 145.264 145.882 142.891C141.558 140.518 140.235 130.785 140.6 126.608C141.053 121.392 144.868 121.084 148.934 120.821C148.934 120.821 152.952 118.329 155.612 118.789C156.634 118.967 160.148 116.295 163.36 116.843Z" fill="#FCDADC"/>
<path d="M172.781 155.084C172.781 155.084 177.065 151.563 179.913 144.711C182.76 137.86 189.095 131.134 187.284 128.419C185.472 125.705 176.42 131.762 173.445 137.85C170.47 143.939 172.781 155.084 172.781 155.084Z" fill="#F7CCCF"/>
<path d="M301.216 160.053V166.011C301.216 167.074 300.794 168.094 300.042 168.846C299.29 169.598 298.27 170.02 297.207 170.02H102.311C101.248 170.02 100.228 169.598 99.4761 168.846C98.7243 168.094 98.3018 167.074 98.3018 166.011V162.035C121.92 161.679 255.134 160.47 301.216 160.053Z" fill="#C3C2FE"/>
<path d="M286.399 164.152L111.003 165.132L111.012 166.685L286.407 165.705L286.399 164.152Z" fill="#E7F2F0"/>
<path d="M199.152 164.752L198.941 166.302L111.057 166.796L111.05 165.243L199.152 164.752Z" fill="#8DE2EF"/>
<path d="M196.138 165.537C196.138 164.845 196.413 164.182 196.902 163.693C197.391 163.204 198.054 162.929 198.746 162.929C199.437 162.929 200.101 163.204 200.59 163.693C201.079 164.182 201.354 164.845 201.354 165.537C201.354 166.229 201.079 166.892 200.59 167.381C200.101 167.87 199.437 168.145 198.746 168.145C198.054 168.145 197.391 167.87 196.902 167.381C196.413 166.892 196.138 166.229 196.138 165.537Z" fill="#8DE2EF"/>
<path d="M142.225 92.0057H127.407C127.08 92.0057 126.577 91.6643 126.534 91.3419C126.447 90.678 127.08 90.4884 127.404 90.4884L142.225 90.8203C142.382 90.8209 142.532 90.8836 142.643 90.9946C142.754 91.1056 142.817 91.256 142.817 91.413C142.817 91.57 142.754 91.7204 142.643 91.8314C142.532 91.9424 142.382 92.0051 142.225 92.0057Z" fill="#DEEBE9"/>
<path d="M138.373 89.2221H127.19C127.04 89.2065 126.898 89.1478 126.781 89.0531C126.664 88.9584 126.577 88.8318 126.531 88.6887C126.52 88.5985 126.529 88.5069 126.557 88.4206C126.586 88.3343 126.633 88.2555 126.696 88.1899C126.759 88.1242 126.836 88.0735 126.921 88.0412C127.006 88.009 127.097 87.9961 127.188 88.0035L138.373 88.269C138.494 88.2757 138.608 88.3286 138.692 88.4168C138.775 88.505 138.821 88.6218 138.821 88.7432C138.823 88.8654 138.777 88.9834 138.693 89.0726C138.61 89.1618 138.495 89.2154 138.373 89.2221Z" fill="#DEEBE9"/>
<path d="M138.373 94.8104H127.19C127.04 94.7951 126.898 94.7365 126.781 94.6418C126.664 94.547 126.577 94.4202 126.531 94.2769C126.52 94.1867 126.529 94.0952 126.557 94.0089C126.586 93.9226 126.633 93.8438 126.696 93.7782C126.759 93.7125 126.836 93.6618 126.921 93.6295C127.006 93.5973 127.097 93.5844 127.188 93.5918L138.373 93.8573C138.494 93.864 138.608 93.9169 138.692 94.0051C138.775 94.0933 138.821 94.2101 138.821 94.3315C138.823 94.4536 138.777 94.5717 138.693 94.6609C138.61 94.7501 138.495 94.8037 138.373 94.8104Z" fill="#DEEBE9"/>
<g opacity="0.5">
<path opacity="0.5" d="M124.848 123.905H107.811C105.86 123.905 104.279 125.487 104.279 127.438V150.814C104.279 152.765 105.86 154.347 107.811 154.347H124.848C126.799 154.347 128.38 152.765 128.38 150.814V127.438C128.38 125.487 126.799 123.905 124.848 123.905Z" fill="#CED891"/>
</g>
<path d="M123.836 134.22H109.019C108.691 134.22 108.191 133.881 108.146 133.559C108.058 132.895 108.691 132.705 109.016 132.705L123.836 133.035C123.993 133.036 124.144 133.098 124.255 133.209C124.366 133.32 124.428 133.471 124.429 133.628C124.428 133.785 124.366 133.935 124.255 134.046C124.144 134.157 123.993 134.22 123.836 134.22Z" fill="#DEEBE9"/>
<path d="M119.985 131.437H108.802C108.652 131.422 108.51 131.363 108.393 131.269C108.276 131.174 108.189 131.047 108.143 130.904C108.131 130.814 108.14 130.722 108.169 130.636C108.198 130.549 108.245 130.471 108.308 130.405C108.371 130.339 108.448 130.289 108.533 130.256C108.618 130.224 108.709 130.211 108.799 130.219L119.985 130.484C120.106 130.491 120.22 130.544 120.303 130.632C120.387 130.72 120.433 130.837 120.433 130.958C120.434 131.081 120.389 131.199 120.305 131.288C120.222 131.377 120.107 131.431 119.985 131.437Z" fill="#DEEBE9"/>
<path d="M119.985 137.026H108.802C108.652 137.011 108.51 136.952 108.393 136.858C108.276 136.764 108.189 136.637 108.143 136.495C108.131 136.404 108.14 136.313 108.169 136.227C108.198 136.14 108.245 136.061 108.308 135.996C108.371 135.93 108.448 135.879 108.533 135.847C108.618 135.815 108.709 135.802 108.799 135.809L119.985 136.075C120.106 136.082 120.22 136.134 120.303 136.223C120.387 136.311 120.433 136.428 120.433 136.549C120.434 136.671 120.388 136.788 120.304 136.877C120.221 136.966 120.106 137.019 119.985 137.026Z" fill="#DEEBE9"/>
<path d="M123.836 145.399H109.019C108.691 145.399 108.191 145.06 108.146 144.735C108.058 144.074 108.691 143.884 109.016 143.884L123.836 144.214C123.993 144.214 124.144 144.277 124.255 144.388C124.366 144.499 124.428 144.649 124.429 144.806C124.428 144.963 124.366 145.114 124.255 145.225C124.144 145.336 123.993 145.398 123.836 145.399Z" fill="#DEEBE9"/>
<path d="M119.985 142.616H108.802C108.652 142.601 108.51 142.542 108.393 142.447C108.276 142.352 108.189 142.226 108.143 142.082C108.131 141.992 108.14 141.901 108.169 141.814C108.198 141.728 108.245 141.649 108.308 141.584C108.371 141.518 108.448 141.467 108.533 141.435C108.618 141.403 108.709 141.39 108.799 141.397L119.985 141.663C120.106 141.669 120.22 141.722 120.303 141.811C120.387 141.899 120.433 142.016 120.433 142.137C120.434 142.259 120.389 142.377 120.305 142.466C120.222 142.556 120.107 142.609 119.985 142.616Z" fill="#DEEBE9"/>
<path d="M119.985 148.204H108.802C108.652 148.189 108.51 148.13 108.393 148.036C108.276 147.941 108.189 147.814 108.143 147.671C108.131 147.58 108.14 147.489 108.169 147.403C108.198 147.316 108.245 147.238 108.308 147.172C108.371 147.106 108.448 147.056 108.533 147.023C108.618 146.991 108.709 146.978 108.799 146.986L119.985 147.251C120.106 147.258 120.22 147.311 120.303 147.399C120.387 147.487 120.433 147.604 120.433 147.725C120.434 147.847 120.389 147.965 120.305 148.055C120.222 148.144 120.107 148.197 119.985 148.204Z" fill="#DEEBE9"/>
<path d="M318.521 96.9839C318.475 96.7815 318.388 96.5908 318.266 96.4229C318.144 96.255 317.989 96.1136 317.811 96.0072C317.632 95.9007 317.434 95.8314 317.229 95.8035C317.023 95.7755 316.814 95.7895 316.614 95.8445C316.207 95.9776 315.868 96.2622 315.666 96.639C315.464 97.0159 315.416 97.4561 315.53 97.868C315.576 98.0705 315.663 98.2615 315.785 98.4295C315.907 98.5975 316.062 98.7391 316.24 98.8456C316.418 98.9521 316.616 99.0213 316.822 99.0491C317.028 99.0769 317.237 99.0627 317.437 99.0073C317.844 98.8742 318.183 98.5897 318.385 98.2128C318.587 97.8359 318.635 97.3958 318.521 96.9839Z" fill="#F89F93"/>
<path d="M317.182 97.4317C318.79 97.3087 319.008 112.772 319.008 112.772C319.008 112.772 317.957 113.285 317.444 113.16C316.931 113.034 316.688 110.944 316.688 110.944L316.616 113.132C316.616 113.132 314.857 113.185 314.249 112.728C314.249 112.728 314.641 97.6219 317.182 97.4317Z" fill="#F89F93"/>
<path d="M308.308 62.2445C308.308 62.2445 309.408 71.9393 307.192 71.8581C304.976 71.7769 300.474 67.6257 291.673 68.5817C282.872 69.5377 272.135 71.7862 265.269 60.4299C258.403 49.0737 273.177 45.3146 273.177 45.3146L308.308 62.2538L308.308 62.2445Z" fill="#2D3A4A"/>
<path d="M289.535 62.0866L334.096 64.4326L334.962 62.4277L291.417 32.2226L248.219 28.4612L247.444 30.2549L289.535 62.0866Z" fill="#9E9CFD"/>
<path d="M317.763 96.2945L317.995 64.7574C318.155 63.3533 317.933 61.9318 317.351 60.6438C316.769 59.3558 315.85 58.2491 314.69 57.4411L295.34 43.9825C295.24 43.9111 295.126 43.8603 295.006 43.8333C294.885 43.8062 294.761 43.8034 294.64 43.825C294.518 43.8466 294.402 43.8922 294.299 43.9591C294.195 44.026 294.106 44.1128 294.036 44.2146C294.001 44.265 293.975 44.322 293.962 44.3822C293.949 44.4425 293.947 44.5048 293.959 44.5655C293.97 44.6262 293.992 44.6841 294.026 44.7358C294.06 44.7875 294.103 44.832 294.155 44.8666L314.693 59.1443C315.468 59.6831 316.083 60.422 316.472 61.2826C316.861 62.1431 317.01 63.0929 316.902 64.0311L316.633 96.6588L317.763 96.2945Z" fill="#F89F93"/>
<path d="M140.981 155.422C146.717 155.603 164.359 159.388 176.692 168.971C189.025 178.554 205.261 196.523 210.125 215.617C214.989 234.711 211.477 260.566 204.616 267.345C199.226 267.491 41.6267 267.345 31.4172 267.491C23.4311 265.875 14.4921 261.755 16.5884 240.81C18.6848 219.864 34.8567 195.434 50.6293 183.065C66.4019 170.695 98.6368 157.654 116.397 156.502C134.157 155.349 140.981 155.422 140.981 155.422Z" fill="#7875FC"/>
<path d="M40.9235 227.778C23.8986 226.943 16.8109 245.375 16.8109 245.375" stroke="#292F44" stroke-width="0.64" stroke-linecap="round" stroke-linejoin="round"/>
<path d="M109.653 158.091C110.079 162.202 116.314 167.728 129.355 166.884C142.396 166.04 147.777 160.532 148.63 157.664" stroke="#292F44" stroke-width="0.64" stroke-linecap="round" stroke-linejoin="round"/>
<path d="M71.5257 180.315C77.0524 189.245 83.1419 215.463 83.4323 219.148" stroke="#292F44" stroke-width="0.64" stroke-linecap="round" stroke-linejoin="round"/>
<path d="M201.492 230.347C194.831 228.786 173.286 226.381 154.011 228.078" stroke="#292F44" stroke-width="0.64" stroke-linecap="round" stroke-linejoin="round"/>
<path d="M169.039 176.912C163.367 189.953 160.535 222.551 160.109 227.661" stroke="#292F44" stroke-width="0.64" stroke-linecap="round" stroke-linejoin="round"/>
<path d="M129.416 90.5802C130.323 90.6437 132.855 88.5837 135.569 87.9121C138.282 87.2406 142.175 87.8396 142.829 90.553C143.482 93.2665 143.028 95.3628 144.281 95.7621C145.533 96.1615 147.911 95.2721 150.479 95.4445C151.731 95.4744 152.931 95.9465 153.868 96.7771C154.805 97.6076 155.418 98.743 155.597 99.9821C155.858 101.134 155.847 102.33 155.565 103.477C155.283 104.624 154.738 105.689 153.973 106.589C152.947 107.578 151.586 108.767 151.613 109.829C151.641 110.89 153.873 112.651 153.673 115.519C153.474 118.386 151.613 122.189 147.548 122.443C143.482 122.697 117.836 136.056 117.836 136.056C117.836 136.056 117.627 142.218 110.358 142.463C103.089 142.708 101.8 139.849 102.109 138.479C102.417 137.108 104.994 135.275 103.924 133.279C102.853 131.282 99.3859 129.032 97.5074 122.924C95.6288 116.816 101.192 111.244 103.86 109.511C106.528 107.778 106.392 102.124 106.337 98.285C106.283 94.4462 109.577 88.493 117.228 87.3223C124.878 86.1516 126.829 90.4078 129.416 90.5802Z" fill="#292F44"/>
<path d="M119.053 120.093C119.073 117.617 118.961 115.142 118.717 112.678C118.345 109.81 113.09 109.738 110.985 111.435C108.879 113.132 107.064 116.88 108.38 120.347C108.79 121.379 109.443 122.298 110.284 123.024C111.124 123.751 112.127 124.264 113.208 124.521C114.008 127.691 114.593 130.911 114.96 134.159C115.359 138.588 115.305 149.668 115.187 153.353C115.216 155.304 114.741 157.23 113.807 158.943C118.465 162.371 124.237 163.935 129.988 163.327C139.971 162.419 145.026 157.41 145.026 157.41C143.839 154.611 143.134 151.631 142.938 148.598C142.584 143.461 142.367 136.337 142.367 136.337C142.367 136.337 145.752 134.586 146.904 128.169C148.057 121.753 148.719 113.586 146.55 108.64C145.625 106.617 144.241 104.837 142.508 103.441C140.775 102.045 138.742 101.072 136.568 100.599C134.784 100.084 132.932 99.8486 131.077 99.9004C131.077 99.9004 125.995 102.423 124.253 107.632C122.81 111.65 122.154 115.908 122.32 120.174L119.053 120.093Z" fill="#FCDADC"/>
<path d="M112.373 114.53C114.36 116.59 115.894 120.528 115.894 120.528" stroke="#292F44" stroke-width="0.64" stroke-linecap="round" stroke-linejoin="round"/>
<path d="M113.21 124.512C113.999 124.59 114.795 124.494 115.542 124.232C116.29 123.971 116.971 123.549 117.539 122.997" stroke="#292F44" stroke-width="0.64" stroke-linecap="round" stroke-linejoin="round"/>
<path d="M141.677 114.448C142.739 116.009 145.77 120.056 145.497 120.891C145.225 121.726 141.368 120.501 141.368 120.501" stroke="#292F44" stroke-width="0.64" stroke-linecap="round" stroke-linejoin="round"/>
<path d="M132.655 123.196C133.381 122.053 139.743 123.904 141.304 124.44C142.864 124.975 143.845 126.318 142.474 127.607C141.533 128.361 140.419 128.869 139.232 129.084C138.045 129.3 136.823 129.216 135.677 128.841C133.181 128.088 131.82 124.512 132.655 123.196Z" fill="white" stroke="#292F44" stroke-width="0.64" stroke-linecap="round" stroke-linejoin="round"/>
<path d="M128.62 107.578C131.095 106.699 133.777 106.588 136.316 107.26" stroke="#292F44" stroke-width="1.28" stroke-linecap="round" stroke-linejoin="round"/>
<path d="M142.777 107.913C143.588 107.716 144.436 107.73 145.24 107.955C146.044 108.179 146.777 108.605 147.369 109.193" stroke="#292F44" stroke-width="1.28" stroke-linecap="round" stroke-linejoin="round"/>
<path d="M142.369 136.31C140.643 137.732 138.65 138.795 136.506 139.434C134.363 140.073 132.114 140.276 129.891 140.031C125.553 139.622 120.815 137.798 119.563 136.863" stroke="#292F44" stroke-width="0.64" stroke-linecap="round" stroke-linejoin="round"/>
<path d="M133.736 115.31C133.237 115.31 133.019 114.892 133.065 114.175C133.11 113.458 133.391 113.095 133.881 113.132C134.371 113.168 134.607 113.549 134.553 114.275C134.498 115.001 134.226 115.346 133.736 115.31Z" fill="#303336"/>
<path d="M145.752 115.927C145.262 115.927 145.035 115.51 145.081 114.793C145.126 114.076 145.407 113.713 145.897 113.749C146.387 113.786 146.623 114.167 146.569 114.893C146.514 115.619 146.224 115.964 145.752 115.927Z" fill="#303336"/>
<path d="M127.803 123.604C126.333 123.486 125.671 122.324 125.834 120.165C125.997 118.005 126.841 116.97 128.321 117.088C129.8 117.206 130.453 118.359 130.29 120.518C130.127 122.678 129.283 123.695 127.803 123.604Z" fill="#FE9074"/>
<path d="M126.607 96.7787C125.527 95.4265 120.055 92.9218 116.243 95.6353C112.431 98.3487 115.39 103.358 113.629 105.618" stroke="#100C27" stroke-width="0.64" stroke-linecap="round" stroke-linejoin="round"/>
<path d="M134.319 93.0577C136.234 91.5875 140.109 92.495 140.536 95.6169C140.962 98.7387 143.857 98.4029 144.71 98.3394" stroke="#100C27" stroke-width="0.64" stroke-linecap="round" stroke-linejoin="round"/>
<path d="M150.962 100.382C152.704 101.462 152.023 103.549 151.288 104.919C150.553 106.29 148.802 108.549 149.6 110.873" stroke="#100C27" stroke-width="0.64" stroke-linecap="round" stroke-linejoin="round"/>
<path d="M103.764 115.763C99.7348 118.577 102.757 124.113 104.844 126.282C106.931 128.451 108.792 130.928 108.211 133.124" stroke="#100C27" stroke-width="0.64" stroke-linecap="round" stroke-linejoin="round"/>
<path d="M40.9268 227.778C44.8655 226.344 65.584 225.645 65.584 225.645C65.584 225.645 74.3778 218.585 83.0264 216.833C91.675 215.082 100.079 216.742 103.754 219.12C107.429 221.498 107.529 226.208 106.558 227.841C105.686 229.157 104.672 230.374 103.536 231.471C103.536 231.471 106.377 233.586 105.732 236.735C105.088 239.884 101.712 242.425 101.712 242.425C101.712 242.425 106.25 244.022 105.342 248.215C104.435 252.408 101.413 252.635 100.133 252.753C98.8535 252.871 94.7425 250.457 94.7425 250.457C93.3972 254.38 91.568 258.121 89.2974 261.592C85.994 266.265 84.5965 267.872 81.1298 268.062C77.6631 268.253 39.2662 269.424 31.4615 268.244C26.6264 267.386 22.265 264.807 19.1828 260.984C19.1828 260.984 20.535 250.638 25.8167 242.053C31.0984 233.468 40.9268 227.778 40.9268 227.778Z" fill="#FCDADC"/>
<path d="M103.533 231.471C100.439 227.515 92.2168 220.853 82.579 224.538" stroke="#292F44" stroke-width="0.64" stroke-linecap="round" stroke-linejoin="round"/>
<path d="M101.713 242.425C98.0285 239.276 91.5126 232.896 85.8406 235.029C82.8498 236.094 79.9587 237.421 77.2011 238.995" stroke="#292F44" stroke-width="0.64" stroke-linecap="round" stroke-linejoin="round"/>
<path d="M99.1606 217.732C98.0262 220.708 102.845 226.38 105.513 227.515" stroke="#292F44" stroke-width="0.64" stroke-linecap="round" stroke-linejoin="round"/>
<path d="M99.734 228.368C97.7466 231.908 98.8809 235.311 103.845 238.995" stroke="#292F44" stroke-width="0.64" stroke-linecap="round" stroke-linejoin="round"/>
<path d="M99.1629 240.837C97.7472 243.814 101.885 248.633 103.701 249.912" stroke="#292F44" stroke-width="0.64" stroke-linecap="round" stroke-linejoin="round"/>
<path d="M65.5809 225.646C60.9742 228.608 56.971 232.418 53.7832 236.871" stroke="#292F44" stroke-width="0.64" stroke-linecap="round" stroke-linejoin="round"/>
<path d="M73.9328 96.1251L90.5222 105.055" stroke="#F89F93" stroke-width="1.28" stroke-linecap="round" stroke-linejoin="round"/>
<path d="M109.226 68.0647L112.629 81.2418" stroke="#F89F93" stroke-width="1.28" stroke-linecap="round" stroke-linejoin="round"/>
<path d="M162.805 68.9179L155.572 84.2186" stroke="#F89F93" stroke-width="1.28" stroke-linecap="round" stroke-linejoin="round"/>
<path d="M1.69403 167.882C6.03195 161.312 13.2829 165.813 18.3196 171.149C23.9281 177.084 27.6852 169.144 30.8978 162.818C34.1104 156.493 41.0982 152.1 48.0498 156.42C55.0014 160.74 48.9573 169.978 45.5814 172.656C42.2054 175.333 32.8762 179.716 37.1143 184.653C41.3524 189.59 49.2387 185.433 51.4168 192.104C53.5948 198.774 46.7703 201.279 42.3416 199.827C37.913 198.375 32.8036 191.205 29.473 191.505C26.1424 191.804 26.9502 202.35 20.1075 207.622C16.178 210.653 8.76358 208.829 8.17369 201.369C7.58381 193.91 16.6407 189.771 17.0582 185.415C17.3395 182.502 13.047 180.796 8.13736 179.498C3.99909 178.409 -1.74545 173.1 1.69403 167.882Z" stroke="#FE9479" stroke-width="1.28" stroke-linecap="round" stroke-linejoin="round"/>
<path d="M105.628 275.994H214.914C216.027 275.997 217.113 275.649 218.018 275.001C218.923 274.353 219.601 273.437 219.956 272.382L242.699 204.547C242.963 203.751 243.033 202.903 242.905 202.075C242.776 201.246 242.452 200.46 241.959 199.781C241.467 199.103 240.819 198.551 240.071 198.172C239.323 197.792 238.496 197.597 237.657 197.601H132.538C130.209 197.595 127.936 198.322 126.043 199.679C124.149 201.035 122.73 202.953 121.986 205.16L100.568 269.048C100.303 269.846 100.232 270.695 100.361 271.526C100.49 272.356 100.815 273.144 101.31 273.823C101.805 274.503 102.455 275.054 103.206 275.432C103.957 275.809 104.787 276.002 105.628 275.994Z" fill="#2D3A4A"/>
<path d="M112.491 275.994H221.801C222.914 275.996 223.999 275.649 224.904 275.001C225.809 274.353 226.487 273.437 226.843 272.382L249.557 204.547C249.822 203.75 249.893 202.903 249.765 202.073C249.637 201.244 249.313 200.457 248.82 199.778C248.327 199.099 247.68 198.548 246.931 198.169C246.182 197.79 245.354 197.595 244.515 197.6H139.396C137.066 197.596 134.795 198.323 132.901 199.679C131.008 201.036 129.588 202.953 128.843 205.16L107.426 269.048C107.16 269.846 107.089 270.696 107.218 271.527C107.347 272.358 107.673 273.146 108.169 273.825C108.665 274.505 109.315 275.056 110.067 275.434C110.819 275.811 111.65 276.003 112.491 275.994Z" fill="#2D3A4A"/>
<path d="M189.073 234.578C189.073 232.002 186.103 230.954 183.51 230.954C180.917 230.954 176.68 233.779 176.709 237.391C176.738 241.287 179.782 241.79 182.376 241.79C184.969 241.79 189.073 237.86 189.073 234.578Z" fill="#DEEBE9"/>
<path d="M221.849 276H68.2513C67.6372 276 67.0482 275.756 66.614 275.322C66.1797 274.888 65.9359 274.299 65.9359 273.685V270.97C65.9359 269.762 66.4159 268.603 67.2703 267.749C68.1246 266.894 69.2833 266.414 70.4915 266.414H221.849V276Z" fill="#2D3A4A"/>
<path d="M120.264 231.897L119.575 231.718C119.795 230.89 125.016 211.319 128.529 204.992C132.095 198.573 136.46 197.311 136.633 197.259L136.819 197.948C136.778 197.948 132.552 199.198 129.143 205.339C125.676 211.585 120.316 231.7 120.264 231.897Z" fill="#436E8E"/>
<path d="M104.106 266.761V266.055C107.689 266.055 108.575 264.573 108.587 264.556L117.079 239.173L117.75 239.399L109.229 264.839C109.166 264.972 108.158 266.761 104.106 266.761Z" fill="#436E8E"/>
<path d="M233.372 129.649C235.944 129.952 241.903 129.558 245.17 125.565" stroke="black" stroke-width="0.5"/>
<path d="M12.0671 35.5105C17.6898 35.0286 21.6771 39.5527 20.8245 43.9871C19.9718 48.4215 20.2527 54.4332 26.8079 55.9041C33.3631 57.375 36.2002 61.2975 34.7459 66.887C33.2916 72.4765 36.2418 75.7225 41.1681 76.0998" stroke="#F89F93" stroke-width="0.920005" stroke-linecap="round" stroke-linejoin="round"/>
<path d="M210.717 8.83389C212.298 6.23381 211.472 2.8445 208.872 1.26363C206.272 -0.317239 202.883 0.508973 201.302 3.10905C199.721 5.70912 200.547 9.09843 203.147 10.6793C205.747 12.2602 209.137 11.434 210.717 8.83389Z" stroke="#F89F93" stroke-width="0.920005" stroke-linecap="round" stroke-linejoin="round"/>
<path d="M293.061 211.65C296.052 211.088 298.022 208.209 297.46 205.218C296.899 202.227 294.019 200.258 291.029 200.819C288.038 201.381 286.068 204.26 286.63 207.251C287.191 210.242 290.071 212.211 293.061 211.65Z" stroke="#F89F93" stroke-width="0.920005" stroke-linecap="round" stroke-linejoin="round"/>
<path d="M97.3317 17.4437C97.256 17.9224 97.0401 18.3678 96.7112 18.7237C96.3824 19.0796 95.9553 19.33 95.4842 19.4432C95.013 19.5564 94.5188 19.5273 94.0641 19.3596C93.6095 19.1919 93.2148 18.8932 92.9299 18.5011C92.6451 18.1091 92.4829 17.6414 92.4639 17.1572C92.4449 16.673 92.5699 16.194 92.8232 15.7808C93.0764 15.3677 93.4465 15.0389 93.8866 14.8361C94.3267 14.6333 94.8171 14.5656 95.2957 14.6415C95.937 14.7436 96.5116 15.0961 96.8933 15.6215C97.275 16.1468 97.4327 16.8022 97.3317 17.4437Z" stroke="#8DE2EF" stroke-width="0.920005" stroke-linecap="round" stroke-linejoin="round"/>
<path d="M151.201 17.6977C153.831 15.0676 153.831 10.8034 151.201 8.17337C148.57 5.54331 144.306 5.5433 141.676 8.17336C139.046 10.8034 139.046 15.0676 141.676 17.6976C144.306 20.3277 148.57 20.3277 151.201 17.6977Z" stroke="#94C7D4" stroke-width="0.920005" stroke-linecap="round" stroke-linejoin="round"/>
<path d="M283.629 157.719C289.293 164.933 291.729 175.085 284.55 182.651C276.506 191.14 263.947 186.499 263.661 181.461C263.446 177.703 267.469 171.726 273.844 175.725C280.219 179.724 282.082 189.832 279.224 197.133C276.366 204.434 267.792 207.104 262.754 207.389" stroke="#94C7D4" stroke-width="0.920005" stroke-linecap="round" stroke-linejoin="round"/>
</svg>
