<svg width="33" height="36" viewBox="0 0 33 36" fill="none" xmlns="http://www.w3.org/2000/svg">
<path d="M25.9611 24.1659C24.639 22.8438 21.9452 21.2665 16.7454 21.7769C11.5456 22.2873 10.0391 24.6126 9.32669 26.959C8.61424 29.3055 7.90888 34.6861 7.90888 34.6861L6.79237 33.566C6.79237 33.566 5.21506 28.9936 5.72902 26.1473C6.24297 23.3011 7.10074 22.4362 6.18625 21.2169C5.27177 19.9976 0.592995 19.4446 0.0861289 16.1837C-0.463271 12.6569 1.71308 10.2892 3.84688 9.6795C5.98068 9.06984 7.91244 11.2036 8.82692 10.594C9.74141 9.98432 8.62488 7.94977 7.91243 6.1208C7.19998 4.29183 7.40556 1.86738 9.94698 0.329061C11.5456 -0.631503 13.8849 0.704775 14.6222 1.8532C15.5367 3.27101 17.1778 1.70788 18.0781 0.938718C19.4959 -0.28414 24.0754 0.329056 23.6678 4.08979C23.2602 7.85052 25.6917 8.19788 27.2123 8.56297C33.2096 9.98078 28.2296 15.372 29.7537 18.5231C31.0156 21.1283 33.5145 21.979 32.9048 27.0618C32.1959 33.0308 29.1441 35.753 29.1441 35.753C29.1441 35.753 29.6013 32.3999 27.9744 30.3653C26.4822 28.4796 26.553 24.7721 25.9611 24.1659Z" fill="#292F44"/>
</svg>
