<svg width="138" height="80" viewBox="0 0 138 80" fill="none" xmlns="http://www.w3.org/2000/svg">
<path d="M81.4386 0.581988C87.8915 1.52091 108.333 12.0108 119.896 23.1724C131.458 34.334 140.995 46.4345 137.127 61.2251C133.259 76.0158 118.57 79.9157 111.175 79.6484C103.779 79.3811 98.937 78.7059 98.937 78.7059L92.7514 51.1396L104.047 50.3343L91.271 43.3399L87.9091 70.9062L46.7653 69.5629L44.6167 42.1337L32.7624 48.5831L40.425 48.8503L40.963 75.745C40.963 75.745 18.1053 80.5838 9.22952 73.3256C0.353711 66.0674 -1.93205 57.1881 1.56341 46.9514C5.05888 36.7147 14.3391 25.0326 26.3059 16.4276C38.2728 7.82259 56.6961 1.09892 65.3011 0.290107C70.6757 -0.177454 76.0845 -0.0796208 81.4386 0.581988Z" fill="#7875FC"/>
</svg>
