<svg width="28" height="28" viewBox="0 0 28 28" fill="none" xmlns="http://www.w3.org/2000/svg">
<path d="M25.5417 11.6254L14.6213 0.703351C13.9772 0.060881 12.9354 0.0684825 12.2997 0.702531C11.6605 1.34341 11.6605 2.38401 12.2997 3.02407L23.2218 13.9454C23.8616 14.5852 24.9018 14.5852 25.5417 13.9454C26.1833 13.3038 26.1833 12.2669 25.5417 11.6254Z" fill="#F8F9FA"/>
<path d="M11.491 4.53394L11.4088 4.94595C10.8298 7.8421 9.42271 10.5935 7.51953 12.8235L13.4612 18.7651C15.6909 16.8623 18.4044 15.4174 21.3006 14.8377L21.7134 14.7555L11.491 4.53394Z" fill="#F8F9FA"/>
<path d="M6.43027 14.0541L2.36956 18.114C1.41006 19.0735 1.40607 20.6312 2.36956 21.5947L4.68951 23.9146C5.64901 24.8741 7.20673 24.8781 8.17022 23.9146L12.2306 19.8543L6.43027 14.0541ZM7.01029 20.4348C6.68988 20.7552 6.17073 20.7552 5.85031 20.4348C5.5299 20.1143 5.5299 19.5952 5.85031 19.2748L7.01029 18.1148C7.33071 17.7944 7.84986 17.7944 8.17027 18.1148C8.49068 18.4352 8.49068 18.9544 8.17027 19.2748L7.01029 20.4348Z" fill="#F8F9FA"/>
<path d="M15.6537 24.3512L16.7696 23.2353C17.7331 22.2719 17.73 20.7142 16.7696 19.7555L15.9408 18.926C15.4827 19.2338 15.0452 19.5681 14.6198 19.9249L15.6097 20.9162C15.9293 21.2342 15.9316 21.7518 15.6097 22.0754L14.4753 23.2097L12.8083 21.5946L10.4883 23.9147L14.2102 27.5212C14.8453 28.158 15.8881 28.1616 16.5293 27.5203C17.1694 26.8803 17.1694 25.8397 16.5293 25.1996L15.6537 24.3512Z" fill="#F8F9FA"/>
<path d="M18.9688 0C18.5153 0 18.1484 0.366899 18.1484 0.820314V2.46094C18.1484 2.91436 18.5153 3.28126 18.9688 3.28126C19.4222 3.28126 19.7891 2.91436 19.7891 2.46094V0.820314C19.7891 0.366899 19.4222 0 18.9688 0Z" fill="#F8F9FA"/>
<path d="M25.5313 6.5625H23.8906C23.4372 6.5625 23.0703 6.9294 23.0703 7.38281C23.0703 7.83623 23.4372 8.20313 23.8906 8.20313H25.5313C25.9847 8.20313 26.3516 7.83623 26.3516 7.38281C26.3516 6.9294 25.9847 6.5625 25.5313 6.5625Z" fill="#F8F9FA"/>
<path d="M24.4706 1.88094C24.1502 1.56052 23.631 1.56052 23.3106 1.88094L21.67 3.52156C21.3496 3.84198 21.3496 4.36113 21.67 4.68154C21.9904 5.00196 22.5096 5.00201 22.83 4.68154L24.4706 3.04091C24.791 2.7205 24.791 2.20135 24.4706 1.88094Z" fill="#F8F9FA"/>
</svg>
