<svg width="15" height="16" viewBox="0 0 15 16" fill="none" xmlns="http://www.w3.org/2000/svg">
<path fill-rule="evenodd" clip-rule="evenodd" d="M12.1351 5.50256V4.23998C12.1351 1.90399 10.1434 0 7.7083 0H7.68319C5.24805 0 3.25642 1.88879 3.24805 4.23998V5.50397C3.55124 5.40592 3.86935 5.34019 4.19855 5.31522C3.87059 5.34039 3.55365 5.406 3.25152 5.50371C1.77035 5.99971 0.699219 7.3445 0.699219 8.93569V12.3677C0.699219 14.3677 2.40633 15.9997 4.49838 15.9997H10.8917C12.9921 15.9997 14.6992 14.3677 14.6992 12.3677V8.93569C14.6992 7.3445 13.6281 5.99971 12.1385 5.50371C12.1374 5.50333 12.1362 5.50295 12.1351 5.50256ZM10.8798 5.30371V4.23998C10.8798 2.56799 9.45725 1.19999 7.69993 1.19999H7.69156C5.93424 1.19999 4.51165 2.55279 4.50328 4.22398V5.30371H10.8798ZM8.42928 11.5355C8.42928 11.9275 8.10292 12.2395 7.69288 12.2395C7.2912 12.2395 6.96484 11.9275 6.96484 11.5355V9.75947C6.96484 9.37628 7.2912 9.06348 7.69288 9.06348C8.10292 9.06348 8.42928 9.37628 8.42928 9.75947V11.5355Z" fill="#C3C2FE"/>
</svg>
