<svg width="24" height="24" viewBox="0 0 24 24" fill="none" xmlns="http://www.w3.org/2000/svg">
<path fill-rule="evenodd" clip-rule="evenodd" d="M17.011 14.601C17.425 14.601 17.761 14.265 17.761 13.851V11.999C17.761 11.585 17.425 11.249 17.011 11.249H11.319C10.995 10.182 10.013 9.39802 8.841 9.39802C7.407 9.39802 6.24 10.565 6.24 11.999C6.24 13.434 7.407 14.601 8.841 14.601C10.013 14.601 10.995 13.817 11.319 12.749H13.431V13.851C13.431 14.265 13.767 14.601 14.181 14.601C14.595 14.601 14.931 14.265 14.931 13.851V12.749H16.261V13.851C16.261 14.265 16.597 14.601 17.011 14.601ZM7.666 1.99902H16.335C19.723 1.99902 22 4.37702 22 7.91602V16.083C22 19.622 19.723 21.999 16.334 21.999H7.666C4.277 21.999 2 19.622 2 16.083V7.91602C2 4.37702 4.277 1.99902 7.666 1.99902ZM7.7391 11.9999C7.7391 11.3919 8.2341 10.8979 8.8411 10.8979C9.4481 10.8979 9.9431 11.3919 9.9431 11.9999C9.9431 12.6069 9.4481 13.1009 8.8411 13.1009C8.2341 13.1009 7.7391 12.6069 7.7391 11.9999Z" fill="#152946"/>
</svg>
