<svg width="24" height="24" viewBox="0 0 24 24" fill="none" xmlns="http://www.w3.org/2000/svg">
<path d="M14.12 9.87998C13.8454 9.58523 13.5141 9.34882 13.1462 9.18485C12.7782 9.02088 12.3809 8.93272 11.9781 8.92561C11.5753 8.9185 11.1752 8.9926 10.8016 9.14348C10.4281 9.29437 10.0887 9.51895 9.80385 9.80382C9.51897 10.0887 9.29439 10.428 9.14351 10.8016C8.99262 11.1751 8.91853 11.5753 8.92563 11.9781C8.93274 12.3809 9.02091 12.7781 9.18488 13.1461C9.34884 13.5141 9.58525 13.8453 9.88 14.12M17.94 6.05997C16.2306 4.75697 14.1491 4.03511 12 3.99998C5 3.99998 1 12 1 12C2.24389 14.3181 3.96914 16.3434 6.06 17.94L17.94 6.05997ZM9.9 19.76C10.5883 19.9211 11.2931 20.0016 12 20C19 20 23 12 23 12C22.393 10.8644 21.6691 9.79524 20.84 8.80998L9.9 19.76Z" stroke="#7E8CA0" stroke-width="2" stroke-linecap="round" stroke-linejoin="round"/>
<path d="M1 23L23 1" stroke="#7E8CA0" stroke-width="2" stroke-linecap="round" stroke-linejoin="round"/>
</svg>
